SplineFontDB: 3.2
FontName: MusiQwik
FullName: MusiQwik
FamilyName: MusiQwik
Weight: Book
Copyright: Copyright (c) 2001, 2008 by Robert Allgeyer. SIL Open Font License.
Version: 5.002
ItalicAngle: 0
UnderlinePosition: -256
UnderlineWidth: 102
Ascent: 1638
Descent: 410
InvalidEm: 0
sfntRevision: 0x00050083
LayerCount: 2
Layer: 0 1 "Back" 1
Layer: 1 1 "Fore" 0
XUID: [1021 37 -1274402921 246421]
StyleMap: 0x0040
FSType: 0
OS2Version: 3
OS2_WeightWidthSlopeOnly: 0
OS2_UseTypoMetrics: 0
CreationTime: 1199856660
ModificationTime: 1705524869
PfmFamily: 17
TTFWeight: 400
TTFWidth: 5
LineGap: 56
VLineGap: 0
Panose: 2 0 0 0 0 0 0 0 0 0
OS2TypoAscent: 1802
OS2TypoAOffset: 0
OS2TypoDescent: -1055
OS2TypoDOffset: 0
OS2TypoLinegap: 111
OS2WinAscent: 2726
OS2WinAOffset: 0
OS2WinDescent: 1251
OS2WinDOffset: 0
HheadAscent: 2726
HheadAOffset: 0
HheadDescent: -1251
HheadDOffset: 0
OS2SubXSize: 418
OS2SubYSize: 418
OS2SubXOff: 0
OS2SubYOff: 586
OS2SupXSize: 418
OS2SupYSize: 418
OS2SupXOff: 0
OS2SupYOff: 586
OS2StrikeYSize: 102
OS2StrikeYPos: 512
OS2CapHeight: 1794
OS2XHeight: 1638
OS2Vendor: 'NONE'
OS2CodePages: 00000001.00000000
OS2UnicodeRanges: 00000003.00000000.00000000.00000000
DEI: 91125
TtTable: prep
PUSHB_1
 10
CALL
PUSHB_1
 0
CALL
EndTTInstrs
TtTable: fpgm
PUSHB_1
 0
FDEF
MPPEM
PUSHB_1
 18
LT
IF
PUSHB_2
 1
 1
INSTCTRL
EIF
PUSHW_1
 511
SCANCTRL
PUSHB_1
 68
SCVTCI
PUSHB_2
 18
 3
SDS
SDB
ENDF
PUSHB_1
 1
FDEF
DUP
DUP
RCVT
ROUND[Black]
WCVTP
PUSHB_1
 1
ADD
ENDF
PUSHB_1
 2
FDEF
PUSHB_1
 1
LOOPCALL
POP
ENDF
PUSHB_1
 3
FDEF
DUP
GC[cur]
PUSHB_1
 3
CINDEX
GC[cur]
GT
IF
SWAP
EIF
DUP
ROLL
DUP
ROLL
MD[grid]
ABS
ROLL
DUP
GC[cur]
DUP
ROUND[Grey]
SUB
ABS
PUSHB_1
 4
CINDEX
GC[cur]
DUP
ROUND[Grey]
SUB
ABS
GT
IF
SWAP
NEG
ROLL
EIF
MDAP[rnd]
DUP
PUSHB_1
 0
GTEQ
IF
ROUND[Black]
DUP
PUSHB_1
 0
EQ
IF
POP
PUSHB_1
 64
EIF
ELSE
ROUND[Black]
DUP
PUSHB_1
 0
EQ
IF
POP
PUSHB_1
 64
NEG
EIF
EIF
MSIRP[no-rp0]
ENDF
PUSHB_1
 4
FDEF
DUP
GC[cur]
PUSHB_1
 4
CINDEX
GC[cur]
GT
IF
SWAP
ROLL
EIF
DUP
GC[cur]
DUP

StartChar: exclam
Encoding: 33 33 2
Width: 480
GlyphClass: 1
Flags: W
LayerCount: 2
Fore
SplineSet
-16 1229 m 1,0,-1
 445 1229 l 1,1,-1
 445 1587 l 1,2,-1
 -16 1587 l 1,3,-1
 -16 1638 l 1,4,-1
 496 1638 l 1,5,-1
 496 -51 l 1,6,-1
 -16 -51 l 1,7,-1
 -16 0 l 1,8,-1
 445 0 l 1,9,-1
 445 358 l 1,10,-1
 -16 358 l 1,11,-1
 -16 410 l 1,12,-1
 445 410 l 1,13,-1
 445 768 l 1,14,-1
 -16 768 l 1,15,-1
 -16 819 l 1,16,-1
 445 819 l 1,17,-1
 445 1178 l 1,18,-1
 -16 1178 l 1,19,-1
 -16 1229 l 1,0,-1
EndSplineSet
Validated: 1
EndChar

StartChar: quotedbl
Encoding: 34 34 3
Width: 480
GlyphClass: 1
Flags: W
LayerCount: 2
Fore
SplineSet
496 1638 m 1,0,-1
 496 -51 l 1,1,-1
 -16 -51 l 1,2,-1
 -16 0 l 1,3,-1
 189 0 l 1,4,-1
 189 358 l 1,5,-1
 -16 358 l 1,6,-1
 -16 410 l 1,7,-1
 189 410 l 1,8,-1
 189 768 l 1,9,-1
 -16 768 l 1,10,-1
 -16 819 l 1,11,-1
 189 819 l 1,12,-1
 189 1178 l 1,13,-1
 -16 1178 l 1,14,-1
 -16 1229 l 1,15,-1
 189 1229 l 1,16,-1
 189 1587 l 1,17,-1
 -16 1587 l 1,18,-1
 -16 1638 l 1,19,-1
 496 1638 l 1,0,-1
445 0 m 1,20,-1
 445 358 l 1,21,-1
 240 358 l 1,22,-1
 240 0 l 1,23,-1
 445 0 l 1,20,-1
445 768 m 1,24,-1
 240 768 l 1,25,-1
 240 410 l 1,26,-1
 445 410 l 1,27,-1
 445 768 l 1,24,-1
240 1587 m 1,28,-1
 240 1229 l 1,29,-1
 445 1229 l 1,30,-1
 445 1587 l 1,31,-1
 240 1587 l 1,28,-1
445 1178 m 1,32,-1
 240 1178 l 1,33,-1
 240 819 l 1,34,-1
 445 819 l 1,35,-1
 445 1178 l 1,32,-1
EndSplineSet
Validated: 1
EndChar

StartChar: numbersign
Encoding: 35 35 4
Width: 20
GlyphClass: 1
Flags: W
LayerCount: 2
Fore
SplineSet
35 -51 m 1,0,-1
 -16 -51 l 1,1,-1
 -16 0 l 1,2,-1
 35 0 l 1,3,-1
 35 -51 l 1,0,-1
35 768 m 1,4,-1
 -16 768 l 1,5,-1
 -16 819 l 1,6,-1
 35 819 l 1,7,-1
 35 768 l 1,4,-1
35 1178 m 1,8,-1
 -16 1178 l 1,9,-1
 -16 1229 l 1,10,-1
 35 1229 l 1,11,-1
 35 1178 l 1,8,-1
35 1587 m 1,12,-1
 -16 1587 l 1,13,-1
 -16 1638 l 1,14,-1
 35 1638 l 1,15,-1
 35 1587 l 1,12,-1
35 358 m 1,16,-1
 -16 358 l 1,17,-1
 -16 410 l 1,18,-1
 35 410 l 1,19,-1
 35 358 l 1,16,-1
-16 1726 m 1,20,21
 2 1804 2 1804 62.5 1849 c 128,-1,22
 123 1894 123 1894 240 1894 c 256,23,24
 357 1894 357 1894 417.5 1849 c 128,-1,25
 478 1804 478 1804 496 1726 c 1,26,-1
 445 1726 l 1,27,28
 445 1751 445 1751 420.5 1764.5 c 128,-1,29
 396 1778 396 1778 362 1784 c 128,-1,30
 328 1790 328 1790 293 1791 c 128,-1,31
 258 1792 258 1792 240 1792 c 256,32,33
 222 1792 222 1792 187 1791 c 128,-1,34
 152 1790 152 1790 118 1784 c 128,-1,35
 84 1778 84 1778 59.5 1764.5 c 128,-1,36
 35 1751 35 1751 35 1726 c 1,37,-1
 -16 1726 l 1,20,21
EndSplineSet
Validated: 1
EndChar

StartChar: dollar
Encoding: 36 36 5
Width: 20
GlyphClass: 1
Flags: W
LayerCount: 2
Fore
SplineSet
35 -51 m 1,0,-1
 -16 -51 l 1,1,-1
 -16 0 l 1,2,-1
 35 0 l 1,3,-1
 35 -51 l 1,0,-1
35 768 m 1,4,-1
 -16 768 l 1,5,-1
 -16 819 l 1,6,-1
 35 819 l 1,7,-1
 35 768 l 1,4,-1
35 1178 m 1,8,-1
 -16 1178 l 1,9,-1
 -16 1229 l 1,10,-1
 35 1229 l 1,11,-1
 35 1178 l 1,8,-1
35 1587 m 1,12,-1
 -16 1587 l 1,13,-1
 -16 1638 l 1,14,-1
 35 1638 l 1,15,-1
 35 1587 l 1,12,-1
35 358 m 1,16,-1
 -16 358 l 1,17,-1
 -16 410 l 1,18,-1
 35 410 l 1,19,-1
 35 358 l 1,16,-1
537 2099 m 2,20,21
 598 2099 598 2099 680 2079.5 c 128,-1,22
 762 2060 762 2060 835 2016 c 128,-1,23
 908 1972 908 1972 958 1901.5 c 128,-1,24
 1008 1831 1008 1831 1008 1726 c 1,25,-1
 957 1726 l 1,26,27
 926 1780 926 1780 894.5 1829 c 128,-1,28
 863 1878 863 1878 813.5 1915 c 128,-1,29
 764 1952 764 1952 689.5 1974.5 c 128,-1,30
 615 1997 615 1997 500 1997 c 0,31,32
 377 1997 377 1997 304.5 1977.5 c 128,-1,33
 232 1958 232 1958 186 1922 c 128,-1,34
 140 1886 140 1886 109 1836 c 128,-1,35
 78 1786 78 1786 37 1726 c 1,36,37
 -14 1726 -14 1726 -16 1726 c 1,38,39
 -16 1825 -16 1825 34 1895.5 c 128,-1,40
 84 1966 84 1966 158 2011 c 128,-1,41
 232 2056 232 2056 313 2077.5 c 128,-1,42
 394 2099 394 2099 455 2099 c 2,43,-1
 537 2099 l 2,20,21
EndSplineSet
Validated: 1
EndChar

StartChar: percent
Encoding: 37 37 6
Width: 20
GlyphClass: 1
Flags: W
LayerCount: 2
Fore
SplineSet
793 2220 m 2,0,1
 934 2220 934 2220 1057 2177 c 128,-1,2
 1180 2134 1180 2134 1313 2040 c 1,3,4
 1311 2040 1311 2040 1325.5 2020.5 c 128,-1,5
 1340 2001 1340 2001 1360.5 1970 c 128,-1,6
 1381 1939 1381 1939 1406.5 1903.5 c 128,-1,7
 1432 1868 1432 1868 1454.5 1833 c 128,-1,8
 1477 1798 1477 1798 1491.5 1771.5 c 128,-1,9
 1506 1745 1506 1745 1506 1735 c 0,10,11
 1506 1726 1506 1726 1500 1726 c 0,12,13
 1497 1726 1497 1726 1494 1728.5 c 128,-1,14
 1491 1731 1491 1731 1487 1733 c 0,15,16
 1457 1751 1457 1751 1425 1785 c 128,-1,17
 1393 1819 1393 1819 1365.5 1854.5 c 128,-1,18
 1338 1890 1338 1890 1316.5 1918 c 128,-1,19
 1295 1946 1295 1946 1282 1952 c 0,20,21
 1153 2038 1153 2038 1023 2077 c 128,-1,22
 893 2116 893 2116 758 2116 c 0,23,24
 617 2116 617 2116 477.5 2081 c 128,-1,25
 338 2046 338 2046 203 1948 c 0,26,27
 191 1939 191 1939 170.5 1912.5 c 128,-1,28
 150 1886 150 1886 123.5 1853.5 c 128,-1,29
 97 1821 97 1821 65 1787 c 128,-1,30
 33 1753 33 1753 0 1733 c 0,31,32
 -6 1726 -6 1726 -10 1726 c 0,33,34
 -12 1726 -12 1726 -12 1731 c 0,35,36
 -12 1739 -12 1739 1.5 1764.5 c 128,-1,37
 15 1790 15 1790 34.5 1825 c 128,-1,38
 54 1860 54 1860 77.5 1897.5 c 128,-1,39
 101 1935 101 1935 122.5 1967 c 128,-1,40
 144 1999 144 1999 159 2019.5 c 128,-1,41
 174 2040 174 2040 181 2040 c 0,42,43
 316 2134 316 2134 443 2177 c 128,-1,44
 570 2220 570 2220 711 2220 c 2,45,-1
 793 2220 l 2,0,1
35 358 m 1,46,-1
 -16 358 l 1,47,-1
 -16 410 l 1,48,-1
 35 410 l 1,49,-1
 35 358 l 1,46,-1
35 768 m 1,50,-1
 -16 768 l 1,51,-1
 -16 819 l 1,52,-1
 35 819 l 1,53,-1
 35 768 l 1,50,-1
35 1178 m 1,54,-1
 -16 1178 l 1,55,-1
 -16 1229 l 1,56,-1
 35 1229 l 1,57,-1
 35 1178 l 1,54,-1
35 1587 m 1,58,-1
 -16 1587 l 1,59,-1
 -16 1638 l 1,60,-1
 35 1638 l 1,61,-1
 35 1587 l 1,58,-1
35 -51 m 1,62,-1
 -16 -51 l 1,63,-1
 -16 0 l 1,64,-1
 35 0 l 1,65,-1
 35 -51 l 1,62,-1
EndSplineSet
Validated: 1
EndChar

StartChar: ampersand
Encoding: 38 38 7
Width: 992
GlyphClass: 1
Flags: W
LayerCount: 2
Fore
SplineSet
1008 -51 m 1,0,-1
 725 -51 l 1,1,-1
 727 -66 l 1,2,3
 744 -117 744 -117 754 -180.5 c 128,-1,4
 764 -244 764 -244 770 -309 c 1,5,-1
 770 -332 l 2,6,7
 770 -393 770 -393 746.5 -446.5 c 128,-1,8
 723 -500 723 -500 683 -539 c 128,-1,9
 643 -578 643 -578 590 -600.5 c 128,-1,10
 537 -623 537 -623 478 -623 c 0,11,12
 422 -623 422 -623 365 -600 c 0,13,14
 293 -573 293 -573 246 -519 c 128,-1,15
 199 -465 199 -465 199 -385 c 0,16,17
 199 -336 199 -336 227.5 -284.5 c 128,-1,18
 256 -233 256 -233 303 -211 c 0,19,20
 340 -193 340 -193 371 -193 c 256,21,22
 402 -193 402 -193 427.5 -208 c 128,-1,23
 453 -223 453 -223 471.5 -247.5 c 128,-1,24
 490 -272 490 -272 499 -303 c 128,-1,25
 508 -334 508 -334 508 -365 c 0,26,27
 508 -418 508 -418 475.5 -461 c 128,-1,28
 443 -504 443 -504 367 -504 c 2,29,-1
 353 -504 l 1,30,31
 373 -543 373 -543 404 -557 c 128,-1,32
 435 -571 435 -571 471 -571 c 0,33,34
 533 -571 533 -571 595.5 -538.5 c 128,-1,35
 658 -506 658 -506 689 -467 c 0,36,37
 707 -438 707 -438 715 -391 c 128,-1,38
 723 -344 723 -344 723 -297 c 0,39,40
 723 -262 723 -262 720 -231.5 c 128,-1,41
 717 -201 717 -201 709 -178 c 1,42,43
 709 -143 709 -143 696.5 -113.5 c 128,-1,44
 684 -84 684 -84 674 -51 c 1,45,-1
 -16 -51 l 1,46,-1
 -16 0 l 1,47,-1
 457 0 l 1,48,49
 424 2 424 2 398 16 c 1,50,51
 267 51 267 51 171.5 143.5 c 128,-1,52
 76 236 76 236 29 358 c 1,53,-1
 -16 358 l 1,54,-1
 -16 410 l 1,55,-1
 11 410 l 1,56,57
 -14 492 -14 492 -14 582 c 0,58,59
 -14 676 -14 676 17 768 c 1,60,-1
 -16 768 l 1,61,-1
 -16 819 l 1,62,-1
 39 819 l 1,63,64
 90 920 90 920 153.5 1009 c 128,-1,65
 217 1098 217 1098 293 1178 c 1,66,-1
 -16 1178 l 1,67,-1
 -16 1229 l 1,68,-1
 344 1229 l 1,69,70
 361 1243 361 1243 376.5 1257.5 c 128,-1,71
 392 1272 392 1272 408 1286 c 1,72,73
 387 1364 387 1364 372 1436.5 c 128,-1,74
 357 1509 357 1509 353 1587 c 1,75,-1
 -16 1587 l 1,76,-1
 -16 1638 l 1,77,-1
 353 1638 l 1,78,79
 353 1702 353 1702 362 1780 c 128,-1,80
 371 1858 371 1858 395.5 1929.5 c 128,-1,81
 420 2001 420 2001 464 2059.5 c 128,-1,82
 508 2118 508 2118 578 2144 c 0,83,84
 582 2146 582 2146 588 2146 c 0,85,86
 602 2146 602 2146 617.5 2131 c 128,-1,87
 633 2116 633 2116 645.5 2096.5 c 128,-1,88
 658 2077 658 2077 667 2058.5 c 128,-1,89
 676 2040 676 2040 680 2032 c 0,90,91
 715 1964 715 1964 732.5 1887 c 128,-1,92
 750 1810 750 1810 752 1735 c 0,93,94
 752 1722 752 1722 753 1710 c 128,-1,95
 754 1698 754 1698 754 1686 c 0,96,97
 754 1673 754 1673 753 1661 c 128,-1,98
 752 1649 752 1649 752 1638 c 1,99,-1
 1008 1638 l 1,100,-1
 1008 1587 l 1,101,-1
 750 1587 l 1,102,103
 744 1509 744 1509 724.5 1435.5 c 128,-1,104
 705 1362 705 1362 668 1290 c 1,105,-1
 631 1229 l 1,106,-1
 1008 1229 l 1,107,-1
 1008 1178 l 1,108,-1
 596 1178 l 2,109,110
 594 1176 594 1176 591 1171.5 c 128,-1,111
 588 1167 588 1167 584 1163 c 0,112,113
 578 1157 578 1157 564.5 1143.5 c 128,-1,114
 551 1130 551 1130 536 1116 c 128,-1,115
 521 1102 521 1102 509.5 1088.5 c 128,-1,116
 498 1075 498 1075 498 1073 c 0,117,118
 516 989 516 989 523 938 c 1,119,120
 533 907 533 907 538 877.5 c 128,-1,121
 543 848 543 848 549 819 c 1,122,-1
 1008 819 l 1,123,-1
 1008 768 l 1,124,-1
 754 768 l 1,125,126
 854 713 854 713 908.5 616.5 c 128,-1,127
 963 520 963 520 963 410 c 1,128,-1
 1008 410 l 1,129,-1
 1008 358 l 1,130,-1
 961 358 l 1,131,132
 955 317 955 317 942 279 c 0,133,134
 916 207 916 207 872 154.5 c 128,-1,135
 828 102 828 102 768 68 c 0,136,137
 756 59 756 59 733.5 51 c 128,-1,138
 711 43 711 43 711 25 c 2,139,-1
 711 18 l 1,140,-1
 713 0 l 1,141,-1
 1008 0 l 1,142,-1
 1008 -51 l 1,0,-1
381 358 m 1,143,144
 387 315 387 315 414 278.5 c 128,-1,145
 441 242 441 242 490 215 c 1,146,147
 512 215 512 215 512 199 c 0,148,149
 512 188 512 188 498 188 c 0,150,151
 433 201 433 201 385 242 c 0,152,153
 324 291 324 291 299 358 c 1,154,-1
 103 358 l 1,155,156
 119 291 119 291 159 232.5 c 128,-1,157
 199 174 199 174 254.5 132 c 128,-1,158
 310 90 310 90 376.5 66.5 c 128,-1,159
 443 43 443 43 512 43 c 0,160,161
 514 43 514 43 536.5 46 c 128,-1,162
 559 49 559 49 584 53 c 128,-1,163
 609 57 609 57 629.5 62.5 c 128,-1,164
 650 68 650 68 650 72 c 0,165,166
 641 86 641 86 641 109 c 1,167,168
 631 156 631 156 624 200 c 128,-1,169
 617 244 617 244 602 291 c 1,170,-1
 590 358 l 1,171,-1
 381 358 l 1,143,144
285 410 m 1,172,173
 283 412 283 412 283 438 c 0,174,175
 281 449 281 449 281 469 c 0,176,177
 281 520 281 520 297.5 568 c 128,-1,178
 314 616 314 616 340 657 c 0,179,180
 359 680 359 680 379.5 701.5 c 128,-1,181
 400 723 400 723 424 741 c 0,182,183
 426 743 426 743 440.5 750.5 c 128,-1,184
 455 758 455 758 471 768 c 1,185,-1
 201 768 l 1,186,187
 152 694 152 694 122.5 613 c 128,-1,188
 93 532 93 532 93 446 c 2,189,-1
 93 410 l 1,190,-1
 285 410 l 1,172,173
666 1638 m 1,191,192
 670 1649 670 1649 672 1657 c 128,-1,193
 674 1665 674 1665 678 1673 c 0,194,195
 686 1698 686 1698 692.5 1727.5 c 128,-1,196
 699 1757 699 1757 699 1786 c 0,197,198
 699 1829 699 1829 680 1864 c 0,199,200
 660 1905 660 1905 623 1905 c 0,201,202
 588 1905 588 1905 554.5 1879 c 128,-1,203
 521 1853 521 1853 504 1831 c 0,204,205
 455 1749 455 1749 430 1638 c 1,206,-1
 666 1638 l 1,191,192
639 358 m 1,207,208
 654 291 654 291 667 222.5 c 128,-1,209
 680 154 680 154 697 88 c 1,210,211
 775 117 775 117 810.5 179.5 c 128,-1,212
 846 242 846 242 846 317 c 0,213,214
 846 328 846 328 846 338 c 256,215,216
 846 348 846 348 844 358 c 1,217,-1
 639 358 l 1,207,208
449 1327 m 1,218,219
 512 1360 512 1360 562.5 1435.5 c 128,-1,220
 613 1511 613 1511 646 1587 c 1,221,-1
 422 1587 l 1,222,223
 416 1544 416 1544 416 1501 c 0,224,225
 416 1401 416 1401 449 1327 c 1,218,219
588 616 m 1,226,227
 598 563 598 563 608.5 512 c 128,-1,228
 619 461 619 461 629 410 c 1,229,-1
 834 410 l 1,230,231
 811 496 811 496 748.5 556 c 128,-1,232
 686 616 686 616 588 616 c 1,226,227
496 819 m 1,233,234
 482 874 482 874 473.5 925.5 c 128,-1,235
 465 977 465 977 453 1032 c 1,236,237
 398 985 398 985 342.5 932 c 128,-1,238
 287 879 287 879 240 819 c 1,239,-1
 496 819 l 1,233,234
543 610 m 1,240,241
 471 588 471 588 428 531.5 c 128,-1,242
 385 475 385 475 379 410 c 1,243,-1
 580 410 l 1,244,245
 570 459 570 459 561.5 509 c 128,-1,246
 553 559 553 559 543 610 c 1,240,241
658 2 m 1,247,248
 648 14 648 14 633 14 c 0,249,250
 621 14 621 14 608.5 10 c 128,-1,251
 596 6 596 6 588 2 c 0,252,253
 586 0 586 0 584 0 c 1,254,-1
 658 0 l 1,255,-1
 658 2 l 1,247,248
EndSplineSet
Validated: 1
EndChar

StartChar: quotesingle
Encoding: 39 39 8
Width: 480
GlyphClass: 1
Flags: W
LayerCount: 2
Fore
SplineSet
496 1638 m 1,0,-1
 496 1587 l 1,1,-1
 35 1587 l 1,2,-1
 35 1229 l 1,3,-1
 496 1229 l 1,4,-1
 496 1178 l 1,5,-1
 35 1178 l 1,6,-1
 35 819 l 1,7,-1
 496 819 l 1,8,-1
 496 768 l 1,9,-1
 35 768 l 1,10,-1
 35 410 l 1,11,-1
 496 410 l 1,12,-1
 496 358 l 1,13,-1
 35 358 l 1,14,-1
 35 0 l 1,15,-1
 496 0 l 1,16,-1
 496 -51 l 1,17,-1
 -16 -51 l 1,18,-1
 -16 1638 l 1,19,-1
 496 1638 l 1,0,-1
EndSplineSet
Validated: 1
EndChar

StartChar: parenleft
Encoding: 40 40 9
Width: 992
GlyphClass: 1
Flags: W
LayerCount: 2
Fore
SplineSet
-16 1638 m 1,0,-1
 1008 1638 l 1,1,-1
 1008 1587 l 1,2,-1
 445 1587 l 1,3,-1
 445 1229 l 1,4,-1
 1008 1229 l 1,5,-1
 1008 1178 l 1,6,-1
 445 1178 l 1,7,-1
 445 819 l 1,8,-1
 1008 819 l 1,9,-1
 1008 768 l 1,10,-1
 445 768 l 1,11,-1
 445 410 l 1,12,-1
 1008 410 l 1,13,-1
 1008 358 l 1,14,-1
 445 358 l 1,15,-1
 445 0 l 1,16,-1
 1008 0 l 1,17,-1
 1008 -51 l 1,18,-1
 -16 -51 l 1,19,-1
 -16 1638 l 1,0,-1
394 1229 m 1,20,-1
 394 1587 l 1,21,-1
 189 1587 l 1,22,-1
 189 1229 l 1,23,-1
 394 1229 l 1,20,-1
189 1178 m 1,24,-1
 189 819 l 1,25,-1
 394 819 l 1,26,-1
 394 1178 l 1,27,-1
 189 1178 l 1,24,-1
189 0 m 1,28,-1
 394 0 l 1,29,-1
 394 358 l 1,30,-1
 189 358 l 1,31,-1
 189 0 l 1,28,-1
189 768 m 1,32,-1
 189 410 l 1,33,-1
 394 410 l 1,34,-1
 394 768 l 1,35,-1
 189 768 l 1,32,-1
803 999 m 1,36,37
 805 958 805 958 771.5 927.5 c 128,-1,38
 738 897 738 897 701 897 c 0,39,40
 666 897 666 897 632 924.5 c 128,-1,41
 598 952 598 952 598 999 c 0,42,43
 598 1038 598 1038 626 1070 c 128,-1,44
 654 1102 654 1102 701 1102 c 0,45,46
 750 1102 750 1102 778.5 1069 c 128,-1,47
 807 1036 807 1036 803 999 c 1,36,37
803 590 m 1,48,49
 805 549 805 549 771.5 518 c 128,-1,50
 738 487 738 487 701 487 c 0,51,52
 666 487 666 487 632 515 c 128,-1,53
 598 543 598 543 598 590 c 0,54,55
 598 629 598 629 626 660.5 c 128,-1,56
 654 692 654 692 701 692 c 0,57,58
 750 692 750 692 778.5 659.5 c 128,-1,59
 807 627 807 627 803 590 c 1,48,49
EndSplineSet
Validated: 33
EndChar

StartChar: parenright
Encoding: 41 41 10
Width: 992
GlyphClass: 1
Flags: W
LayerCount: 2
Fore
SplineSet
1008 1638 m 1,0,-1
 1008 -51 l 1,1,-1
 -16 -51 l 1,2,-1
 -16 0 l 1,3,-1
 496 0 l 1,4,-1
 496 358 l 1,5,-1
 -16 358 l 1,6,-1
 -16 410 l 1,7,-1
 496 410 l 1,8,-1
 496 768 l 1,9,-1
 -16 768 l 1,10,-1
 -16 819 l 1,11,-1
 496 819 l 1,12,-1
 496 1178 l 1,13,-1
 -16 1178 l 1,14,-1
 -16 1229 l 1,15,-1
 496 1229 l 1,16,-1
 496 1587 l 1,17,-1
 -16 1587 l 1,18,-1
 -16 1638 l 1,19,-1
 1008 1638 l 1,0,-1
803 1587 m 1,20,-1
 598 1587 l 1,21,-1
 598 1229 l 1,22,-1
 803 1229 l 1,23,-1
 803 1587 l 1,20,-1
803 768 m 1,24,-1
 598 768 l 1,25,-1
 598 410 l 1,26,-1
 803 410 l 1,27,-1
 803 768 l 1,24,-1
803 1178 m 1,28,-1
 598 1178 l 1,29,-1
 598 819 l 1,30,-1
 803 819 l 1,31,-1
 803 1178 l 1,28,-1
803 0 m 1,32,-1
 803 358 l 1,33,-1
 598 358 l 1,34,-1
 598 0 l 1,35,-1
 803 0 l 1,32,-1
291 999 m 1,36,37
 293 958 293 958 259.5 927.5 c 128,-1,38
 226 897 226 897 189 897 c 0,39,40
 154 897 154 897 120 924.5 c 128,-1,41
 86 952 86 952 86 999 c 0,42,43
 86 1038 86 1038 114 1070 c 128,-1,44
 142 1102 142 1102 189 1102 c 0,45,46
 238 1102 238 1102 266.5 1069 c 128,-1,47
 295 1036 295 1036 291 999 c 1,36,37
291 592 m 1,48,49
 293 551 293 551 259.5 520 c 128,-1,50
 226 489 226 489 189 489 c 0,51,52
 154 489 154 489 120 517 c 128,-1,53
 86 545 86 545 86 592 c 0,54,55
 86 631 86 631 114 662.5 c 128,-1,56
 142 694 142 694 189 694 c 0,57,58
 238 694 238 694 266.5 661.5 c 128,-1,59
 295 629 295 629 291 592 c 1,48,49
EndSplineSet
Validated: 33
EndChar

StartChar: asterisk
Encoding: 42 42 11
Width: 20
GlyphClass: 1
Flags: W
LayerCount: 2
Fore
SplineSet
35 -51 m 1,0,-1
 -16 -51 l 1,1,-1
 -16 0 l 1,2,-1
 35 0 l 1,3,-1
 35 -51 l 1,0,-1
35 1587 m 1,4,-1
 -16 1587 l 1,5,-1
 -16 1638 l 1,6,-1
 35 1638 l 1,7,-1
 35 1587 l 1,4,-1
35 1178 m 1,8,-1
 -16 1178 l 1,9,-1
 -16 1229 l 1,10,-1
 35 1229 l 1,11,-1
 35 1178 l 1,8,-1
35 768 m 1,12,-1
 -16 768 l 1,13,-1
 -16 819 l 1,14,-1
 35 819 l 1,15,-1
 35 768 l 1,12,-1
35 358 m 1,16,-1
 -16 358 l 1,17,-1
 -16 410 l 1,18,-1
 35 410 l 1,19,-1
 35 358 l 1,16,-1
35 -139 m 1,20,21
 35 -164 35 -164 59.5 -177 c 128,-1,22
 84 -190 84 -190 118 -196.5 c 128,-1,23
 152 -203 152 -203 187 -204 c 128,-1,24
 222 -205 222 -205 240 -205 c 256,25,26
 258 -205 258 -205 293 -204 c 128,-1,27
 328 -203 328 -203 362 -196.5 c 128,-1,28
 396 -190 396 -190 420.5 -177 c 128,-1,29
 445 -164 445 -164 445 -139 c 1,30,-1
 496 -139 l 1,31,32
 478 -217 478 -217 417.5 -262 c 128,-1,33
 357 -307 357 -307 240 -307 c 256,34,35
 123 -307 123 -307 62.5 -262 c 128,-1,36
 2 -217 2 -217 -16 -139 c 1,37,-1
 35 -139 l 1,20,21
EndSplineSet
Validated: 1
EndChar

StartChar: plus
Encoding: 43 43 12
Width: 20
GlyphClass: 1
Flags: W
LayerCount: 2
Fore
SplineSet
35 -51 m 1,0,-1
 -16 -51 l 1,1,-1
 -16 0 l 1,2,-1
 35 0 l 1,3,-1
 35 -51 l 1,0,-1
35 768 m 1,4,-1
 -16 768 l 1,5,-1
 -16 819 l 1,6,-1
 35 819 l 1,7,-1
 35 768 l 1,4,-1
35 1178 m 1,8,-1
 -16 1178 l 1,9,-1
 -16 1229 l 1,10,-1
 35 1229 l 1,11,-1
 35 1178 l 1,8,-1
35 1587 m 1,12,-1
 -16 1587 l 1,13,-1
 -16 1638 l 1,14,-1
 35 1638 l 1,15,-1
 35 1587 l 1,12,-1
35 358 m 1,16,-1
 -16 358 l 1,17,-1
 -16 410 l 1,18,-1
 35 410 l 1,19,-1
 35 358 l 1,16,-1
455 -512 m 2,20,21
 394 -512 394 -512 313 -490.5 c 128,-1,22
 232 -469 232 -469 158 -424 c 128,-1,23
 84 -379 84 -379 34 -308.5 c 128,-1,24
 -16 -238 -16 -238 -16 -139 c 1,25,-1
 35 -139 l 1,26,27
 76 -199 76 -199 107 -249 c 128,-1,28
 138 -299 138 -299 184 -335 c 128,-1,29
 230 -371 230 -371 303.5 -390.5 c 128,-1,30
 377 -410 377 -410 500 -410 c 0,31,32
 615 -410 615 -410 689.5 -387.5 c 128,-1,33
 764 -365 764 -365 813.5 -328 c 128,-1,34
 863 -291 863 -291 894.5 -242 c 128,-1,35
 926 -193 926 -193 957 -139 c 1,36,-1
 1008 -139 l 1,37,38
 1008 -244 1008 -244 958 -314.5 c 128,-1,39
 908 -385 908 -385 835 -429 c 128,-1,40
 762 -473 762 -473 680 -492.5 c 128,-1,41
 598 -512 598 -512 537 -512 c 2,42,-1
 455 -512 l 2,20,21
EndSplineSet
Validated: 1
EndChar

StartChar: comma
Encoding: 44 44 13
Width: 20
GlyphClass: 1
Flags: W
LayerCount: 2
Fore
SplineSet
705 -633 m 2,0,1
 564 -633 564 -633 437 -590 c 128,-1,2
 310 -547 310 -547 174 -453 c 1,3,4
 166 -453 166 -453 135.5 -411 c 128,-1,5
 105 -369 105 -369 71 -316.5 c 128,-1,6
 37 -264 37 -264 10.5 -216 c 128,-1,7
 -16 -168 -16 -168 -16 -156 c 0,8,9
 -16 -154 -16 -154 -7 -146.5 c 128,-1,10
 2 -139 2 -139 4 -139 c 0,11,12
 39 -139 39 -139 67 -166 c 128,-1,13
 95 -193 95 -193 117.5 -229.5 c 128,-1,14
 140 -266 140 -266 159.5 -303 c 128,-1,15
 179 -340 179 -340 197 -360 c 1,16,17
 332 -459 332 -459 471.5 -493.5 c 128,-1,18
 611 -528 611 -528 752 -528 c 0,19,20
 887 -528 887 -528 1017 -489.5 c 128,-1,21
 1147 -451 1147 -451 1276 -365 c 1,22,23
 1291 -346 1291 -346 1315.5 -308 c 128,-1,24
 1340 -270 1340 -270 1369.5 -232.5 c 128,-1,25
 1399 -195 1399 -195 1432 -167 c 128,-1,26
 1465 -139 1465 -139 1497 -139 c 0,27,28
 1502 -139 1502 -139 1511 -149.5 c 128,-1,29
 1520 -160 1520 -160 1520 -164 c 0,30,31
 1520 -180 1520 -180 1486 -227 c 128,-1,32
 1452 -274 1452 -274 1411 -324.5 c 128,-1,33
 1370 -375 1370 -375 1337.5 -414 c 128,-1,34
 1305 -453 1305 -453 1307 -453 c 1,35,36
 1174 -547 1174 -547 1051 -590 c 128,-1,37
 928 -633 928 -633 787 -633 c 2,38,-1
 705 -633 l 2,0,1
35 -51 m 1,39,-1
 -16 -51 l 1,40,-1
 -16 0 l 1,41,-1
 35 0 l 1,42,-1
 35 -51 l 1,39,-1
35 768 m 1,43,-1
 -16 768 l 1,44,-1
 -16 819 l 1,45,-1
 35 819 l 1,46,-1
 35 768 l 1,43,-1
35 1178 m 1,47,-1
 -16 1178 l 1,48,-1
 -16 1229 l 1,49,-1
 35 1229 l 1,50,-1
 35 1178 l 1,47,-1
35 1587 m 1,51,-1
 -16 1587 l 1,52,-1
 -16 1638 l 1,53,-1
 35 1638 l 1,54,-1
 35 1587 l 1,51,-1
35 358 m 1,55,-1
 -16 358 l 1,56,-1
 -16 410 l 1,57,-1
 35 410 l 1,58,-1
 35 358 l 1,55,-1
EndSplineSet
Validated: 1
EndChar

StartChar: hyphen
Encoding: 45 45 14
Width: 20
GlyphClass: 1
Flags: W
LayerCount: 2
Fore
SplineSet
36 358 m 1,0,-1
 -16 358 l 1,1,-1
 -16 410 l 1,2,-1
 36 410 l 1,3,-1
 36 358 l 1,0,-1
36 1587 m 1,4,-1
 -16 1587 l 1,5,-1
 -16 1638 l 1,6,-1
 36 1638 l 1,7,-1
 36 1587 l 1,4,-1
36 1178 m 1,8,-1
 -16 1178 l 1,9,-1
 -16 1229 l 1,10,-1
 36 1229 l 1,11,-1
 36 1178 l 1,8,-1
36 768 m 1,12,-1
 -16 768 l 1,13,-1
 -16 819 l 1,14,-1
 36 819 l 1,15,-1
 36 768 l 1,12,-1
36 -51 m 1,16,-1
 -16 -51 l 1,17,-1
 -16 0 l 1,18,-1
 36 0 l 1,19,-1
 36 -51 l 1,16,-1
EndSplineSet
Validated: 1
EndChar

StartChar: period
Encoding: 46 46 15
Width: 480
GlyphClass: 1
Flags: W
LayerCount: 2
Fore
SplineSet
496 -51 m 1,0,-1
 -16 -51 l 1,1,-1
 -16 0 l 1,2,-1
 86 0 l 1,3,-1
 86 358 l 1,4,-1
 -16 358 l 1,5,-1
 -16 410 l 1,6,-1
 86 410 l 1,7,-1
 86 768 l 1,8,-1
 -16 768 l 1,9,-1
 -16 819 l 1,10,-1
 86 819 l 1,11,-1
 86 1178 l 1,12,-1
 -16 1178 l 1,13,-1
 -16 1229 l 1,14,-1
 86 1229 l 1,15,-1
 86 1587 l 1,16,-1
 -16 1587 l 1,17,-1
 -16 1638 l 1,18,-1
 496 1638 l 1,19,-1
 496 -51 l 1,0,-1
138 1178 m 1,20,-1
 138 819 l 1,21,-1
 289 819 l 1,22,-1
 289 1178 l 1,23,-1
 138 1178 l 1,20,-1
138 1587 m 1,24,-1
 138 1229 l 1,25,-1
 289 1229 l 1,26,-1
 289 1587 l 1,27,-1
 138 1587 l 1,24,-1
138 768 m 1,28,-1
 138 410 l 1,29,-1
 289 410 l 1,30,-1
 289 768 l 1,31,-1
 138 768 l 1,28,-1
289 358 m 1,32,-1
 138 358 l 1,33,-1
 138 0 l 1,34,-1
 289 0 l 1,35,-1
 289 358 l 1,32,-1
EndSplineSet
Validated: 1
EndChar

StartChar: slash
Encoding: 47 47 16
Width: 1536
GlyphClass: 1
Flags: W
LayerCount: 2
Fore
SplineSet
0 1794 m 1,0,-1
 1419 1794 l 1,1,-1
 1419 -383 l 1,2,-1
 0 -383 l 1,3,-1
 0 1794 l 1,0,-1
51 434 m 1,4,-1
 281 434 l 1,5,-1
 281 772 l 1,6,-1
 51 772 l 1,7,-1
 51 434 l 1,4,-1
51 823 m 1,8,-1
 281 823 l 1,9,-1
 281 1161 l 1,10,-1
 51 1161 l 1,11,-1
 51 823 l 1,8,-1
877 434 m 1,12,-1
 1104 434 l 1,13,-1
 1104 772 l 1,14,-1
 877 772 l 1,15,-1
 877 434 l 1,12,-1
877 823 m 1,16,-1
 1104 823 l 1,17,-1
 1104 1161 l 1,18,-1
 877 1161 l 1,19,-1
 877 823 l 1,16,-1
332 772 m 1,20,-1
 332 434 l 1,21,-1
 553 434 l 1,22,-1
 553 772 l 1,23,-1
 332 772 l 1,20,-1
51 1212 m 1,24,-1
 281 1212 l 1,25,-1
 281 1536 l 1,26,-1
 51 1536 l 1,27,-1
 51 1212 l 1,24,-1
332 823 m 1,28,-1
 553 823 l 1,29,-1
 553 1161 l 1,30,-1
 332 1161 l 1,31,-1
 332 823 l 1,28,-1
825 434 m 1,32,-1
 825 772 l 1,33,-1
 604 772 l 1,34,-1
 604 434 l 1,35,-1
 825 434 l 1,32,-1
877 1212 m 1,36,-1
 1104 1212 l 1,37,-1
 1104 1536 l 1,38,-1
 877 1536 l 1,39,-1
 877 1212 l 1,36,-1
604 1161 m 1,40,-1
 604 823 l 1,41,-1
 825 823 l 1,42,-1
 825 1161 l 1,43,-1
 604 1161 l 1,40,-1
332 1212 m 1,44,-1
 553 1212 l 1,45,-1
 553 1536 l 1,46,-1
 332 1536 l 1,47,-1
 332 1212 l 1,44,-1
604 1212 m 1,48,-1
 825 1212 l 1,49,-1
 825 1536 l 1,50,-1
 604 1536 l 1,51,-1
 604 1212 l 1,48,-1
1155 434 m 1,52,-1
 1368 434 l 1,53,-1
 1368 772 l 1,54,-1
 1155 772 l 1,55,-1
 1155 434 l 1,52,-1
1368 823 m 1,56,-1
 1368 1161 l 1,57,-1
 1155 1161 l 1,58,-1
 1155 823 l 1,59,-1
 1368 823 l 1,56,-1
1155 1536 m 1,60,-1
 1155 1212 l 1,61,-1
 1368 1212 l 1,62,-1
 1368 1536 l 1,63,-1
 1155 1536 l 1,60,-1
51 51 m 1,64,-1
 281 51 l 1,65,-1
 281 383 l 1,66,-1
 51 383 l 1,67,-1
 51 51 l 1,64,-1
877 51 m 1,68,-1
 1104 51 l 1,69,-1
 1104 383 l 1,70,-1
 877 383 l 1,71,-1
 877 51 l 1,68,-1
332 51 m 1,72,-1
 553 51 l 1,73,-1
 553 383 l 1,74,-1
 332 383 l 1,75,-1
 332 51 l 1,72,-1
825 383 m 1,76,-1
 604 383 l 1,77,-1
 604 51 l 1,78,-1
 825 51 l 1,79,-1
 825 383 l 1,76,-1
1155 51 m 1,80,-1
 1368 51 l 1,81,-1
 1368 383 l 1,82,-1
 1155 383 l 1,83,-1
 1155 51 l 1,80,-1
51 -332 m 1,84,-1
 281 -332 l 1,85,-1
 281 0 l 1,86,-1
 51 0 l 1,87,-1
 51 -332 l 1,84,-1
877 -332 m 1,88,-1
 1104 -332 l 1,89,-1
 1104 0 l 1,90,-1
 877 0 l 1,91,-1
 877 -332 l 1,88,-1
332 -332 m 1,92,-1
 553 -332 l 1,93,-1
 553 0 l 1,94,-1
 332 0 l 1,95,-1
 332 -332 l 1,92,-1
825 0 m 1,96,-1
 604 0 l 1,97,-1
 604 -332 l 1,98,-1
 825 -332 l 1,99,-1
 825 0 l 1,96,-1
1155 -332 m 1,100,-1
 1368 -332 l 1,101,-1
 1368 0 l 1,102,-1
 1155 0 l 1,103,-1
 1155 -332 l 1,100,-1
EndSplineSet
Validated: 1
EndChar

StartChar: zero
Encoding: 48 48 17
Width: 992
GlyphClass: 1
Flags: W
LayerCount: 2
Fore
SplineSet
1008 358 m 1,0,-1
 -16 358 l 1,1,-1
 -16 410 l 1,2,-1
 199 410 l 1,3,4
 179 420 179 420 162 436 c 0,5,6
 80 498 80 498 39 600 c 0,7,8
 23 639 23 639 12.5 683 c 128,-1,9
 2 727 2 727 -2 768 c 1,10,-1
 -16 768 l 1,11,-1
 -16 819 l 1,12,-1
 -4 819 l 1,13,14
 0 909 0 909 50 989 c 1,15,16
 95 1075 95 1075 185 1137 c 0,17,18
 205 1149 205 1149 224.5 1159 c 128,-1,19
 244 1169 244 1169 267 1178 c 1,20,-1
 -16 1178 l 1,21,-1
 -16 1229 l 1,22,-1
 1008 1229 l 1,23,-1
 1008 1178 l 1,24,-1
 463 1178 l 1,25,26
 478 1171 478 1171 485 1168 c 128,-1,27
 492 1165 492 1165 506 1161 c 0,28,29
 539 1145 539 1145 567.5 1125.5 c 128,-1,30
 596 1106 596 1106 619 1077 c 0,31,32
 666 1024 666 1024 666 954 c 0,33,34
 666 895 666 895 627 850 c 0,35,36
 602 827 602 827 578 819 c 1,37,-1
 1008 819 l 1,38,-1
 1008 768 l 1,39,-1
 203 768 l 1,40,41
 203 606 203 606 217 580 c 1,42,43
 254 428 254 428 398 428 c 0,44,45
 508 428 508 428 580 551 c 0,46,47
 596 586 596 586 608.5 621.5 c 128,-1,48
 621 657 621 657 627 696 c 1,49,-1
 674 696 l 1,50,51
 668 625 668 625 643.5 567.5 c 128,-1,52
 619 510 619 510 578 463 c 0,53,54
 547 430 547 430 508 410 c 1,55,-1
 1008 410 l 1,56,-1
 1008 358 l 1,0,-1
469 819 m 1,57,58
 418 844 418 844 402 922 c 1,59,60
 402 973 402 973 435 1006 c 1,61,62
 465 1044 465 1044 512 1055 c 1,63,-1
 529 1057 l 1,64,-1
 545 1063 l 1,65,-1
 551 1075 l 1,66,67
 543 1108 543 1108 494 1124 c 1,68,69
 455 1145 455 1145 406 1145 c 256,70,71
 357 1145 357 1145 316 1116 c 1,72,73
 297 1108 297 1108 275 1085 c 0,74,75
 258 1069 258 1069 244 1049 c 0,76,77
 203 971 203 971 203 819 c 1,78,-1
 469 819 l 1,57,58
1008 1587 m 1,79,-1
 -16 1587 l 1,80,-1
 -16 1638 l 1,81,-1
 1008 1638 l 1,82,-1
 1008 1587 l 1,79,-1
1008 -51 m 1,83,-1
 -16 -51 l 1,84,-1
 -16 0 l 1,85,-1
 1008 0 l 1,86,-1
 1008 -51 l 1,83,-1
EndSplineSet
Validated: 1
EndChar

StartChar: one
Encoding: 49 49 18
Width: 992
GlyphClass: 1
Flags: W
LayerCount: 2
Fore
SplineSet
1008 -51 m 1,0,-1
 -16 -51 l 1,1,-1
 -16 14 l 1,2,-1
 156 203 l 2,3,4
 191 244 191 244 228 281.5 c 128,-1,5
 265 319 265 319 297 358 c 1,6,-1
 -16 358 l 1,7,-1
 -16 410 l 1,8,-1
 338 410 l 1,9,10
 361 442 361 442 375.5 473 c 128,-1,11
 390 504 390 504 390 532 c 0,12,13
 390 606 390 606 339.5 651 c 128,-1,14
 289 696 289 696 203 696 c 0,15,16
 168 696 168 696 145.5 690 c 128,-1,17
 123 684 123 684 104.5 667.5 c 128,-1,18
 86 651 86 651 70 622.5 c 128,-1,19
 54 594 54 594 33 551 c 1,20,-1
 -16 551 l 1,21,22
 0 614 0 614 19.5 646 c 128,-1,23
 39 678 39 678 70 709 c 0,24,25
 121 754 121 754 170 768 c 1,26,-1
 -16 768 l 1,27,-1
 -16 831 l 1,28,-1
 156 1020 l 2,29,30
 191 1061 191 1061 229 1100 c 128,-1,31
 267 1139 267 1139 299 1178 c 1,32,-1
 -16 1178 l 1,33,-1
 -16 1229 l 1,34,-1
 340 1229 l 1,35,36
 390 1292 390 1292 390 1348 c 0,37,38
 390 1423 390 1423 339.5 1468 c 128,-1,39
 289 1513 289 1513 203 1513 c 0,40,41
 168 1513 168 1513 145.5 1507 c 128,-1,42
 123 1501 123 1501 104.5 1483.5 c 128,-1,43
 86 1466 86 1466 70 1438.5 c 128,-1,44
 54 1411 54 1411 33 1368 c 1,45,-1
 -16 1368 l 1,46,47
 0 1432 0 1432 19.5 1462.5 c 128,-1,48
 39 1493 39 1493 70 1526 c 0,49,50
 117 1569 117 1569 179 1587 c 1,51,-1
 -16 1587 l 1,52,-1
 -16 1638 l 1,53,-1
 1008 1638 l 1,54,-1
 1008 1587 l 1,55,-1
 336 1587 l 1,56,57
 410 1567 410 1567 457 1514.5 c 128,-1,58
 504 1462 504 1462 504 1395 c 0,59,60
 504 1352 504 1352 488.5 1312 c 128,-1,61
 473 1272 473 1272 443 1229 c 1,62,-1
 1008 1229 l 1,63,-1
 1008 1178 l 1,64,-1
 402 1178 l 1,65,66
 385 1161 385 1161 369 1142.5 c 128,-1,67
 353 1124 353 1124 332 1106 c 2,68,-1
 131 905 l 1,69,-1
 551 905 l 1,70,-1
 551 819 l 1,71,-1
 1008 819 l 1,72,-1
 1008 768 l 1,73,-1
 344 768 l 1,74,75
 416 745 416 745 460 694 c 128,-1,76
 504 643 504 643 504 578 c 0,77,78
 504 492 504 492 441 410 c 1,79,-1
 1008 410 l 1,80,-1
 1008 358 l 1,81,-1
 398 358 l 1,82,83
 387 342 387 342 332 291 c 2,84,-1
 131 90 l 1,85,-1
 551 90 l 1,86,-1
 551 0 l 1,87,-1
 1008 0 l 1,88,-1
 1008 -51 l 1,0,-1
EndSplineSet
Validated: 1
EndChar

StartChar: two
Encoding: 50 50 19
Width: 992
GlyphClass: 1
Flags: W
LayerCount: 2
Fore
SplineSet
1008 358 m 1,0,-1
 455 358 l 1,1,-1
 455 264 l 1,2,-1
 590 264 l 1,3,-1
 590 188 l 1,4,-1
 455 188 l 1,5,-1
 455 0 l 1,6,-1
 1008 0 l 1,7,-1
 1008 -51 l 1,8,-1
 -16 -51 l 1,9,-1
 -16 0 l 1,10,-1
 353 0 l 1,11,-1
 353 188 l 1,12,-1
 -16 188 l 1,13,-1
 -16 264 l 1,14,-1
 60 358 l 1,15,-1
 -16 358 l 1,16,-1
 -16 410 l 1,17,-1
 101 410 l 1,18,-1
 387 768 l 1,19,-1
 -16 768 l 1,20,-1
 -16 819 l 1,21,-1
 37 819 l 1,22,-1
 37 829 l 1,23,-1
 207 1018 l 2,24,25
 242 1059 242 1059 281 1098 c 128,-1,26
 320 1137 320 1137 353 1178 c 1,27,-1
 -16 1178 l 1,28,-1
 -16 1229 l 1,29,-1
 394 1229 l 1,30,31
 416 1260 416 1260 429.5 1288.5 c 128,-1,32
 443 1317 443 1317 443 1346 c 0,33,34
 443 1421 443 1421 391.5 1466 c 128,-1,35
 340 1511 340 1511 254 1511 c 0,36,37
 222 1511 222 1511 199.5 1505 c 128,-1,38
 177 1499 177 1499 158.5 1481.5 c 128,-1,39
 140 1464 140 1464 123.5 1436.5 c 128,-1,40
 107 1409 107 1409 86 1366 c 1,41,-1
 37 1366 l 1,42,43
 54 1430 54 1430 72 1460.5 c 128,-1,44
 90 1491 90 1491 121 1524 c 1,45,46
 172 1569 172 1569 238 1587 c 1,47,-1
 -16 1587 l 1,48,-1
 -16 1638 l 1,49,-1
 1008 1638 l 1,50,-1
 1008 1587 l 1,51,-1
 379 1587 l 1,52,53
 457 1569 457 1569 506 1515.5 c 128,-1,54
 555 1462 555 1462 555 1393 c 0,55,56
 555 1311 555 1311 498 1229 c 1,57,-1
 1008 1229 l 1,58,-1
 1008 1178 l 1,59,-1
 457 1178 l 1,60,61
 441 1159 441 1159 423.5 1141.5 c 128,-1,62
 406 1124 406 1124 385 1104 c 2,63,-1
 183 903 l 1,64,-1
 602 903 l 1,65,-1
 602 819 l 1,66,-1
 1008 819 l 1,67,-1
 1008 768 l 1,68,-1
 455 768 l 1,69,-1
 455 410 l 1,70,-1
 1008 410 l 1,71,-1
 1008 358 l 1,0,-1
62 264 m 1,72,-1
 353 264 l 1,73,-1
 353 358 l 1,74,-1
 140 358 l 1,75,-1
 62 264 l 1,72,-1
181 410 m 1,76,-1
 353 410 l 1,77,-1
 353 618 l 1,78,-1
 181 410 l 1,76,-1
EndSplineSet
Validated: 1
EndChar

StartChar: three
Encoding: 51 51 20
Width: 992
GlyphClass: 1
Flags: W
LayerCount: 2
Fore
SplineSet
1008 358 m 1,0,-1
 455 358 l 1,1,-1
 455 264 l 1,2,-1
 590 264 l 1,3,-1
 590 188 l 1,4,-1
 455 188 l 1,5,-1
 455 0 l 1,6,-1
 1008 0 l 1,7,-1
 1008 -51 l 1,8,-1
 -16 -51 l 1,9,-1
 -16 0 l 1,10,-1
 353 0 l 1,11,-1
 353 188 l 1,12,-1
 -16 188 l 1,13,-1
 -16 264 l 1,14,-1
 60 358 l 1,15,-1
 -16 358 l 1,16,-1
 -16 410 l 1,17,-1
 101 410 l 1,18,-1
 390 768 l 1,19,-1
 -16 768 l 1,20,-1
 -16 819 l 1,21,-1
 168 819 l 1,22,23
 97 831 97 831 97 872 c 0,24,25
 97 893 97 893 109 898 c 128,-1,26
 121 903 121 903 150 903 c 2,27,-1
 160 903 l 2,28,29
 174 903 174 903 188.5 900 c 128,-1,30
 203 897 203 897 230 883 c 0,31,32
 254 872 254 872 272.5 866 c 128,-1,33
 291 860 291 860 308 860 c 0,34,35
 328 860 328 860 353 870 c 0,36,37
 385 881 385 881 412 891 c 128,-1,38
 439 901 439 901 457.5 916.5 c 128,-1,39
 476 932 476 932 488 954.5 c 128,-1,40
 500 977 500 977 506 1014 c 0,41,42
 508 1022 508 1022 508 1038 c 0,43,44
 508 1083 508 1083 483.5 1119 c 128,-1,45
 459 1155 459 1155 418 1178 c 1,46,-1
 -16 1178 l 1,47,-1
 -16 1229 l 1,48,-1
 238 1229 l 1,49,-1
 238 1241 l 1,50,51
 275 1247 275 1247 299.5 1252 c 128,-1,52
 324 1257 324 1257 342.5 1263.5 c 128,-1,53
 361 1270 361 1270 376.5 1279 c 128,-1,54
 392 1288 392 1288 408 1300 c 0,55,56
 435 1323 435 1323 461.5 1362 c 128,-1,57
 488 1401 488 1401 488 1436 c 0,58,59
 488 1493 488 1493 445 1517.5 c 128,-1,60
 402 1542 402 1542 334 1542 c 0,61,62
 271 1542 271 1542 230 1511.5 c 128,-1,63
 189 1481 189 1481 144 1415 c 1,64,-1
 101 1415 l 1,65,66
 123 1470 123 1470 138.5 1496 c 128,-1,67
 154 1522 154 1522 187 1546 c 0,68,69
 220 1573 220 1573 265 1587 c 1,70,-1
 -16 1587 l 1,71,-1
 -16 1638 l 1,72,-1
 1008 1638 l 1,73,-1
 1008 1587 l 1,74,-1
 453 1587 l 1,75,76
 510 1569 510 1569 546 1531 c 128,-1,77
 582 1493 582 1493 582 1442 c 0,78,79
 582 1393 582 1393 555.5 1343.5 c 128,-1,80
 529 1294 529 1294 459 1253 c 1,81,82
 482 1243 482 1243 495 1238 c 128,-1,83
 508 1233 508 1233 516 1229 c 1,84,-1
 1008 1229 l 1,85,-1
 1008 1178 l 1,86,-1
 572 1178 l 1,87,88
 588 1157 588 1157 598.5 1134.5 c 128,-1,89
 609 1112 609 1112 609 1077 c 0,90,91
 609 946 609 946 504 879 c 0,92,93
 471 854 471 854 428 839.5 c 128,-1,94
 385 825 385 825 338 819 c 1,95,-1
 1008 819 l 1,96,-1
 1008 768 l 1,97,-1
 455 768 l 1,98,-1
 455 410 l 1,99,-1
 1008 410 l 1,100,-1
 1008 358 l 1,0,-1
62 264 m 1,101,-1
 353 264 l 1,102,-1
 353 358 l 1,103,-1
 140 358 l 1,104,-1
 62 264 l 1,101,-1
181 410 m 1,105,-1
 353 410 l 1,106,-1
 353 618 l 1,107,-1
 181 410 l 1,105,-1
EndSplineSet
Validated: 1
EndChar

StartChar: four
Encoding: 52 52 21
Width: 992
GlyphClass: 1
Flags: W
LayerCount: 2
Fore
SplineSet
1008 358 m 1,0,-1
 455 358 l 1,1,-1
 455 264 l 1,2,-1
 590 264 l 1,3,-1
 590 188 l 1,4,-1
 455 188 l 1,5,-1
 455 0 l 1,6,-1
 1008 0 l 1,7,-1
 1008 -51 l 1,8,-1
 -16 -51 l 1,9,-1
 -16 0 l 1,10,-1
 353 0 l 1,11,-1
 353 188 l 1,12,-1
 -16 188 l 1,13,-1
 -16 264 l 1,14,-1
 60 358 l 1,15,-1
 -16 358 l 1,16,-1
 -16 410 l 1,17,-1
 101 410 l 1,18,-1
 390 768 l 1,19,-1
 -16 768 l 1,20,-1
 -16 819 l 1,21,-1
 353 819 l 1,22,-1
 353 1010 l 1,23,-1
 -16 1010 l 1,24,-1
 -16 1085 l 1,25,-1
 58 1178 l 1,26,-1
 -16 1178 l 1,27,-1
 -16 1229 l 1,28,-1
 99 1229 l 1,29,-1
 387 1587 l 1,30,-1
 -16 1587 l 1,31,-1
 -16 1638 l 1,32,-1
 1008 1638 l 1,33,-1
 1008 1587 l 1,34,-1
 455 1587 l 1,35,-1
 455 1229 l 1,36,-1
 1008 1229 l 1,37,-1
 1008 1178 l 1,38,-1
 455 1178 l 1,39,-1
 455 1085 l 1,40,-1
 590 1085 l 1,41,-1
 590 1010 l 1,42,-1
 455 1010 l 1,43,-1
 455 819 l 1,44,-1
 1008 819 l 1,45,-1
 1008 768 l 1,46,-1
 455 768 l 1,47,-1
 455 410 l 1,48,-1
 1008 410 l 1,49,-1
 1008 358 l 1,0,-1
62 264 m 1,50,-1
 353 264 l 1,51,-1
 353 358 l 1,52,-1
 140 358 l 1,53,-1
 62 264 l 1,50,-1
62 1085 m 1,54,-1
 353 1085 l 1,55,-1
 353 1178 l 1,56,-1
 138 1178 l 1,57,-1
 62 1085 l 1,54,-1
179 1229 m 1,58,-1
 353 1229 l 1,59,-1
 353 1440 l 1,60,-1
 179 1229 l 1,58,-1
181 410 m 1,61,-1
 353 410 l 1,62,-1
 353 618 l 1,63,-1
 181 410 l 1,61,-1
EndSplineSet
Validated: 1
EndChar

StartChar: five
Encoding: 53 53 22
Width: 992
GlyphClass: 1
Flags: W
LayerCount: 2
Fore
SplineSet
1008 -51 m 1,0,-1
 -16 -51 l 1,1,-1
 -16 0 l 1,2,-1
 9 0 l 1,3,-1
 9 14 l 1,4,-1
 181 203 l 2,5,6
 215 244 215 244 252 281.5 c 128,-1,7
 289 319 289 319 324 358 c 1,8,-1
 -16 358 l 1,9,-1
 -16 410 l 1,10,-1
 363 410 l 1,11,12
 387 442 387 442 401.5 472 c 128,-1,13
 416 502 416 502 416 530 c 0,14,15
 416 606 416 606 365 651 c 128,-1,16
 314 696 314 696 228 696 c 0,17,18
 193 696 193 696 170.5 690 c 128,-1,19
 148 684 148 684 129.5 666.5 c 128,-1,20
 111 649 111 649 94.5 621.5 c 128,-1,21
 78 594 78 594 58 551 c 1,22,-1
 9 551 l 1,23,24
 25 614 25 614 44.5 645 c 128,-1,25
 64 676 64 676 95 709 c 1,26,27
 146 754 146 754 195 768 c 1,28,-1
 -16 768 l 1,29,-1
 -16 819 l 1,30,-1
 99 819 l 1,31,32
 37 831 37 831 37 870 c 0,33,34
 37 891 37 891 50.5 896 c 128,-1,35
 64 901 64 901 88 901 c 2,36,-1
 99 901 l 2,37,38
 113 901 113 901 127.5 898 c 128,-1,39
 142 895 142 895 168 881 c 0,40,41
 193 868 193 868 212.5 864 c 128,-1,42
 232 860 232 860 248 860 c 0,43,44
 269 860 269 860 291 866 c 0,45,46
 324 877 324 877 351.5 887 c 128,-1,47
 379 897 379 897 399.5 912.5 c 128,-1,48
 420 928 420 928 432.5 951.5 c 128,-1,49
 445 975 445 975 449 1012 c 1,50,-1
 449 1026 l 2,51,52
 449 1075 449 1075 421.5 1115 c 128,-1,53
 394 1155 394 1155 346 1178 c 1,54,-1
 -16 1178 l 1,55,-1
 -16 1229 l 1,56,-1
 181 1229 l 1,57,-1
 181 1237 l 1,58,59
 217 1243 217 1243 242 1248 c 128,-1,60
 267 1253 267 1253 285 1259.5 c 128,-1,61
 303 1266 303 1266 317.5 1274 c 128,-1,62
 332 1282 332 1282 349 1296 c 0,63,64
 373 1321 373 1321 400.5 1359 c 128,-1,65
 428 1397 428 1397 428 1432 c 0,66,67
 428 1489 428 1489 385 1513.5 c 128,-1,68
 342 1538 342 1538 277 1538 c 0,69,70
 211 1538 211 1538 169 1507.5 c 128,-1,71
 127 1477 127 1477 84 1411 c 1,72,-1
 39 1411 l 1,73,74
 62 1466 62 1466 79.5 1492 c 128,-1,75
 97 1518 97 1518 127 1540 c 0,76,77
 164 1571 164 1571 211 1587 c 1,78,-1
 -16 1587 l 1,79,-1
 -16 1638 l 1,80,-1
 1008 1638 l 1,81,-1
 1008 1587 l 1,82,-1
 390 1587 l 1,83,84
 449 1569 449 1569 486 1531 c 128,-1,85
 523 1493 523 1493 523 1440 c 0,86,87
 523 1391 523 1391 495 1341.5 c 128,-1,88
 467 1292 467 1292 402 1251 c 1,89,90
 420 1243 420 1243 432.5 1238 c 128,-1,91
 445 1233 445 1233 453 1229 c 1,92,-1
 1008 1229 l 1,93,-1
 1008 1178 l 1,94,-1
 512 1178 l 1,95,96
 531 1155 531 1155 541 1133.5 c 128,-1,97
 551 1112 551 1112 551 1075 c 0,98,99
 551 944 551 944 443 877 c 1,100,101
 385 831 385 831 293 819 c 1,102,-1
 1008 819 l 1,103,-1
 1008 768 l 1,104,-1
 369 768 l 1,105,106
 441 745 441 745 485 694 c 128,-1,107
 529 643 529 643 529 578 c 0,108,109
 529 492 529 492 465 410 c 1,110,-1
 1008 410 l 1,111,-1
 1008 358 l 1,112,-1
 424 358 l 1,113,114
 408 342 408 342 391.5 324.5 c 128,-1,115
 375 307 375 307 357 289 c 2,116,-1
 156 88 l 1,117,-1
 576 88 l 1,118,-1
 576 0 l 1,119,-1
 1008 0 l 1,120,-1
 1008 -51 l 1,0,-1
EndSplineSet
Validated: 1
EndChar

StartChar: six
Encoding: 54 54 23
Width: 992
GlyphClass: 1
Flags: W
LayerCount: 2
Fore
SplineSet
1008 819 m 1,0,-1
 1008 768 l 1,1,-1
 422 768 l 1,2,3
 484 750 484 750 513.5 701.5 c 128,-1,4
 543 653 543 653 543 598 c 0,5,6
 543 569 543 569 540 545.5 c 128,-1,7
 537 522 537 522 523.5 499.5 c 128,-1,8
 510 477 510 477 483.5 455.5 c 128,-1,9
 457 434 457 434 412 410 c 1,10,-1
 1008 410 l 1,11,-1
 1008 358 l 1,12,-1
 484 358 l 1,13,14
 539 317 539 317 577 270 c 128,-1,15
 615 223 615 223 615 168 c 0,16,17
 615 90 615 90 574 53 c 128,-1,18
 533 16 533 16 465 0 c 1,19,-1
 1008 0 l 1,20,-1
 1008 -51 l 1,21,-1
 -16 -51 l 1,22,-1
 -16 0 l 1,23,-1
 162 0 l 1,24,25
 86 20 86 20 35 55 c 128,-1,26
 -16 90 -16 90 -16 168 c 0,27,28
 -16 195 -16 195 -2.5 223.5 c 128,-1,29
 11 252 11 252 32.5 277.5 c 128,-1,30
 54 303 54 303 81.5 324.5 c 128,-1,31
 109 346 109 346 138 358 c 1,32,-1
 -16 358 l 1,33,-1
 -16 410 l 1,34,-1
 193 410 l 1,35,36
 150 440 150 440 124.5 463.5 c 128,-1,37
 99 487 99 487 86.5 508.5 c 128,-1,38
 74 530 74 530 70 550.5 c 128,-1,39
 66 571 66 571 66 598 c 0,40,41
 66 657 66 657 98.5 702.5 c 128,-1,42
 131 748 131 748 201 768 c 1,43,-1
 -16 768 l 1,44,-1
 -16 819 l 1,45,-1
 189 819 l 1,46,47
 129 836 129 836 92.5 867.5 c 128,-1,48
 56 899 56 899 35.5 942 c 128,-1,49
 15 985 15 985 8.5 1036 c 128,-1,50
 2 1087 2 1087 2 1143 c 2,51,-1
 2 1178 l 1,52,-1
 -16 1178 l 1,53,-1
 -16 1229 l 1,54,-1
 9 1229 l 1,55,56
 23 1292 23 1292 51.5 1352.5 c 128,-1,57
 80 1413 80 1413 124 1460 c 128,-1,58
 168 1507 168 1507 226.5 1541 c 128,-1,59
 285 1575 285 1575 359 1587 c 1,60,-1
 -16 1587 l 1,61,-1
 -16 1638 l 1,62,-1
 1008 1638 l 1,63,-1
 1008 1587 l 1,64,-1
 486 1587 l 1,65,-1
 486 1516 l 1,66,67
 322 1516 322 1516 225.5 1438 c 128,-1,68
 129 1360 129 1360 101 1229 c 1,69,70
 119 1243 119 1243 135.5 1256.5 c 128,-1,71
 152 1270 152 1270 173.5 1280 c 128,-1,72
 195 1290 195 1290 225.5 1296.5 c 128,-1,73
 256 1303 256 1303 306 1303 c 0,74,75
 359 1303 359 1303 390.5 1297.5 c 128,-1,76
 422 1292 422 1292 443.5 1283 c 128,-1,77
 465 1274 465 1274 479.5 1260.5 c 128,-1,78
 494 1247 494 1247 510 1229 c 1,79,-1
 1008 1229 l 1,80,-1
 1008 1178 l 1,81,-1
 545 1178 l 1,82,83
 559 1155 559 1155 569.5 1125.5 c 128,-1,84
 580 1096 580 1096 580 1065 c 0,85,86
 580 963 580 963 538 901.5 c 128,-1,87
 496 840 496 840 394 819 c 1,88,-1
 1008 819 l 1,0,-1
127 1178 m 1,89,90
 117 1174 117 1174 111 1168.5 c 128,-1,91
 105 1163 105 1163 103 1149 c 0,92,93
 103 1100 103 1100 110 1053 c 128,-1,94
 117 1006 117 1006 139.5 968 c 128,-1,95
 162 930 162 930 201 907.5 c 128,-1,96
 240 885 240 885 306 885 c 0,97,98
 394 885 394 885 436 937 c 128,-1,99
 478 989 478 989 478 1061 c 0,100,101
 478 1100 478 1100 463.5 1130.5 c 128,-1,102
 449 1161 449 1161 433 1178 c 1,103,-1
 127 1178 l 1,89,90
285 358 m 1,104,105
 220 317 220 317 171.5 267 c 128,-1,106
 123 217 123 217 123 160 c 0,107,108
 123 129 123 129 139.5 109.5 c 128,-1,109
 156 90 156 90 183.5 78 c 128,-1,110
 211 66 211 66 246 61.5 c 128,-1,111
 281 57 281 57 316 57 c 0,112,113
 353 57 353 57 385.5 63.5 c 128,-1,114
 418 70 418 70 444.5 83 c 128,-1,115
 471 96 471 96 486.5 115.5 c 128,-1,116
 502 135 502 135 502 160 c 0,117,118
 502 207 502 207 454 259 c 128,-1,119
 406 311 406 311 326 358 c 1,120,-1
 285 358 l 1,104,105
316 455 m 1,121,122
 346 473 346 473 370 487.5 c 128,-1,123
 394 502 394 502 409 516 c 128,-1,124
 424 530 424 530 432.5 549.5 c 128,-1,125
 441 569 441 569 441 598 c 0,126,127
 441 659 441 659 402 685 c 128,-1,128
 363 711 363 711 314 711 c 0,129,130
 248 711 248 711 209 678 c 128,-1,131
 170 645 170 645 170 598 c 0,132,133
 170 573 170 573 174.5 557 c 128,-1,134
 179 541 179 541 193 525.5 c 128,-1,135
 207 510 207 510 232.5 493.5 c 128,-1,136
 258 477 258 477 299 455 c 1,137,-1
 316 455 l 1,121,122
EndSplineSet
Validated: 1
EndChar

StartChar: seven
Encoding: 55 55 24
Width: 992
GlyphClass: 1
Flags: W
LayerCount: 2
Fore
SplineSet
1008 358 m 1,0,-1
 365 358 l 1,1,-1
 365 117 l 1,2,-1
 275 117 l 1,3,-1
 275 358 l 1,4,-1
 -16 358 l 1,5,-1
 -16 410 l 1,6,-1
 238 410 l 1,7,8
 168 442 168 442 99 518 c 0,9,10
 13 610 13 610 7 768 c 1,11,-1
 -16 768 l 1,12,-1
 -16 819 l 1,13,-1
 7 819 l 1,14,15
 15 940 15 940 84 1034 c 0,16,17
 125 1087 125 1087 175.5 1123 c 128,-1,18
 226 1159 226 1159 275 1174 c 1,19,-1
 275 1178 l 1,20,-1
 -16 1178 l 1,21,-1
 -16 1229 l 1,22,-1
 275 1229 l 1,23,-1
 275 1452 l 1,24,-1
 369 1452 l 1,25,-1
 369 1229 l 1,26,-1
 1008 1229 l 1,27,-1
 1008 1178 l 1,28,-1
 424 1178 l 1,29,30
 441 1174 441 1174 459.5 1167.5 c 128,-1,31
 478 1161 478 1161 496 1155 c 0,32,33
 564 1135 564 1135 611 1073 c 0,34,35
 652 1020 652 1020 652 944 c 0,36,37
 652 870 652 870 584 831 c 1,38,-1
 535 819 l 1,39,-1
 1008 819 l 1,40,-1
 1008 768 l 1,41,-1
 369 768 l 1,42,-1
 369 449 l 1,43,44
 400 453 400 453 421.5 457 c 128,-1,45
 443 461 443 461 464.5 468 c 128,-1,46
 486 475 486 475 498 487 c 0,47,48
 523 508 523 508 544.5 532.5 c 128,-1,49
 566 557 566 557 580 588 c 0,50,51
 619 657 619 657 619 705 c 1,52,-1
 658 705 l 1,53,54
 639 547 639 547 555 469 c 0,55,56
 508 426 508 426 461 410 c 1,57,-1
 1008 410 l 1,58,-1
 1008 358 l 1,0,-1
1008 1587 m 1,59,-1
 -16 1587 l 1,60,-1
 -16 1638 l 1,61,-1
 1008 1638 l 1,62,-1
 1008 1587 l 1,59,-1
1008 -51 m 1,63,-1
 -16 -51 l 1,64,-1
 -16 0 l 1,65,-1
 1008 0 l 1,66,-1
 1008 -51 l 1,63,-1
498 819 m 1,67,68
 482 823 482 823 472.5 830.5 c 128,-1,69
 463 838 463 838 453 856 c 0,70,71
 443 870 443 870 439 883.5 c 128,-1,72
 435 897 435 897 430 920 c 1,73,-1
 430 926 l 2,74,75
 430 948 430 948 437.5 968.5 c 128,-1,76
 445 989 445 989 455 1006 c 0,77,78
 463 1022 463 1022 477.5 1036.5 c 128,-1,79
 492 1051 492 1051 512 1055 c 1,80,81
 543 1055 543 1055 543 1071 c 0,82,83
 543 1081 543 1081 521 1100 c 1,84,-1
 463 1124 l 2,85,86
 455 1126 455 1126 438.5 1129.5 c 128,-1,87
 422 1133 422 1133 406 1133 c 0,88,89
 383 1133 383 1133 369 1128 c 1,90,-1
 369 819 l 1,91,-1
 498 819 l 1,67,68
162 684 m 1,92,93
 172 625 172 625 183.5 587 c 128,-1,94
 195 549 195 549 208.5 525.5 c 128,-1,95
 222 502 222 502 238 489.5 c 128,-1,96
 254 477 254 477 275 469 c 1,97,-1
 275 768 l 1,98,-1
 162 768 l 1,99,-1
 162 684 l 1,92,93
275 1104 m 1,100,101
 273 1102 273 1102 255.5 1085.5 c 128,-1,102
 238 1069 238 1069 210.5 1016 c 128,-1,103
 183 963 183 963 162 872 c 1,104,-1
 162 819 l 1,105,-1
 275 819 l 1,106,-1
 275 1104 l 1,100,101
EndSplineSet
Validated: 1
EndChar

StartChar: eight
Encoding: 56 56 25
Width: 480
GlyphClass: 1
Flags: W
LayerCount: 2
Fore
SplineSet
496 1178 m 1,0,-1
 478 1178 l 1,1,-1
 355 819 l 1,2,-1
 496 819 l 1,3,-1
 496 768 l 1,4,-1
 336 768 l 1,5,-1
 211 410 l 1,6,-1
 496 410 l 1,7,-1
 496 358 l 1,8,-1
 -16 358 l 1,9,-1
 -16 410 l 1,10,-1
 158 410 l 1,11,-1
 283 768 l 1,12,-1
 265 768 l 1,13,14
 228 739 228 739 200 727 c 128,-1,15
 172 715 172 715 121 711 c 0,16,17
 109 711 109 711 90.5 715 c 128,-1,18
 72 719 72 719 53.5 726 c 128,-1,19
 35 733 35 733 19.5 744.5 c 128,-1,20
 4 756 4 756 0 768 c 1,21,-1
 -16 768 l 1,22,-1
 -16 836 l 2,23,24
 -16 883 -16 883 14.5 918.5 c 128,-1,25
 45 954 45 954 95 954 c 0,26,27
 125 954 125 954 166 918 c 1,28,29
 191 881 191 881 191 836 c 1,30,-1
 183 819 l 1,31,-1
 279 819 l 1,32,33
 287 823 287 823 294 828.5 c 128,-1,34
 301 834 301 834 310 842 c 1,35,-1
 424 1178 l 1,36,-1
 406 1178 l 1,37,38
 369 1149 369 1149 341.5 1136.5 c 128,-1,39
 314 1124 314 1124 263 1120 c 0,40,41
 250 1120 250 1120 231.5 1124 c 128,-1,42
 213 1128 213 1128 195 1135.5 c 128,-1,43
 177 1143 177 1143 161.5 1154 c 128,-1,44
 146 1165 146 1165 142 1178 c 1,45,-1
 -16 1178 l 1,46,-1
 -16 1229 l 1,47,-1
 125 1229 l 1,48,-1
 125 1245 l 2,49,50
 125 1292 125 1292 156 1328 c 128,-1,51
 187 1364 187 1364 236 1364 c 0,52,53
 267 1364 267 1364 308 1327 c 1,54,55
 332 1290 332 1290 332 1245 c 1,56,-1
 324 1229 l 1,57,-1
 496 1229 l 1,58,-1
 496 1178 l 1,0,-1
496 -51 m 1,59,-1
 -16 -51 l 1,60,-1
 -16 0 l 1,61,-1
 496 0 l 1,62,-1
 496 -51 l 1,59,-1
496 1587 m 1,63,-1
 -16 1587 l 1,64,-1
 -16 1638 l 1,65,-1
 496 1638 l 1,66,-1
 496 1587 l 1,63,-1
EndSplineSet
Validated: 1
EndChar

StartChar: nine
Encoding: 57 57 26
Width: 480
GlyphClass: 1
Flags: W
LayerCount: 2
Fore
SplineSet
140 358 m 1,0,-1
 -16 358 l 1,1,-1
 -16 410 l 1,2,-1
 154 410 l 1,3,-1
 254 768 l 1,4,-1
 -16 768 l 1,5,-1
 -16 819 l 1,6,-1
 269 819 l 1,7,-1
 316 989 l 1,8,9
 277 954 277 954 241 934.5 c 128,-1,10
 205 915 205 915 166 915 c 0,11,12
 136 915 136 915 103 928.5 c 128,-1,13
 70 942 70 942 31 973 c 0,14,15
 7 993 7 993 -4.5 1022 c 128,-1,16
 -16 1051 -16 1051 -16 1081 c 0,17,18
 -16 1137 -16 1137 15 1178 c 1,19,-1
 -16 1178 l 1,20,-1
 -16 1229 l 1,21,-1
 496 1229 l 1,22,-1
 496 1178 l 1,23,-1
 199 1178 l 1,24,25
 230 1141 230 1141 230 1083 c 1,26,27
 226 1067 226 1067 217.5 1052.5 c 128,-1,28
 209 1038 209 1038 209 1028 c 0,29,30
 209 1016 209 1016 226 1010 c 0,31,32
 232 1008 232 1008 246 1008 c 0,33,34
 273 1008 273 1008 298.5 1024 c 128,-1,35
 324 1040 324 1040 343.5 1060.5 c 128,-1,36
 363 1081 363 1081 386 1114 c 1,37,-1
 420 1114 l 1,38,39
 400 1038 400 1038 379.5 968.5 c 128,-1,40
 359 899 359 899 336 819 c 1,41,-1
 496 819 l 1,42,-1
 496 768 l 1,43,-1
 322 768 l 1,44,45
 297 676 297 676 269.5 584 c 128,-1,46
 242 492 242 492 220 410 c 1,47,-1
 496 410 l 1,48,-1
 496 358 l 1,49,-1
 205 358 l 1,50,51
 201 344 201 344 198 330.5 c 128,-1,52
 195 317 195 317 191 307 c 1,53,-1
 125 307 l 1,54,-1
 140 358 l 1,0,-1
496 1587 m 1,55,-1
 -16 1587 l 1,56,-1
 -16 1638 l 1,57,-1
 496 1638 l 1,58,-1
 496 1587 l 1,55,-1
496 -51 m 1,59,-1
 -16 -51 l 1,60,-1
 -16 0 l 1,61,-1
 496 0 l 1,62,-1
 496 -51 l 1,59,-1
EndSplineSet
Validated: 1
EndChar

StartChar: colon
Encoding: 58 58 27
Width: 480
GlyphClass: 1
Flags: W
LayerCount: 2
Fore
SplineSet
496 358 m 1,0,-1
 154 358 l 1,1,2
 152 350 152 350 150 342 c 128,-1,3
 148 334 148 334 148 326 c 0,4,5
 148 319 148 319 154 293.5 c 128,-1,6
 160 268 160 268 171.5 239.5 c 128,-1,7
 183 211 183 211 199 184.5 c 128,-1,8
 215 158 215 158 238 150 c 1,9,-1
 213 102 l 1,10,11
 191 115 191 115 161 139.5 c 128,-1,12
 131 164 131 164 100.5 197.5 c 128,-1,13
 70 231 70 231 40.5 272 c 128,-1,14
 11 313 11 313 -10 358 c 1,15,-1
 -16 358 l 1,16,-1
 -16 410 l 2,17,18
 -16 475 -16 475 29 514 c 128,-1,19
 74 553 74 553 140 553 c 0,20,21
 170 553 170 553 197 549 c 128,-1,22
 224 545 224 545 260 526 c 1,23,-1
 82 768 l 1,24,-1
 -16 768 l 1,25,-1
 -16 819 l 1,26,-1
 43 819 l 1,27,-1
 11 864 l 1,28,29
 109 958 109 958 149 1025 c 128,-1,30
 189 1092 189 1092 189 1149 c 0,31,32
 189 1155 189 1155 185 1162 c 128,-1,33
 181 1169 181 1169 181 1178 c 1,34,-1
 -16 1178 l 1,35,-1
 -16 1229 l 1,36,-1
 158 1229 l 1,37,38
 146 1266 146 1266 121.5 1306 c 128,-1,39
 97 1346 97 1346 64 1393 c 1,40,-1
 146 1393 l 1,41,-1
 279 1229 l 1,42,-1
 496 1229 l 1,43,-1
 496 1178 l 1,44,-1
 322 1178 l 1,45,-1
 420 1057 l 1,46,47
 385 1020 385 1020 350.5 967.5 c 128,-1,48
 316 915 316 915 258 819 c 1,49,-1
 496 819 l 1,50,-1
 496 768 l 1,51,-1
 242 768 l 1,52,53
 242 748 242 748 257.5 701.5 c 128,-1,54
 273 655 273 655 297.5 603 c 128,-1,55
 322 551 322 551 352.5 502 c 128,-1,56
 383 453 383 453 414 426 c 1,57,-1
 396 410 l 1,58,-1
 496 410 l 1,59,-1
 496 358 l 1,0,-1
496 -51 m 1,60,-1
 -16 -51 l 1,61,-1
 -16 0 l 1,62,-1
 496 0 l 1,63,-1
 496 -51 l 1,60,-1
496 1587 m 1,64,-1
 -16 1587 l 1,65,-1
 -16 1638 l 1,66,-1
 496 1638 l 1,67,-1
 496 1587 l 1,64,-1
353 410 m 1,68,69
 336 420 336 420 310.5 438.5 c 128,-1,70
 285 457 285 457 244 457 c 0,71,72
 222 457 222 457 205.5 441.5 c 128,-1,73
 189 426 189 426 177 410 c 1,74,-1
 353 410 l 1,68,69
EndSplineSet
Validated: 1
EndChar

StartChar: semicolon
Encoding: 59 59 28
Width: 992
GlyphClass: 1
Flags: W
LayerCount: 2
Fore
SplineSet
1008 768 m 1,0,-1
 -16 768 l 1,1,-1
 -16 983 l 1,2,-1
 701 983 l 1,3,-1
 701 819 l 1,4,-1
 1008 819 l 1,5,-1
 1008 768 l 1,0,-1
1008 1587 m 1,6,-1
 -16 1587 l 1,7,-1
 -16 1638 l 1,8,-1
 1008 1638 l 1,9,-1
 1008 1587 l 1,6,-1
1008 1178 m 1,10,-1
 -16 1178 l 1,11,-1
 -16 1229 l 1,12,-1
 1008 1229 l 1,13,-1
 1008 1178 l 1,10,-1
1008 358 m 1,14,-1
 -16 358 l 1,15,-1
 -16 410 l 1,16,-1
 1008 410 l 1,17,-1
 1008 358 l 1,14,-1
1008 -51 m 1,18,-1
 -16 -51 l 1,19,-1
 -16 0 l 1,20,-1
 1008 0 l 1,21,-1
 1008 -51 l 1,18,-1
EndSplineSet
Validated: 1
EndChar

StartChar: less
Encoding: 60 60 29
Width: 992
GlyphClass: 1
Flags: W
LayerCount: 2
Fore
SplineSet
1008 1178 m 1,0,-1
 701 1178 l 1,1,-1
 701 1014 l 1,2,-1
 -16 1014 l 1,3,-1
 -16 1229 l 1,4,-1
 1008 1229 l 1,5,-1
 1008 1178 l 1,0,-1
1008 -51 m 1,6,-1
 -16 -51 l 1,7,-1
 -16 0 l 1,8,-1
 1008 0 l 1,9,-1
 1008 -51 l 1,6,-1
1008 768 m 1,10,-1
 -16 768 l 1,11,-1
 -16 819 l 1,12,-1
 1008 819 l 1,13,-1
 1008 768 l 1,10,-1
1008 358 m 1,14,-1
 -16 358 l 1,15,-1
 -16 410 l 1,16,-1
 1008 410 l 1,17,-1
 1008 358 l 1,14,-1
1008 1587 m 1,18,-1
 -16 1587 l 1,19,-1
 -16 1638 l 1,20,-1
 1008 1638 l 1,21,-1
 1008 1587 l 1,18,-1
EndSplineSet
Validated: 1
EndChar

StartChar: equal
Encoding: 61 61 30
Width: 480
GlyphClass: 1
Flags: W
LayerCount: 2
Fore
SplineSet
496 410 m 1,0,-1
 496 358 l 1,1,-1
 -16 358 l 1,2,-1
 -16 410 l 1,3,-1
 496 410 l 1,0,-1
496 1638 m 1,4,-1
 496 1587 l 1,5,-1
 -16 1587 l 1,6,-1
 -16 1638 l 1,7,-1
 496 1638 l 1,4,-1
496 1229 m 1,8,-1
 496 1178 l 1,9,-1
 -16 1178 l 1,10,-1
 -16 1229 l 1,11,-1
 496 1229 l 1,8,-1
496 819 m 1,12,-1
 496 768 l 1,13,-1
 -16 768 l 1,14,-1
 -16 819 l 1,15,-1
 496 819 l 1,12,-1
496 0 m 1,16,-1
 496 -51 l 1,17,-1
 -16 -51 l 1,18,-1
 -16 0 l 1,19,-1
 496 0 l 1,16,-1
EndSplineSet
Validated: 1
EndChar

StartChar: greater
Encoding: 62 62 31
Width: 20
GlyphClass: 1
Flags: W
LayerCount: 2
Fore
SplineSet
572 1958 m 1,0,1
 572 2013 572 2013 553.5 2062 c 128,-1,2
 535 2111 535 2111 503 2146 c 128,-1,3
 471 2181 471 2181 426 2201.5 c 128,-1,4
 381 2222 381 2222 328 2222 c 0,5,6
 279 2222 279 2222 236 2200.5 c 128,-1,7
 193 2179 193 2179 159 2142 c 128,-1,8
 125 2105 125 2105 105.5 2057 c 128,-1,9
 86 2009 86 2009 86 1958 c 1,10,-1
 -16 1958 l 1,11,12
 -16 2030 -16 2030 9.5 2096.5 c 128,-1,13
 35 2163 35 2163 81 2213 c 128,-1,14
 127 2263 127 2263 190.5 2293.5 c 128,-1,15
 254 2324 254 2324 328 2324 c 256,16,17
 402 2324 402 2324 465.5 2293.5 c 128,-1,18
 529 2263 529 2263 575 2213 c 128,-1,19
 621 2163 621 2163 647.5 2096.5 c 128,-1,20
 674 2030 674 2030 674 1958 c 1,21,-1
 572 1958 l 1,0,1
430 2005 m 2,22,23
 430 1956 430 1956 399.5 1931.5 c 128,-1,24
 369 1907 369 1907 328 1907 c 0,25,26
 226 1907 226 1907 226 2017 c 0,27,28
 226 2064 226 2064 255.5 2087.5 c 128,-1,29
 285 2111 285 2111 328 2111 c 0,30,31
 369 2111 369 2111 399.5 2083.5 c 128,-1,32
 430 2056 430 2056 430 2009 c 2,33,-1
 430 2005 l 2,22,23
36 1587 m 1,34,-1
 -16 1587 l 1,35,-1
 -16 1638 l 1,36,-1
 36 1638 l 1,37,-1
 36 1587 l 1,34,-1
36 -51 m 1,38,-1
 -16 -51 l 1,39,-1
 -16 0 l 1,40,-1
 36 0 l 1,41,-1
 36 -51 l 1,38,-1
36 358 m 1,42,-1
 -16 358 l 1,43,-1
 -16 410 l 1,44,-1
 36 410 l 1,45,-1
 36 358 l 1,42,-1
36 768 m 1,46,-1
 -16 768 l 1,47,-1
 -16 819 l 1,48,-1
 36 819 l 1,49,-1
 36 768 l 1,46,-1
36 1178 m 1,50,-1
 -16 1178 l 1,51,-1
 -16 1229 l 1,52,-1
 36 1229 l 1,53,-1
 36 1178 l 1,50,-1
EndSplineSet
Validated: 1
EndChar

StartChar: question
Encoding: 63 63 32
Width: 20
GlyphClass: 1
Flags: W
LayerCount: 2
Fore
SplineSet
572 2359 m 1,0,1
 572 2415 572 2415 553.5 2464 c 128,-1,2
 535 2513 535 2513 503 2548 c 128,-1,3
 471 2583 471 2583 426 2603 c 128,-1,4
 381 2623 381 2623 328 2623 c 0,5,6
 279 2623 279 2623 236 2601.5 c 128,-1,7
 193 2580 193 2580 159 2543.5 c 128,-1,8
 125 2507 125 2507 105.5 2458.5 c 128,-1,9
 86 2410 86 2410 86 2359 c 1,10,-1
 -16 2359 l 1,11,12
 -16 2431 -16 2431 9.5 2497.5 c 128,-1,13
 35 2564 35 2564 81 2614 c 128,-1,14
 127 2664 127 2664 190.5 2695 c 128,-1,15
 254 2726 254 2726 328 2726 c 256,16,17
 402 2726 402 2726 465.5 2695 c 128,-1,18
 529 2664 529 2664 575 2614 c 128,-1,19
 621 2564 621 2564 647.5 2497.5 c 128,-1,20
 674 2431 674 2431 674 2359 c 1,21,-1
 572 2359 l 1,0,1
430 2406 m 2,22,23
 430 2357 430 2357 399.5 2332.5 c 128,-1,24
 369 2308 369 2308 328 2308 c 0,25,26
 226 2308 226 2308 226 2419 c 0,27,28
 226 2466 226 2466 255.5 2489.5 c 128,-1,29
 285 2513 285 2513 328 2513 c 0,30,31
 369 2513 369 2513 399.5 2485.5 c 128,-1,32
 430 2458 430 2458 430 2410 c 2,33,-1
 430 2406 l 2,22,23
36 768 m 1,34,-1
 -16 768 l 1,35,-1
 -16 819 l 1,36,-1
 36 819 l 1,37,-1
 36 768 l 1,34,-1
36 1178 m 1,38,-1
 -16 1178 l 1,39,-1
 -16 1229 l 1,40,-1
 36 1229 l 1,41,-1
 36 1178 l 1,38,-1
36 1587 m 1,42,-1
 -16 1587 l 1,43,-1
 -16 1638 l 1,44,-1
 36 1638 l 1,45,-1
 36 1587 l 1,42,-1
36 358 m 1,46,-1
 -16 358 l 1,47,-1
 -16 410 l 1,48,-1
 36 410 l 1,49,-1
 36 358 l 1,46,-1
36 -51 m 1,50,-1
 -16 -51 l 1,51,-1
 -16 0 l 1,52,-1
 36 0 l 1,53,-1
 36 -51 l 1,50,-1
EndSplineSet
Validated: 1
EndChar

StartChar: at
Encoding: 64 64 33
Width: 480
GlyphClass: 1
Flags: W
LayerCount: 2
Fore
SplineSet
496 358 m 1,0,-1
 416 358 l 1,1,2
 420 332 420 332 427.5 310.5 c 128,-1,3
 435 289 435 289 443 268 c 0,4,5
 457 217 457 217 488 174 c 2,6,-1
 523 131 l 1,7,-1
 572 72 l 1,8,-1
 662 -18 l 1,9,10
 764 -152 764 -152 764 -297 c 0,11,12
 764 -332 764 -332 758 -374 c 128,-1,13
 752 -416 752 -416 734 -461 c 0,14,15
 719 -496 719 -496 710 -519.5 c 128,-1,16
 701 -543 701 -543 684 -571 c 1,17,-1
 654 -573 l 1,18,-1
 689 -483 l 2,19,20
 695 -465 695 -465 701 -446.5 c 128,-1,21
 707 -428 707 -428 711 -406 c 2,22,-1
 717 -350 l 1,23,-1
 719 -326 l 1,24,-1
 719 -285 l 1,25,26
 713 -260 713 -260 711 -252 c 0,27,28
 703 -227 703 -227 695 -203 c 0,29,30
 674 -139 674 -139 625 -88 c 1,31,32
 580 -31 580 -31 527 -4 c 1,33,34
 506 0 506 0 496 0 c 1,35,-1
 496 -51 l 1,36,-1
 410 -51 l 1,37,-1
 410 -410 l 1,38,-1
 562 -410 l 1,39,-1
 562 -461 l 1,40,-1
 410 -461 l 1,41,-1
 410 -786 l 2,42,43
 410 -813 410 -813 404 -819 c 1,44,-1
 562 -819 l 1,45,-1
 562 -870 l 1,46,-1
 387 -870 l 1,47,48
 381 -881 381 -881 378 -889 c 128,-1,49
 375 -897 375 -897 365 -909 c 0,50,51
 351 -932 351 -932 325 -954.5 c 128,-1,52
 299 -977 299 -977 263 -993 c 0,53,54
 230 -1010 230 -1010 196 -1017 c 128,-1,55
 162 -1024 162 -1024 127 -1024 c 0,56,57
 64 -1024 64 -1024 27 -993 c 1,58,59
 -16 -963 -16 -963 -16 -897 c 2,60,-1
 -16 -870 l 1,61,-1
 -166 -870 l 1,62,-1
 -166 -819 l 1,63,-1
 -4 -819 l 1,64,65
 0 -809 0 -809 9.5 -796.5 c 128,-1,66
 19 -784 19 -784 25 -778 c 0,67,68
 45 -754 45 -754 71 -733.5 c 128,-1,69
 97 -713 97 -713 131 -696 c 0,70,71
 199 -666 199 -666 254 -666 c 0,72,73
 299 -666 299 -666 320.5 -675 c 128,-1,74
 342 -684 342 -684 359 -700 c 1,75,-1
 359 -461 l 1,76,-1
 -166 -461 l 1,77,-1
 -166 -410 l 1,78,-1
 359 -410 l 1,79,-1
 359 -51 l 1,80,-1
 -16 -51 l 1,81,-1
 -16 0 l 1,82,-1
 359 0 l 1,83,-1
 359 358 l 1,84,-1
 -16 358 l 1,85,-1
 -16 410 l 1,86,-1
 496 410 l 1,87,-1
 496 358 l 1,0,-1
496 1178 m 1,88,-1
 -16 1178 l 1,89,-1
 -16 1229 l 1,90,-1
 496 1229 l 1,91,-1
 496 1178 l 1,88,-1
496 768 m 1,92,-1
 -16 768 l 1,93,-1
 -16 819 l 1,94,-1
 496 819 l 1,95,-1
 496 768 l 1,92,-1
496 1587 m 1,96,-1
 -16 1587 l 1,97,-1
 -16 1638 l 1,98,-1
 496 1638 l 1,99,-1
 496 1587 l 1,96,-1
490 0 m 1,100,101
 467 8 467 8 446.5 13 c 128,-1,102
 426 18 426 18 410 18 c 1,103,-1
 410 0 l 1,104,-1
 490 0 l 1,100,101
EndSplineSet
Validated: 1
EndChar

StartChar: B
Encoding: 66 66 34
Width: 480
GlyphClass: 1
Flags: W
LayerCount: 2
Fore
SplineSet
496 768 m 1,0,-1
 416 768 l 1,1,2
 420 741 420 741 427.5 719.5 c 128,-1,3
 435 698 435 698 443 678 c 0,4,5
 459 625 459 625 488 584 c 2,6,-1
 523 541 l 1,7,-1
 572 481 l 1,8,-1
 662 377 l 1,9,10
 764 244 764 244 764 98 c 0,11,12
 764 63 764 63 758 27.5 c 128,-1,13
 752 -8 752 -8 734 -53 c 0,14,15
 719 -88 719 -88 710 -111.5 c 128,-1,16
 701 -135 701 -135 684 -164 c 1,17,-1
 654 -166 l 1,18,-1
 689 -76 l 2,19,20
 695 -57 695 -57 701 -38.5 c 128,-1,21
 707 -20 707 -20 711 0 c 2,22,-1
 717 45 l 1,23,-1
 719 70 l 1,24,-1
 719 111 l 1,25,26
 713 135 713 135 711 143 c 0,27,28
 703 168 703 168 695 193 c 0,29,30
 674 256 674 256 625 307 c 1,31,32
 582 362 582 362 527 391 c 0,33,34
 519 395 519 395 511.5 399 c 128,-1,35
 504 403 504 403 496 408 c 1,36,-1
 496 358 l 1,37,-1
 410 358 l 1,38,-1
 410 0 l 1,39,-1
 496 0 l 1,40,-1
 496 -51 l 1,41,-1
 410 -51 l 1,42,-1
 410 -397 l 2,43,44
 410 -408 410 -408 408 -410 c 1,45,-1
 562 -410 l 1,46,-1
 562 -461 l 1,47,-1
 394 -461 l 1,48,49
 387 -471 387 -471 382 -480 c 128,-1,50
 377 -489 377 -489 367 -502 c 0,51,52
 351 -520 351 -520 325 -542.5 c 128,-1,53
 299 -565 299 -565 263 -582 c 0,54,55
 199 -614 199 -614 129 -614 c 0,56,57
 66 -614 66 -614 27 -582 c 0,58,59
 -16 -551 -16 -551 -16 -487 c 2,60,-1
 -16 -461 l 1,61,-1
 -166 -461 l 1,62,-1
 -166 -410 l 1,63,-1
 -2 -410 l 1,64,65
 2 -399 2 -399 10.5 -388 c 128,-1,66
 19 -377 19 -377 25 -371 c 0,67,68
 45 -346 45 -346 69 -325.5 c 128,-1,69
 93 -305 93 -305 127.5 -288.5 c 128,-1,70
 162 -272 162 -272 185.5 -264 c 128,-1,71
 209 -256 209 -256 238 -256 c 0,72,73
 324 -256 324 -256 359 -291 c 1,74,-1
 359 -51 l 1,75,-1
 -16 -51 l 1,76,-1
 -16 0 l 1,77,-1
 359 0 l 1,78,-1
 359 358 l 1,79,-1
 -16 358 l 1,80,-1
 -16 410 l 1,81,-1
 359 410 l 1,82,-1
 359 768 l 1,83,-1
 -16 768 l 1,84,-1
 -16 819 l 1,85,-1
 496 819 l 1,86,-1
 496 768 l 1,0,-1
496 1587 m 1,87,-1
 -16 1587 l 1,88,-1
 -16 1638 l 1,89,-1
 496 1638 l 1,90,-1
 496 1587 l 1,87,-1
496 1178 m 1,91,-1
 -16 1178 l 1,92,-1
 -16 1229 l 1,93,-1
 496 1229 l 1,94,-1
 496 1178 l 1,91,-1
490 410 m 1,95,96
 467 418 467 418 446.5 423 c 128,-1,97
 426 428 426 428 410 428 c 1,98,-1
 410 410 l 1,99,-1
 490 410 l 1,95,96
EndSplineSet
Validated: 1
EndChar

StartChar: C
Encoding: 67 67 35
Width: 480
GlyphClass: 1
Flags: W
LayerCount: 2
Fore
SplineSet
496 358 m 1,0,-1
 410 358 l 1,1,-1
 410 0 l 1,2,-1
 496 0 l 1,3,-1
 496 -51 l 1,4,-1
 410 -51 l 1,5,-1
 410 -170 l 2,6,7
 410 -233 410 -233 365 -291 c 0,8,9
 351 -313 351 -313 325 -336.5 c 128,-1,10
 299 -360 299 -360 263 -377 c 0,11,12
 199 -410 199 -410 129 -410 c 0,13,14
 66 -410 66 -410 27 -377 c 0,15,16
 4 -360 4 -360 -6 -334.5 c 128,-1,17
 -16 -309 -16 -309 -16 -279 c 0,18,19
 -16 -248 -16 -248 -7 -218 c 128,-1,20
 2 -188 2 -188 25 -162 c 0,21,22
 45 -137 45 -137 71 -114.5 c 128,-1,23
 97 -92 97 -92 131 -76 c 0,24,25
 154 -61 154 -61 176.5 -57 c 128,-1,26
 199 -53 199 -53 222 -51 c 1,27,-1
 -16 -51 l 1,28,-1
 -16 0 l 1,29,-1
 359 0 l 1,30,-1
 359 358 l 1,31,-1
 -16 358 l 1,32,-1
 -16 410 l 1,33,-1
 359 410 l 1,34,-1
 359 768 l 1,35,-1
 -16 768 l 1,36,-1
 -16 819 l 1,37,-1
 359 819 l 1,38,-1
 359 1024 l 1,39,-1
 410 1024 l 1,40,41
 414 983 414 983 423.5 949 c 128,-1,42
 433 915 433 915 443 887 c 0,43,44
 447 866 447 866 454 850 c 128,-1,45
 461 834 461 834 469 819 c 1,46,-1
 496 819 l 1,47,-1
 496 782 l 1,48,-1
 523 750 l 1,49,-1
 572 690 l 1,50,-1
 662 586 l 1,51,52
 764 453 764 453 764 307 c 0,53,54
 764 272 764 272 758 230 c 128,-1,55
 752 188 752 188 734 143 c 0,56,57
 719 109 719 109 710 85 c 128,-1,58
 701 61 701 61 684 33 c 1,59,-1
 654 31 l 1,60,-1
 689 121 l 2,61,62
 695 139 695 139 701 157.5 c 128,-1,63
 707 176 707 176 711 199 c 2,64,-1
 717 254 l 1,65,-1
 719 279 l 1,66,-1
 719 319 l 1,67,68
 713 344 713 344 711 352 c 0,69,70
 703 377 703 377 695 401 c 0,71,72
 674 465 674 465 625 516 c 1,73,74
 580 573 580 573 527 600 c 0,75,76
 498 616 498 616 466.5 626.5 c 128,-1,77
 435 637 435 637 410 637 c 1,78,-1
 410 410 l 1,79,-1
 496 410 l 1,80,-1
 496 358 l 1,0,-1
496 1587 m 1,81,-1
 -16 1587 l 1,82,-1
 -16 1638 l 1,83,-1
 496 1638 l 1,84,-1
 496 1587 l 1,81,-1
496 1178 m 1,85,-1
 -16 1178 l 1,86,-1
 -16 1229 l 1,87,-1
 496 1229 l 1,88,-1
 496 1178 l 1,85,-1
271 -51 m 1,89,90
 299 -53 299 -53 320.5 -58 c 128,-1,91
 342 -63 342 -63 359 -78 c 1,92,-1
 359 -51 l 1,93,-1
 271 -51 l 1,89,90
EndSplineSet
Validated: 1
EndChar

StartChar: D
Encoding: 68 68 36
Width: 480
GlyphClass: 1
Flags: W
LayerCount: 2
Fore
SplineSet
496 358 m 1,0,-1
 410 358 l 1,1,-1
 410 25 l 2,2,3
 410 2 410 2 408 0 c 1,4,-1
 496 0 l 1,5,-1
 496 -51 l 1,6,-1
 394 -51 l 1,7,8
 390 -61 390 -61 384.5 -73.5 c 128,-1,9
 379 -86 379 -86 369 -98 c 0,10,11
 353 -121 353 -121 330.5 -139.5 c 128,-1,12
 308 -158 308 -158 271 -174 c 0,13,14
 238 -190 238 -190 202 -197.5 c 128,-1,15
 166 -205 166 -205 131 -205 c 0,16,17
 68 -205 68 -205 29 -172 c 0,18,19
 -16 -139 -16 -139 -16 -74 c 2,20,-1
 -16 0 l 1,21,-1
 2 0 l 1,22,23
 7 8 7 8 12 16.5 c 128,-1,24
 17 25 17 25 25 33 c 0,25,26
 45 57 45 57 71 81.5 c 128,-1,27
 97 106 97 106 131 123 c 0,28,29
 199 154 199 154 254 154 c 0,30,31
 299 154 299 154 320.5 145.5 c 128,-1,32
 342 137 342 137 359 121 c 1,33,-1
 359 358 l 1,34,-1
 -16 358 l 1,35,-1
 -16 410 l 1,36,-1
 359 410 l 1,37,-1
 359 768 l 1,38,-1
 -16 768 l 1,39,-1
 -16 819 l 1,40,-1
 359 819 l 1,41,-1
 359 1178 l 1,42,-1
 -16 1178 l 1,43,-1
 -16 1229 l 1,44,-1
 496 1229 l 1,45,-1
 496 1178 l 1,46,-1
 416 1178 l 1,47,48
 420 1151 420 1151 427.5 1129.5 c 128,-1,49
 435 1108 435 1108 443 1087 c 0,50,51
 457 1036 457 1036 488 993 c 2,52,-1
 523 950 l 1,53,-1
 572 891 l 1,54,-1
 662 786 l 1,55,56
 764 653 764 653 764 508 c 0,57,58
 764 473 764 473 758 431 c 128,-1,59
 752 389 752 389 734 344 c 0,60,61
 719 309 719 309 710 285.5 c 128,-1,62
 701 262 701 262 684 233 c 1,63,-1
 654 231 l 1,64,-1
 689 322 l 2,65,66
 695 340 695 340 701 358.5 c 128,-1,67
 707 377 707 377 711 399 c 2,68,-1
 717 455 l 1,69,-1
 719 479 l 1,70,-1
 719 520 l 1,71,72
 713 545 713 545 711 553 c 0,73,74
 703 578 703 578 695 602 c 0,75,76
 674 666 674 666 625 717 c 1,77,78
 580 774 580 774 527 801 c 0,79,80
 519 805 519 805 511.5 809 c 128,-1,81
 504 813 504 813 496 817 c 1,82,-1
 496 768 l 1,83,-1
 410 768 l 1,84,-1
 410 410 l 1,85,-1
 496 410 l 1,86,-1
 496 358 l 1,0,-1
496 1587 m 1,87,-1
 -16 1587 l 1,88,-1
 -16 1638 l 1,89,-1
 496 1638 l 1,90,-1
 496 1587 l 1,87,-1
490 819 m 1,91,92
 467 827 467 827 446.5 832.5 c 128,-1,93
 426 838 426 838 410 838 c 1,94,-1
 410 819 l 1,95,-1
 490 819 l 1,91,92
EndSplineSet
Validated: 1
EndChar

StartChar: E
Encoding: 69 69 37
Width: 480
GlyphClass: 1
Flags: W
LayerCount: 2
Fore
SplineSet
496 358 m 1,0,-1
 410 358 l 1,1,-1
 410 233 l 2,2,3
 410 174 410 174 365 111 c 0,4,5
 349 88 349 88 326 67.5 c 128,-1,6
 303 47 303 47 269 27 c 0,7,8
 244 12 244 12 215.5 7 c 128,-1,9
 187 2 187 2 158 0 c 1,10,-1
 496 0 l 1,11,-1
 496 -51 l 1,12,-1
 -16 -51 l 1,13,-1
 -16 0 l 1,14,-1
 101 0 l 1,15,16
 60 2 60 2 27 33 c 1,17,18
 -16 63 -16 63 -16 125 c 0,19,20
 -16 156 -16 156 -7 185.5 c 128,-1,21
 2 215 2 215 25 242 c 0,22,23
 45 266 45 266 71 288.5 c 128,-1,24
 97 311 97 311 131 328 c 0,25,26
 158 340 158 340 183.5 347 c 128,-1,27
 209 354 209 354 232 358 c 1,28,-1
 -16 358 l 1,29,-1
 -16 410 l 1,30,-1
 359 410 l 1,31,-1
 359 768 l 1,32,-1
 -16 768 l 1,33,-1
 -16 819 l 1,34,-1
 359 819 l 1,35,-1
 359 1178 l 1,36,-1
 -16 1178 l 1,37,-1
 -16 1229 l 1,38,-1
 359 1229 l 1,39,-1
 359 1434 l 1,40,-1
 410 1434 l 1,41,42
 414 1393 414 1393 423.5 1359 c 128,-1,43
 433 1325 433 1325 443 1296 c 0,44,45
 447 1276 447 1276 454 1259.5 c 128,-1,46
 461 1243 461 1243 469 1229 c 1,47,-1
 496 1229 l 1,48,-1
 496 1192 l 1,49,-1
 523 1159 l 1,50,-1
 572 1100 l 1,51,-1
 662 995 l 1,52,53
 764 862 764 862 764 717 c 0,54,55
 764 682 764 682 758 640 c 128,-1,56
 752 598 752 598 734 553 c 0,57,58
 719 518 719 518 710 494.5 c 128,-1,59
 701 471 701 471 684 442 c 1,60,-1
 654 440 l 1,61,-1
 689 530 l 2,62,63
 695 549 695 549 701 567.5 c 128,-1,64
 707 586 707 586 711 608 c 2,65,-1
 717 664 l 1,66,-1
 719 688 l 1,67,-1
 719 729 l 1,68,69
 713 754 713 754 711 762 c 0,70,71
 703 786 703 786 695 811 c 0,72,73
 674 874 674 874 625 926 c 1,74,75
 580 983 580 983 527 1010 c 0,76,77
 498 1026 498 1026 466.5 1036.5 c 128,-1,78
 435 1047 435 1047 410 1047 c 1,79,-1
 410 819 l 1,80,-1
 496 819 l 1,81,-1
 496 768 l 1,82,-1
 410 768 l 1,83,-1
 410 410 l 1,84,-1
 496 410 l 1,85,-1
 496 358 l 1,0,-1
496 1587 m 1,86,-1
 -16 1587 l 1,87,-1
 -16 1638 l 1,88,-1
 496 1638 l 1,89,-1
 496 1587 l 1,86,-1
267 358 m 1,90,91
 324 352 324 352 359 326 c 1,92,-1
 359 358 l 1,93,-1
 267 358 l 1,90,91
EndSplineSet
Validated: 1
EndChar

StartChar: F
Encoding: 70 70 38
Width: 480
GlyphClass: 1
Flags: W
LayerCount: 2
Fore
SplineSet
496 768 m 1,0,-1
 410 768 l 1,1,-1
 410 434 l 2,2,3
 410 412 410 412 408 410 c 1,4,-1
 496 410 l 1,5,-1
 496 358 l 1,6,-1
 394 358 l 1,7,8
 387 346 387 346 381 335 c 128,-1,9
 375 324 375 324 365 311 c 0,10,11
 349 289 349 289 327.5 270.5 c 128,-1,12
 306 252 306 252 269 236 c 0,13,14
 236 219 236 219 200 212 c 128,-1,15
 164 205 164 205 129 205 c 0,16,17
 66 205 66 205 27 238 c 1,18,19
 -16 268 -16 268 -16 326 c 2,20,-1
 -16 410 l 1,21,-1
 2 410 l 1,22,23
 7 418 7 418 12 426 c 128,-1,24
 17 434 17 434 25 442 c 0,25,26
 45 467 45 467 70 491.5 c 128,-1,27
 95 516 95 516 129 532 c 0,28,29
 197 563 197 563 252 563 c 0,30,31
 297 563 297 563 319.5 555 c 128,-1,32
 342 547 342 547 359 530 c 1,33,-1
 359 768 l 1,34,-1
 -16 768 l 1,35,-1
 -16 819 l 1,36,-1
 359 819 l 1,37,-1
 359 1178 l 1,38,-1
 -16 1178 l 1,39,-1
 -16 1229 l 1,40,-1
 359 1229 l 1,41,-1
 359 1587 l 1,42,-1
 -16 1587 l 1,43,-1
 -16 1638 l 1,44,-1
 496 1638 l 1,45,-1
 496 1587 l 1,46,-1
 416 1587 l 1,47,48
 420 1561 420 1561 427.5 1539.5 c 128,-1,49
 435 1518 435 1518 443 1497 c 0,50,51
 457 1446 457 1446 488 1403 c 2,52,-1
 523 1360 l 1,53,-1
 572 1300 l 1,54,-1
 662 1196 l 1,55,56
 764 1063 764 1063 764 918 c 0,57,58
 764 883 764 883 758 841 c 128,-1,59
 752 799 752 799 734 754 c 0,60,61
 719 719 719 719 710 695.5 c 128,-1,62
 701 672 701 672 684 643 c 1,63,-1
 654 641 l 1,64,-1
 689 731 l 2,65,66
 695 750 695 750 701 768 c 128,-1,67
 707 786 707 786 711 809 c 2,68,-1
 717 864 l 1,69,-1
 719 889 l 1,70,-1
 719 930 l 1,71,72
 713 954 713 954 711 963 c 0,73,74
 703 987 703 987 695 1012 c 0,75,76
 674 1075 674 1075 625 1126 c 1,77,78
 580 1184 580 1184 527 1210 c 0,79,80
 519 1214 519 1214 511.5 1218.5 c 128,-1,81
 504 1223 504 1223 496 1227 c 1,82,-1
 496 1178 l 1,83,-1
 410 1178 l 1,84,-1
 410 819 l 1,85,-1
 496 819 l 1,86,-1
 496 768 l 1,0,-1
496 -51 m 1,87,-1
 -16 -51 l 1,88,-1
 -16 0 l 1,89,-1
 496 0 l 1,90,-1
 496 -51 l 1,87,-1
490 1229 m 1,91,92
 467 1237 467 1237 446.5 1242 c 128,-1,93
 426 1247 426 1247 410 1247 c 1,94,-1
 410 1229 l 1,95,-1
 490 1229 l 1,91,92
EndSplineSet
Validated: 1
EndChar

StartChar: G
Encoding: 71 71 39
Width: 480
GlyphClass: 1
Flags: W
LayerCount: 2
Fore
SplineSet
496 768 m 1,0,-1
 410 768 l 1,1,-1
 410 643 l 2,2,3
 410 580 410 580 365 522 c 0,4,5
 351 500 351 500 328.5 477.5 c 128,-1,6
 306 455 306 455 267 438 c 0,7,8
 240 428 240 428 213.5 420 c 128,-1,9
 187 412 187 412 158 410 c 1,10,-1
 496 410 l 1,11,-1
 496 358 l 1,12,-1
 -16 358 l 1,13,-1
 -16 410 l 1,14,-1
 101 410 l 1,15,16
 60 412 60 412 27 442 c 1,17,18
 -16 473 -16 473 -16 535 c 0,19,20
 -16 565 -16 565 -8 595 c 128,-1,21
 0 625 0 625 23 651 c 0,22,23
 43 676 43 676 65.5 697.5 c 128,-1,24
 88 719 88 719 125 737 c 0,25,26
 154 752 154 752 181.5 758 c 128,-1,27
 209 764 209 764 232 768 c 1,28,-1
 -16 768 l 1,29,-1
 -16 819 l 1,30,-1
 359 819 l 1,31,-1
 359 1178 l 1,32,-1
 -16 1178 l 1,33,-1
 -16 1229 l 1,34,-1
 359 1229 l 1,35,-1
 359 1587 l 1,36,-1
 -16 1587 l 1,37,-1
 -16 1638 l 1,38,-1
 359 1638 l 1,39,-1
 359 1843 l 1,40,-1
 410 1843 l 1,41,42
 414 1802 414 1802 423.5 1768.5 c 128,-1,43
 433 1735 433 1735 443 1706 c 0,44,45
 447 1686 447 1686 454 1669.5 c 128,-1,46
 461 1653 461 1653 469 1638 c 1,47,-1
 496 1638 l 1,48,-1
 496 1602 l 1,49,-1
 523 1569 l 1,50,-1
 572 1509 l 1,51,-1
 662 1405 l 1,52,53
 764 1272 764 1272 764 1126 c 0,54,55
 764 1092 764 1092 758 1050 c 128,-1,56
 752 1008 752 1008 734 963 c 0,57,58
 719 928 719 928 710 904.5 c 128,-1,59
 701 881 701 881 684 852 c 1,60,-1
 654 850 l 1,61,-1
 689 940 l 2,62,63
 695 958 695 958 701 976.5 c 128,-1,64
 707 995 707 995 711 1018 c 2,65,-1
 717 1073 l 1,66,-1
 719 1098 l 1,67,-1
 719 1139 l 1,68,69
 713 1163 713 1163 711 1171 c 0,70,71
 703 1196 703 1196 695 1221 c 0,72,73
 674 1284 674 1284 625 1335 c 1,74,75
 580 1393 580 1393 527 1419 c 0,76,77
 498 1436 498 1436 466.5 1446 c 128,-1,78
 435 1456 435 1456 410 1456 c 1,79,-1
 410 1229 l 1,80,-1
 496 1229 l 1,81,-1
 496 1178 l 1,82,-1
 410 1178 l 1,83,-1
 410 819 l 1,84,-1
 496 819 l 1,85,-1
 496 768 l 1,0,-1
496 -51 m 1,86,-1
 -16 -51 l 1,87,-1
 -16 0 l 1,88,-1
 496 0 l 1,89,-1
 496 -51 l 1,86,-1
267 768 m 1,90,91
 324 762 324 762 359 735 c 1,92,-1
 359 768 l 1,93,-1
 267 768 l 1,90,91
EndSplineSet
Validated: 1
EndChar

StartChar: H
Encoding: 72 72 40
Width: 480
GlyphClass: 1
Flags: W
LayerCount: 2
Fore
SplineSet
70 410 m 1,0,-1
 70 768 l 1,1,-1
 -16 768 l 1,2,-1
 -16 819 l 1,3,-1
 90 819 l 1,4,5
 95 827 95 827 100 839.5 c 128,-1,6
 105 852 105 852 115 862 c 0,7,8
 134 885 134 885 155.5 904.5 c 128,-1,9
 177 924 177 924 213 942 c 0,10,11
 248 958 248 958 282 965.5 c 128,-1,12
 316 973 316 973 351 973 c 0,13,14
 410 973 410 973 453 936 c 1,15,16
 496 905 496 905 496 844 c 2,17,-1
 496 768 l 1,18,-1
 482 768 l 1,19,20
 478 756 478 756 469.5 740.5 c 128,-1,21
 461 725 461 725 451 715 c 0,22,23
 428 692 428 692 409 675.5 c 128,-1,24
 390 659 390 659 355 643 c 128,-1,25
 320 627 320 627 287 620.5 c 128,-1,26
 254 614 254 614 226 614 c 0,27,28
 181 614 181 614 159.5 622.5 c 128,-1,29
 138 631 138 631 121 647 c 1,30,-1
 121 410 l 1,31,-1
 394 410 l 1,32,33
 392 414 392 414 389.5 422 c 128,-1,34
 387 430 387 430 383 440 c 2,35,-1
 349 530 l 1,36,-1
 379 528 l 1,37,38
 396 500 396 500 405 476.5 c 128,-1,39
 414 453 414 453 428 418 c 2,40,-1
 431 410 l 1,41,-1
 496 410 l 1,42,-1
 496 358 l 1,43,-1
 449 358 l 1,44,45
 455 330 455 330 457 303 c 128,-1,46
 459 276 459 276 459 254 c 0,47,48
 459 121 459 121 375 0 c 1,49,-1
 496 0 l 1,50,-1
 496 -51 l 1,51,-1
 332 -51 l 1,52,-1
 267 -119 l 1,53,-1
 217 -178 l 1,54,-1
 183 -221 l 2,55,56
 154 -262 154 -262 138 -315 c 0,57,58
 127 -344 127 -344 124 -380 c 128,-1,59
 121 -416 121 -416 121 -453 c 1,60,-1
 70 -453 l 1,61,-1
 70 -51 l 1,62,-1
 -16 -51 l 1,63,-1
 -16 0 l 1,64,-1
 70 0 l 1,65,-1
 70 358 l 1,66,-1
 -16 358 l 1,67,-1
 -16 410 l 1,68,-1
 70 410 l 1,0,-1
121 358 m 1,69,-1
 121 0 l 1,70,-1
 279 0 l 1,71,72
 289 8 289 8 299.5 19.5 c 128,-1,73
 310 31 310 31 320 45 c 0,74,75
 369 96 369 96 390 160 c 0,76,77
 398 184 398 184 402 196.5 c 128,-1,78
 406 209 406 209 407 213 c 128,-1,79
 408 217 408 217 414 242 c 1,80,-1
 414 283 l 1,81,-1
 412 307 l 1,82,-1
 406 358 l 1,83,-1
 121 358 l 1,69,-1
496 1229 m 1,84,-1
 496 1178 l 1,85,-1
 -16 1178 l 1,86,-1
 -16 1229 l 1,87,-1
 496 1229 l 1,84,-1
496 1638 m 1,88,-1
 496 1587 l 1,89,-1
 -16 1587 l 1,90,-1
 -16 1638 l 1,91,-1
 496 1638 l 1,88,-1
121 -70 m 1,92,93
 142 -70 142 -70 166.5 -65.5 c 128,-1,94
 191 -61 191 -61 215 -51 c 1,95,-1
 121 -51 l 1,96,-1
 121 -70 l 1,92,93
EndSplineSet
Validated: 1
EndChar

StartChar: I
Encoding: 73 73 41
Width: 480
GlyphClass: 1
Flags: W
LayerCount: 2
Fore
SplineSet
70 410 m 1,0,-1
 70 768 l 1,1,-1
 -16 768 l 1,2,-1
 -16 819 l 1,3,-1
 70 819 l 1,4,-1
 70 942 l 2,5,6
 70 1006 70 1006 115 1063 c 0,7,8
 129 1085 129 1085 150.5 1104.5 c 128,-1,9
 172 1124 172 1124 211 1145 c 0,10,11
 234 1157 234 1157 260.5 1165.5 c 128,-1,12
 287 1174 287 1174 312 1178 c 1,13,-1
 -16 1178 l 1,14,-1
 -16 1229 l 1,15,-1
 496 1229 l 1,16,-1
 496 1178 l 1,17,-1
 379 1178 l 1,18,19
 422 1167 422 1167 453 1143 c 0,20,21
 496 1112 496 1112 496 1051 c 0,22,23
 496 1020 496 1020 487 990.5 c 128,-1,24
 478 961 478 961 455 934 c 0,25,26
 435 909 435 909 410 886.5 c 128,-1,27
 385 864 385 864 351 848 c 0,28,29
 310 825 310 825 265 819 c 1,30,-1
 496 819 l 1,31,-1
 496 768 l 1,32,-1
 121 768 l 1,33,-1
 121 410 l 1,34,-1
 404 410 l 1,35,-1
 406 412 l 1,36,-1
 406 414 l 2,37,38
 408 422 408 422 409 430 c 128,-1,39
 410 438 410 438 414 446 c 1,40,-1
 414 487 l 1,41,-1
 412 512 l 1,42,-1
 406 567 l 2,43,44
 402 590 402 590 396 608.5 c 128,-1,45
 390 627 390 627 383 645 c 2,46,-1
 349 735 l 1,47,-1
 379 733 l 1,48,49
 396 705 396 705 405 681 c 128,-1,50
 414 657 414 657 428 623 c 0,51,52
 447 578 447 578 453 536 c 128,-1,53
 459 494 459 494 459 459 c 2,54,-1
 459 434 l 2,55,56
 459 412 459 412 457 410 c 1,57,-1
 496 410 l 1,58,-1
 496 358 l 1,59,-1
 447 358 l 1,60,61
 424 266 424 266 357 180 c 1,62,-1
 267 76 l 1,63,-1
 217 16 l 1,64,-1
 205 0 l 1,65,-1
 496 0 l 1,66,-1
 496 -51 l 1,67,-1
 166 -51 l 1,68,69
 158 -63 158 -63 152 -78.5 c 128,-1,70
 146 -94 146 -94 138 -115 c 0,71,72
 127 -143 127 -143 124 -180 c 128,-1,73
 121 -217 121 -217 121 -256 c 1,74,-1
 70 -256 l 1,75,-1
 70 -51 l 1,76,-1
 -16 -51 l 1,77,-1
 -16 0 l 1,78,-1
 70 0 l 1,79,-1
 70 358 l 1,80,-1
 -16 358 l 1,81,-1
 -16 410 l 1,82,-1
 70 410 l 1,0,-1
121 129 m 1,83,84
 146 129 146 129 169.5 139.5 c 128,-1,85
 193 150 193 150 222 166 c 0,86,87
 277 195 277 195 320 250 c 1,88,89
 367 303 367 303 387 358 c 1,90,-1
 121 358 l 1,91,-1
 121 129 l 1,83,84
496 1638 m 1,92,-1
 496 1587 l 1,93,-1
 -16 1587 l 1,94,-1
 -16 1638 l 1,95,-1
 496 1638 l 1,92,-1
121 819 m 1,96,-1
 189 819 l 1,97,98
 146 825 146 825 121 850 c 1,99,-1
 121 819 l 1,96,-1
EndSplineSet
Validated: 1
EndChar

StartChar: J
Encoding: 74 74 42
Width: 480
GlyphClass: 1
Flags: W
LayerCount: 2
Fore
SplineSet
70 410 m 1,0,-1
 70 768 l 1,1,-1
 -16 768 l 1,2,-1
 -16 819 l 1,3,-1
 70 819 l 1,4,-1
 70 1147 l 2,5,6
 70 1176 70 1176 72 1178 c 1,7,-1
 -16 1178 l 1,8,-1
 -16 1229 l 1,9,-1
 90 1229 l 1,10,11
 95 1237 95 1237 101 1246 c 128,-1,12
 107 1255 107 1255 115 1268 c 0,13,14
 129 1290 129 1290 153 1311.5 c 128,-1,15
 177 1333 177 1333 215 1350 c 0,16,17
 250 1366 250 1366 283 1374 c 128,-1,18
 316 1382 316 1382 351 1382 c 0,19,20
 412 1382 412 1382 453 1348 c 0,21,22
 496 1317 496 1317 496 1255 c 2,23,-1
 496 1178 l 1,24,-1
 482 1178 l 1,25,26
 473 1157 473 1157 457 1137 c 0,27,28
 437 1112 437 1112 410 1090.5 c 128,-1,29
 383 1069 383 1069 349 1053 c 0,30,31
 285 1024 285 1024 226 1024 c 0,32,33
 181 1024 181 1024 159.5 1031 c 128,-1,34
 138 1038 138 1038 121 1055 c 1,35,-1
 121 819 l 1,36,-1
 394 819 l 1,37,38
 392 823 392 823 389.5 831.5 c 128,-1,39
 387 840 387 840 383 850 c 2,40,-1
 349 940 l 1,41,-1
 379 938 l 1,42,43
 396 909 396 909 405 885.5 c 128,-1,44
 414 862 414 862 428 827 c 2,45,-1
 432 819 l 1,46,-1
 496 819 l 1,47,-1
 496 768 l 1,48,-1
 449 768 l 1,49,50
 455 739 455 739 457 712.5 c 128,-1,51
 459 686 459 686 459 664 c 0,52,53
 459 530 459 530 375 410 c 1,54,-1
 496 410 l 1,55,-1
 496 358 l 1,56,-1
 334 358 l 1,57,-1
 267 281 l 1,58,-1
 217 221 l 1,59,-1
 183 178 l 2,60,61
 154 137 154 137 138 84 c 0,62,63
 131 63 131 63 126 41.5 c 128,-1,64
 121 20 121 20 121 0 c 1,65,-1
 496 0 l 1,66,-1
 496 -51 l 1,67,-1
 -16 -51 l 1,68,-1
 -16 0 l 1,69,-1
 70 0 l 1,70,-1
 70 358 l 1,71,-1
 -16 358 l 1,72,-1
 -16 410 l 1,73,-1
 70 410 l 1,0,-1
121 768 m 1,74,-1
 121 410 l 1,75,-1
 279 410 l 1,76,77
 289 418 289 418 299.5 429 c 128,-1,78
 310 440 310 440 320 455 c 0,79,80
 369 506 369 506 390 569 c 0,81,82
 398 594 398 594 402 606 c 128,-1,83
 406 618 406 618 407 622.5 c 128,-1,84
 408 627 408 627 414 651 c 1,85,-1
 414 692 l 1,86,-1
 412 717 l 1,87,-1
 406 768 l 1,88,-1
 121 768 l 1,74,-1
496 1638 m 1,89,-1
 496 1587 l 1,90,-1
 -16 1587 l 1,91,-1
 -16 1638 l 1,92,-1
 496 1638 l 1,89,-1
121 334 m 1,93,94
 166 334 166 334 215 358 c 1,95,-1
 121 358 l 1,96,-1
 121 334 l 1,93,94
EndSplineSet
Validated: 1
EndChar

StartChar: K
Encoding: 75 75 43
Width: 480
GlyphClass: 1
Flags: W
LayerCount: 2
Fore
SplineSet
70 819 m 1,0,-1
 70 1178 l 1,1,-1
 -16 1178 l 1,2,-1
 -16 1229 l 1,3,-1
 70 1229 l 1,4,-1
 70 1352 l 2,5,6
 70 1415 70 1415 115 1473 c 0,7,8
 129 1495 129 1495 149.5 1512.5 c 128,-1,9
 170 1530 170 1530 207 1550 c 0,10,11
 230 1563 230 1563 258.5 1573 c 128,-1,12
 287 1583 287 1583 312 1587 c 1,13,-1
 -16 1587 l 1,14,-1
 -16 1638 l 1,15,-1
 496 1638 l 1,16,-1
 496 1587 l 1,17,-1
 379 1587 l 1,18,19
 422 1577 422 1577 453 1552 c 0,20,21
 496 1522 496 1522 496 1460 c 0,22,23
 496 1430 496 1430 488 1399 c 128,-1,24
 480 1368 480 1368 457 1341 c 0,25,26
 437 1317 437 1317 410 1295.5 c 128,-1,27
 383 1274 383 1274 349 1257 c 0,28,29
 306 1235 306 1235 265 1229 c 1,30,-1
 496 1229 l 1,31,-1
 496 1178 l 1,32,-1
 121 1178 l 1,33,-1
 121 819 l 1,34,-1
 404 819 l 1,35,-1
 406 821 l 1,36,-1
 406 823 l 2,37,38
 408 831 408 831 409 839.5 c 128,-1,39
 410 848 410 848 414 856 c 1,40,-1
 414 897 l 1,41,-1
 412 922 l 1,42,-1
 406 977 l 2,43,44
 402 999 402 999 396 1017.5 c 128,-1,45
 390 1036 390 1036 383 1055 c 2,46,-1
 349 1145 l 1,47,-1
 379 1143 l 1,48,49
 396 1114 396 1114 405 1090.5 c 128,-1,50
 414 1067 414 1067 428 1032 c 0,51,52
 447 987 447 987 453 945 c 128,-1,53
 459 903 459 903 459 868 c 2,54,-1
 459 844 l 2,55,56
 459 821 459 821 457 819 c 1,57,-1
 496 819 l 1,58,-1
 496 768 l 1,59,-1
 447 768 l 1,60,61
 424 676 424 676 357 590 c 1,62,-1
 267 485 l 1,63,-1
 217 426 l 1,64,-1
 205 410 l 1,65,-1
 496 410 l 1,66,-1
 496 358 l 1,67,-1
 168 358 l 1,68,69
 160 342 160 342 153 323.5 c 128,-1,70
 146 305 146 305 138 289 c 0,71,72
 127 260 127 260 124 225 c 128,-1,73
 121 190 121 190 121 150 c 1,74,-1
 70 152 l 1,75,-1
 70 358 l 1,76,-1
 -16 358 l 1,77,-1
 -16 410 l 1,78,-1
 70 410 l 1,79,-1
 70 768 l 1,80,-1
 -16 768 l 1,81,-1
 -16 819 l 1,82,-1
 70 819 l 1,0,-1
121 539 m 1,83,84
 146 539 146 539 169.5 549 c 128,-1,85
 193 559 193 559 222 575 c 0,86,87
 277 604 277 604 320 659 c 0,88,89
 367 713 367 713 387 768 c 1,90,-1
 121 768 l 1,91,-1
 121 539 l 1,83,84
496 0 m 1,92,-1
 496 -51 l 1,93,-1
 -16 -51 l 1,94,-1
 -16 0 l 1,95,-1
 496 0 l 1,92,-1
121 1229 m 1,96,-1
 189 1229 l 1,97,98
 146 1235 146 1235 121 1260 c 1,99,-1
 121 1229 l 1,96,-1
EndSplineSet
Validated: 1
EndChar

StartChar: L
Encoding: 76 76 44
Width: 480
GlyphClass: 1
Flags: W
LayerCount: 2
Fore
SplineSet
70 819 m 1,0,-1
 70 1178 l 1,1,-1
 -16 1178 l 1,2,-1
 -16 1229 l 1,3,-1
 70 1229 l 1,4,-1
 70 1556 l 2,5,6
 70 1585 70 1585 72 1587 c 1,7,-1
 -16 1587 l 1,8,-1
 -16 1638 l 1,9,-1
 90 1638 l 1,10,11
 95 1647 95 1647 100 1656 c 128,-1,12
 105 1665 105 1665 113 1677 c 0,13,14
 142 1726 142 1726 215 1761 c 0,15,16
 250 1778 250 1778 283 1786 c 128,-1,17
 316 1794 316 1794 351 1794 c 0,18,19
 410 1794 410 1794 453 1757 c 1,20,21
 496 1726 496 1726 496 1665 c 2,22,-1
 496 1587 l 1,23,-1
 482 1587 l 1,24,25
 478 1575 478 1575 468.5 1558.5 c 128,-1,26
 459 1542 459 1542 449 1532 c 0,27,28
 426 1509 426 1509 404.5 1494 c 128,-1,29
 383 1479 383 1479 349 1462 c 0,30,31
 281 1432 281 1432 226 1432 c 0,32,33
 181 1432 181 1432 159.5 1440 c 128,-1,34
 138 1448 138 1448 121 1464 c 1,35,-1
 121 1229 l 1,36,-1
 394 1229 l 1,37,38
 392 1233 392 1233 389.5 1241 c 128,-1,39
 387 1249 387 1249 383 1260 c 2,40,-1
 349 1350 l 1,41,-1
 379 1348 l 1,42,43
 396 1319 396 1319 405 1295.5 c 128,-1,44
 414 1272 414 1272 428 1237 c 0,45,46
 430 1233 430 1233 432 1229 c 1,47,-1
 496 1229 l 1,48,-1
 496 1178 l 1,49,-1
 449 1178 l 1,50,51
 455 1149 455 1149 457 1122.5 c 128,-1,52
 459 1096 459 1096 459 1073 c 0,53,54
 459 940 459 940 375 819 c 1,55,-1
 496 819 l 1,56,-1
 496 768 l 1,57,-1
 334 768 l 1,58,-1
 267 690 l 1,59,-1
 217 631 l 1,60,-1
 183 588 l 2,61,62
 154 547 154 547 138 494 c 0,63,64
 131 473 131 473 126 452.5 c 128,-1,65
 121 432 121 432 121 410 c 1,66,-1
 496 410 l 1,67,-1
 496 358 l 1,68,-1
 -16 358 l 1,69,-1
 -16 410 l 1,70,-1
 70 410 l 1,71,-1
 70 768 l 1,72,-1
 -16 768 l 1,73,-1
 -16 819 l 1,74,-1
 70 819 l 1,0,-1
121 1178 m 1,75,-1
 121 819 l 1,76,-1
 279 819 l 1,77,78
 289 827 289 827 299.5 838.5 c 128,-1,79
 310 850 310 850 320 864 c 0,80,81
 369 915 369 915 390 979 c 0,82,83
 398 1004 398 1004 402 1016 c 128,-1,84
 406 1028 406 1028 407 1032 c 128,-1,85
 408 1036 408 1036 414 1061 c 1,86,-1
 414 1102 l 1,87,-1
 412 1126 l 1,88,-1
 406 1178 l 1,89,-1
 121 1178 l 1,75,-1
496 0 m 1,90,-1
 496 -51 l 1,91,-1
 -16 -51 l 1,92,-1
 -16 0 l 1,93,-1
 496 0 l 1,90,-1
121 743 m 1,94,95
 166 743 166 743 215 768 c 1,96,-1
 121 768 l 1,97,-1
 121 743 l 1,94,95
EndSplineSet
Validated: 1
EndChar

StartChar: M
Encoding: 77 77 45
Width: 480
GlyphClass: 1
Flags: W
LayerCount: 2
Fore
SplineSet
70 1229 m 1,0,-1
 70 1587 l 1,1,-1
 -16 1587 l 1,2,-1
 -16 1638 l 1,3,-1
 70 1638 l 1,4,-1
 70 1761 l 2,5,6
 70 1825 70 1825 115 1882 c 0,7,8
 129 1905 129 1905 150.5 1925.5 c 128,-1,9
 172 1946 172 1946 211 1964 c 0,10,11
 281 1997 281 1997 351 1997 c 0,12,13
 410 1997 410 1997 453 1960 c 1,14,15
 496 1929 496 1929 496 1870 c 0,16,17
 496 1839 496 1839 487 1809.5 c 128,-1,18
 478 1780 478 1780 455 1753 c 0,19,20
 435 1729 435 1729 409 1706 c 128,-1,21
 383 1683 383 1683 349 1667 c 0,22,23
 306 1645 306 1645 265 1638 c 1,24,-1
 496 1638 l 1,25,-1
 496 1587 l 1,26,-1
 121 1587 l 1,27,-1
 121 1229 l 1,28,-1
 404 1229 l 1,29,30
 408 1239 408 1239 410 1245 c 128,-1,31
 412 1251 412 1251 414 1266 c 2,32,-1
 414 1307 l 1,33,-1
 412 1331 l 1,34,-1
 406 1386 l 2,35,36
 402 1409 402 1409 396 1427.5 c 128,-1,37
 390 1446 390 1446 383 1464 c 2,38,-1
 349 1554 l 1,39,-1
 379 1552 l 1,40,41
 396 1524 396 1524 405 1500.5 c 128,-1,42
 414 1477 414 1477 428 1442 c 0,43,44
 447 1397 447 1397 453 1355 c 128,-1,45
 459 1313 459 1313 459 1278 c 2,46,-1
 459 1253 l 2,47,48
 459 1231 459 1231 457 1229 c 1,49,-1
 496 1229 l 1,50,-1
 496 1178 l 1,51,-1
 447 1178 l 1,52,53
 424 1085 424 1085 357 999 c 1,54,-1
 267 895 l 1,55,-1
 217 836 l 1,56,-1
 205 819 l 1,57,-1
 496 819 l 1,58,-1
 496 768 l 1,59,-1
 168 768 l 1,60,61
 160 752 160 752 153 733.5 c 128,-1,62
 146 715 146 715 138 698 c 0,63,64
 127 670 127 670 124 636 c 128,-1,65
 121 602 121 602 121 561 c 1,66,-1
 70 561 l 1,67,-1
 70 768 l 1,68,-1
 -16 768 l 1,69,-1
 -16 819 l 1,70,-1
 70 819 l 1,71,-1
 70 1178 l 1,72,-1
 -16 1178 l 1,73,-1
 -16 1229 l 1,74,-1
 70 1229 l 1,0,-1
121 948 m 1,75,76
 146 948 146 948 169.5 958.5 c 128,-1,77
 193 969 193 969 222 985 c 0,78,79
 277 1014 277 1014 320 1069 c 1,80,81
 367 1122 367 1122 387 1178 c 1,82,-1
 121 1178 l 1,83,-1
 121 948 l 1,75,76
496 0 m 1,84,-1
 496 -51 l 1,85,-1
 -16 -51 l 1,86,-1
 -16 0 l 1,87,-1
 496 0 l 1,84,-1
496 410 m 1,88,-1
 496 358 l 1,89,-1
 -16 358 l 1,90,-1
 -16 410 l 1,91,-1
 496 410 l 1,88,-1
121 1638 m 1,92,-1
 189 1638 l 1,93,94
 146 1645 146 1645 121 1669 c 1,95,-1
 121 1638 l 1,92,-1
EndSplineSet
Validated: 1
EndChar

StartChar: N
Encoding: 78 78 46
Width: 480
GlyphClass: 1
Flags: W
LayerCount: 2
Fore
SplineSet
70 1229 m 1,0,-1
 70 1587 l 1,1,-1
 -16 1587 l 1,2,-1
 -16 1638 l 1,3,-1
 70 1638 l 1,4,-1
 70 1966 l 2,5,6
 70 1995 70 1995 72 1997 c 1,7,-1
 -79 1997 l 1,8,-1
 -79 2048 l 1,9,-1
 90 2048 l 1,10,11
 95 2056 95 2056 99 2065.5 c 128,-1,12
 103 2075 103 2075 111 2087 c 0,13,14
 142 2136 142 2136 211 2169 c 0,15,16
 275 2202 275 2202 346 2202 c 0,17,18
 406 2202 406 2202 449 2165 c 1,19,20
 496 2132 496 2132 496 2048 c 1,21,-1
 648 2048 l 1,22,-1
 648 1997 l 1,23,-1
 482 1997 l 1,24,25
 471 1968 471 1968 459 1954 c 0,26,27
 443 1931 443 1931 413 1909.5 c 128,-1,28
 383 1888 383 1888 349 1872 c 0,29,30
 285 1843 285 1843 226 1843 c 0,31,32
 181 1843 181 1843 159.5 1850.5 c 128,-1,33
 138 1858 138 1858 121 1874 c 1,34,-1
 121 1638 l 1,35,-1
 394 1638 l 1,36,37
 392 1642 392 1642 389.5 1650.5 c 128,-1,38
 387 1659 387 1659 383 1669 c 2,39,-1
 349 1759 l 1,40,-1
 379 1757 l 1,41,42
 396 1729 396 1729 405 1705 c 128,-1,43
 414 1681 414 1681 428 1647 c 0,44,45
 430 1642 430 1642 432 1638 c 1,46,-1
 496 1638 l 1,47,-1
 496 1587 l 1,48,-1
 449 1587 l 1,49,50
 455 1559 455 1559 457 1532 c 128,-1,51
 459 1505 459 1505 459 1483 c 0,52,53
 459 1350 459 1350 375 1229 c 1,54,-1
 496 1229 l 1,55,-1
 496 1178 l 1,56,-1
 334 1178 l 1,57,-1
 267 1100 l 1,58,-1
 217 1040 l 1,59,-1
 183 997 l 2,60,61
 152 954 152 954 138 903 c 0,62,63
 131 883 131 883 126 860.5 c 128,-1,64
 121 838 121 838 121 819 c 1,65,-1
 496 819 l 1,66,-1
 496 768 l 1,67,-1
 -16 768 l 1,68,-1
 -16 819 l 1,69,-1
 70 819 l 1,70,-1
 70 1178 l 1,71,-1
 -16 1178 l 1,72,-1
 -16 1229 l 1,73,-1
 70 1229 l 1,0,-1
121 1587 m 1,74,-1
 121 1229 l 1,75,-1
 279 1229 l 1,76,77
 289 1237 289 1237 299.5 1248.5 c 128,-1,78
 310 1260 310 1260 320 1274 c 0,79,80
 369 1325 369 1325 390 1389 c 0,81,82
 398 1413 398 1413 402 1425.5 c 128,-1,83
 406 1438 406 1438 407 1442 c 128,-1,84
 408 1446 408 1446 414 1470 c 1,85,-1
 414 1511 l 1,86,-1
 412 1536 l 1,87,-1
 406 1587 l 1,88,-1
 121 1587 l 1,74,-1
496 410 m 1,89,-1
 496 358 l 1,90,-1
 -16 358 l 1,91,-1
 -16 410 l 1,92,-1
 496 410 l 1,89,-1
496 0 m 1,93,-1
 496 -51 l 1,94,-1
 -16 -51 l 1,95,-1
 -16 0 l 1,96,-1
 496 0 l 1,93,-1
121 1153 m 1,97,98
 166 1153 166 1153 215 1178 c 1,99,-1
 121 1178 l 1,100,-1
 121 1153 l 1,97,98
EndSplineSet
Validated: 1
EndChar

StartChar: O
Encoding: 79 79 47
Width: 480
GlyphClass: 1
Flags: W
LayerCount: 2
Fore
SplineSet
496 1178 m 1,0,-1
 410 1178 l 1,1,-1
 410 844 l 2,2,3
 410 821 410 821 408 819 c 1,4,-1
 496 819 l 1,5,-1
 496 768 l 1,6,-1
 394 768 l 1,7,8
 387 756 387 756 381 744.5 c 128,-1,9
 375 733 375 733 365 723 c 0,10,11
 338 678 338 678 263 643 c 0,12,13
 230 627 230 627 196 620.5 c 128,-1,14
 162 614 162 614 127 614 c 0,15,16
 95 614 95 614 71 620.5 c 128,-1,17
 47 627 47 627 27 643 c 0,18,19
 -16 674 -16 674 -16 735 c 2,20,-1
 -16 819 l 1,21,-1
 2 819 l 1,22,23
 7 827 7 827 12 835.5 c 128,-1,24
 17 844 17 844 25 852 c 0,25,26
 45 877 45 877 69 900.5 c 128,-1,27
 93 924 93 924 131 942 c 0,28,29
 199 973 199 973 254 973 c 0,30,31
 299 973 299 973 320.5 964.5 c 128,-1,32
 342 956 342 956 359 940 c 1,33,-1
 359 1178 l 1,34,-1
 -16 1178 l 1,35,-1
 -16 1229 l 1,36,-1
 359 1229 l 1,37,-1
 359 1587 l 1,38,-1
 -16 1587 l 1,39,-1
 -16 1638 l 1,40,-1
 359 1638 l 1,41,-1
 359 2044 l 1,42,-1
 410 2044 l 1,43,44
 414 2003 414 2003 423.5 1969 c 128,-1,45
 433 1935 433 1935 443 1907 c 0,46,47
 457 1855 457 1855 488 1812 c 2,48,-1
 523 1769 l 1,49,-1
 572 1710 l 1,50,-1
 662 1606 l 1,51,52
 764 1473 764 1473 764 1327 c 0,53,54
 764 1292 764 1292 758 1250 c 128,-1,55
 752 1208 752 1208 734 1163 c 0,56,57
 719 1128 719 1128 710 1104.5 c 128,-1,58
 701 1081 701 1081 684 1053 c 1,59,-1
 654 1051 l 1,60,-1
 689 1141 l 2,61,62
 695 1159 695 1159 701 1177.5 c 128,-1,63
 707 1196 707 1196 711 1219 c 2,64,-1
 717 1274 l 1,65,-1
 719 1298 l 1,66,-1
 719 1339 l 1,67,68
 713 1364 713 1364 711 1372 c 0,69,70
 703 1397 703 1397 695 1421 c 0,71,72
 674 1485 674 1485 625 1536 c 1,73,74
 580 1593 580 1593 527 1620 c 0,75,76
 519 1624 519 1624 511.5 1628 c 128,-1,77
 504 1632 504 1632 496 1636 c 1,78,-1
 496 1587 l 1,79,-1
 410 1587 l 1,80,-1
 410 1229 l 1,81,-1
 496 1229 l 1,82,-1
 496 1178 l 1,0,-1
496 358 m 1,83,-1
 -16 358 l 1,84,-1
 -16 410 l 1,85,-1
 496 410 l 1,86,-1
 496 358 l 1,83,-1
496 -51 m 1,87,-1
 -16 -51 l 1,88,-1
 -16 0 l 1,89,-1
 496 0 l 1,90,-1
 496 -51 l 1,87,-1
490 1638 m 1,91,92
 467 1647 467 1647 446.5 1652 c 128,-1,93
 426 1657 426 1657 410 1657 c 1,94,-1
 410 1638 l 1,95,-1
 490 1638 l 1,91,92
EndSplineSet
Validated: 1
EndChar

StartChar: P
Encoding: 80 80 48
Width: 480
GlyphClass: 1
Flags: W
LayerCount: 2
Fore
SplineSet
496 358 m 1,0,-1
 412 358 l 1,1,-1
 412 0 l 1,2,-1
 496 0 l 1,3,-1
 496 -51 l 1,4,-1
 412 -51 l 1,5,-1
 412 -410 l 1,6,-1
 564 -410 l 1,7,-1
 564 -461 l 1,8,-1
 412 -461 l 1,9,-1
 412 -793 l 2,10,11
 412 -817 412 -817 410 -819 c 1,12,-1
 564 -819 l 1,13,-1
 564 -870 l 1,14,-1
 392 -870 l 1,15,16
 387 -881 387 -881 382 -889 c 128,-1,17
 377 -897 377 -897 371 -907 c 0,18,19
 328 -963 328 -963 262.5 -993.5 c 128,-1,20
 197 -1024 197 -1024 134 -1024 c 0,21,22
 72 -1024 72 -1024 27 -991 c 0,23,24
 -16 -958 -16 -958 -16 -903 c 2,25,-1
 -16 -870 l 1,26,-1
 -166 -870 l 1,27,-1
 -166 -819 l 1,28,-1
 7 -819 l 1,29,30
 11 -811 11 -811 16 -804 c 128,-1,31
 21 -797 21 -797 27 -788 c 0,32,33
 47 -766 47 -766 76 -742.5 c 128,-1,34
 105 -719 105 -719 140 -696 c 1,35,36
 177 -680 177 -680 207.5 -673 c 128,-1,37
 238 -666 238 -666 267 -666 c 0,38,39
 297 -666 297 -666 317.5 -674 c 128,-1,40
 338 -682 338 -682 361 -698 c 1,41,-1
 361 -461 l 1,42,-1
 -166 -461 l 1,43,-1
 -166 -410 l 1,44,-1
 361 -410 l 1,45,-1
 361 -51 l 1,46,-1
 -16 -51 l 1,47,-1
 -16 0 l 1,48,-1
 361 0 l 1,49,-1
 361 358 l 1,50,-1
 -16 358 l 1,51,-1
 -16 410 l 1,52,-1
 496 410 l 1,53,-1
 496 358 l 1,0,-1
496 1178 m 1,54,-1
 -16 1178 l 1,55,-1
 -16 1229 l 1,56,-1
 496 1229 l 1,57,-1
 496 1178 l 1,54,-1
496 1587 m 1,58,-1
 -16 1587 l 1,59,-1
 -16 1638 l 1,60,-1
 496 1638 l 1,61,-1
 496 1587 l 1,58,-1
496 768 m 1,62,-1
 -16 768 l 1,63,-1
 -16 819 l 1,64,-1
 496 819 l 1,65,-1
 496 768 l 1,62,-1
EndSplineSet
Validated: 1
EndChar

StartChar: Q
Encoding: 81 81 49
Width: 480
GlyphClass: 1
Flags: W
LayerCount: 2
Fore
SplineSet
496 358 m 1,0,-1
 412 358 l 1,1,-1
 412 0 l 1,2,-1
 496 0 l 1,3,-1
 496 -51 l 1,4,-1
 412 -51 l 1,5,-1
 412 -410 l 1,6,-1
 564 -410 l 1,7,-1
 564 -461 l 1,8,-1
 412 -461 l 1,9,-1
 412 -586 l 2,10,11
 412 -641 412 -641 371 -700 c 0,12,13
 328 -756 328 -756 261.5 -787.5 c 128,-1,14
 195 -819 195 -819 131 -819 c 0,15,16
 74 -819 74 -819 27 -784 c 0,17,18
 -16 -752 -16 -752 -16 -696 c 0,19,20
 -16 -637 -16 -637 27 -582 c 0,21,22
 47 -559 47 -559 76 -535.5 c 128,-1,23
 105 -512 105 -512 140 -489 c 0,24,25
 162 -473 162 -473 181.5 -468 c 128,-1,26
 201 -463 201 -463 224 -461 c 1,27,-1
 -166 -461 l 1,28,-1
 -166 -410 l 1,29,-1
 361 -410 l 1,30,-1
 361 -51 l 1,31,-1
 -16 -51 l 1,32,-1
 -16 0 l 1,33,-1
 361 0 l 1,34,-1
 361 358 l 1,35,-1
 -16 358 l 1,36,-1
 -16 410 l 1,37,-1
 361 410 l 1,38,-1
 361 614 l 1,39,-1
 412 614 l 1,40,-1
 412 410 l 1,41,-1
 496 410 l 1,42,-1
 496 358 l 1,0,-1
496 768 m 1,43,-1
 -16 768 l 1,44,-1
 -16 819 l 1,45,-1
 496 819 l 1,46,-1
 496 768 l 1,43,-1
496 1587 m 1,47,-1
 -16 1587 l 1,48,-1
 -16 1638 l 1,49,-1
 496 1638 l 1,50,-1
 496 1587 l 1,47,-1
496 1178 m 1,51,-1
 -16 1178 l 1,52,-1
 -16 1229 l 1,53,-1
 496 1229 l 1,54,-1
 496 1178 l 1,51,-1
283 -461 m 1,55,56
 318 -463 318 -463 361 -494 c 1,57,-1
 361 -461 l 1,58,-1
 283 -461 l 1,55,56
EndSplineSet
Validated: 1
EndChar

StartChar: R
Encoding: 82 82 50
Width: 480
GlyphClass: 1
Flags: W
LayerCount: 2
Fore
SplineSet
496 358 m 1,0,-1
 412 358 l 1,1,-1
 412 0 l 1,2,-1
 496 0 l 1,3,-1
 496 -51 l 1,4,-1
 412 -51 l 1,5,-1
 412 -410 l 1,6,-1
 564 -410 l 1,7,-1
 564 -463 l 1,8,-1
 394 -463 l 1,9,10
 390 -473 390 -473 383.5 -480 c 128,-1,11
 377 -487 377 -487 371 -498 c 0,12,13
 328 -553 328 -553 259.5 -583.5 c 128,-1,14
 191 -614 191 -614 127 -614 c 0,15,16
 72 -614 72 -614 27 -582 c 0,17,18
 -16 -549 -16 -549 -16 -494 c 2,19,-1
 -16 -461 l 1,20,-1
 -166 -463 l 1,21,-1
 -166 -410 l 1,22,-1
 2 -410 l 1,23,24
 7 -401 7 -401 14 -393 c 128,-1,25
 21 -385 21 -385 27 -377 c 0,26,27
 47 -354 47 -354 76 -331.5 c 128,-1,28
 105 -309 105 -309 140 -287 c 1,29,30
 177 -270 177 -270 207.5 -263 c 128,-1,31
 238 -256 238 -256 267 -256 c 0,32,33
 297 -256 297 -256 317.5 -265 c 128,-1,34
 338 -274 338 -274 361 -291 c 1,35,-1
 361 -51 l 1,36,-1
 -16 -51 l 1,37,-1
 -16 0 l 1,38,-1
 361 0 l 1,39,-1
 361 358 l 1,40,-1
 -16 358 l 1,41,-1
 -16 410 l 1,42,-1
 361 410 l 1,43,-1
 361 768 l 1,44,-1
 -16 768 l 1,45,-1
 -16 819 l 1,46,-1
 496 819 l 1,47,-1
 496 768 l 1,48,-1
 412 768 l 1,49,-1
 412 410 l 1,50,-1
 496 410 l 1,51,-1
 496 358 l 1,0,-1
496 1587 m 1,52,-1
 -16 1587 l 1,53,-1
 -16 1638 l 1,54,-1
 496 1638 l 1,55,-1
 496 1587 l 1,52,-1
496 1178 m 1,56,-1
 -16 1178 l 1,57,-1
 -16 1229 l 1,58,-1
 496 1229 l 1,59,-1
 496 1178 l 1,56,-1
EndSplineSet
Validated: 1
EndChar

StartChar: S
Encoding: 83 83 51
Width: 480
GlyphClass: 1
Flags: W
LayerCount: 2
Fore
SplineSet
496 358 m 1,0,-1
 412 358 l 1,1,-1
 412 0 l 1,2,-1
 496 0 l 1,3,-1
 496 -51 l 1,4,-1
 412 -51 l 1,5,-1
 412 -172 l 2,6,7
 412 -227 412 -227 371 -287 c 1,8,9
 328 -342 328 -342 260.5 -376 c 128,-1,10
 193 -410 193 -410 129 -410 c 0,11,12
 72 -410 72 -410 27 -377 c 0,13,14
 4 -360 4 -360 -6 -335.5 c 128,-1,15
 -16 -311 -16 -311 -16 -283 c 0,16,17
 -16 -223 -16 -223 27 -168 c 0,18,19
 47 -145 47 -145 76 -121.5 c 128,-1,20
 105 -98 105 -98 140 -76 c 0,21,22
 168 -59 168 -59 192.5 -56 c 128,-1,23
 217 -53 217 -53 242 -51 c 1,24,-1
 -16 -51 l 1,25,-1
 -16 0 l 1,26,-1
 361 0 l 1,27,-1
 361 358 l 1,28,-1
 -16 358 l 1,29,-1
 -16 410 l 1,30,-1
 361 410 l 1,31,-1
 361 768 l 1,32,-1
 -16 768 l 1,33,-1
 -16 819 l 1,34,-1
 361 819 l 1,35,-1
 361 1024 l 1,36,-1
 412 1024 l 1,37,-1
 412 819 l 1,38,-1
 496 819 l 1,39,-1
 496 768 l 1,40,-1
 412 768 l 1,41,-1
 412 410 l 1,42,-1
 496 410 l 1,43,-1
 496 358 l 1,0,-1
496 1178 m 1,44,-1
 -16 1178 l 1,45,-1
 -16 1229 l 1,46,-1
 496 1229 l 1,47,-1
 496 1178 l 1,44,-1
496 1587 m 1,48,-1
 -16 1587 l 1,49,-1
 -16 1638 l 1,50,-1
 496 1638 l 1,51,-1
 496 1587 l 1,48,-1
281 -51 m 1,52,53
 303 -53 303 -53 320.5 -58 c 128,-1,54
 338 -63 338 -63 361 -80 c 1,55,-1
 361 -51 l 1,56,-1
 281 -51 l 1,52,53
EndSplineSet
Validated: 1
EndChar

StartChar: T
Encoding: 84 84 52
Width: 480
GlyphClass: 1
Flags: W
LayerCount: 2
Fore
SplineSet
496 358 m 1,0,-1
 412 358 l 1,1,-1
 412 12 l 2,2,3
 412 2 412 2 410 0 c 1,4,-1
 496 0 l 1,5,-1
 496 -51 l 1,6,-1
 394 -51 l 1,7,8
 387 -61 387 -61 382 -69.5 c 128,-1,9
 377 -78 377 -78 371 -88 c 0,10,11
 328 -143 328 -143 260.5 -174 c 128,-1,12
 193 -205 193 -205 129 -205 c 0,13,14
 72 -205 72 -205 27 -172 c 0,15,16
 -16 -139 -16 -139 -16 -84 c 2,17,-1
 -16 0 l 1,18,-1
 7 0 l 1,19,20
 11 8 11 8 16 15.5 c 128,-1,21
 21 23 21 23 27 31 c 0,22,23
 47 53 47 53 76 76.5 c 128,-1,24
 105 100 105 100 140 123 c 1,25,26
 177 139 177 139 207.5 146.5 c 128,-1,27
 238 154 238 154 267 154 c 0,28,29
 297 154 297 154 317.5 144.5 c 128,-1,30
 338 135 338 135 361 119 c 1,31,-1
 361 358 l 1,32,-1
 -16 358 l 1,33,-1
 -16 410 l 1,34,-1
 361 410 l 1,35,-1
 361 768 l 1,36,-1
 -16 768 l 1,37,-1
 -16 819 l 1,38,-1
 361 819 l 1,39,-1
 361 1178 l 1,40,-1
 -16 1178 l 1,41,-1
 -16 1229 l 1,42,-1
 496 1229 l 1,43,-1
 496 1178 l 1,44,-1
 412 1178 l 1,45,-1
 412 819 l 1,46,-1
 496 819 l 1,47,-1
 496 768 l 1,48,-1
 412 768 l 1,49,-1
 412 410 l 1,50,-1
 496 410 l 1,51,-1
 496 358 l 1,0,-1
496 1587 m 1,52,-1
 -16 1587 l 1,53,-1
 -16 1638 l 1,54,-1
 496 1638 l 1,55,-1
 496 1587 l 1,52,-1
EndSplineSet
Validated: 1
EndChar

StartChar: U
Encoding: 85 85 53
Width: 480
GlyphClass: 1
Flags: W
LayerCount: 2
Fore
SplineSet
496 358 m 1,0,-1
 412 358 l 1,1,-1
 412 231 l 2,2,3
 412 176 412 176 371 117 c 0,4,5
 330 63 330 63 265.5 33.5 c 128,-1,6
 201 4 201 4 142 0 c 1,7,-1
 496 0 l 1,8,-1
 496 -51 l 1,9,-1
 -16 -51 l 1,10,-1
 -16 0 l 1,11,-1
 105 0 l 1,12,13
 82 2 82 2 63.5 10 c 128,-1,14
 45 18 45 18 27 33 c 0,15,16
 -16 66 -16 66 -16 121 c 0,17,18
 -16 180 -16 180 27 236 c 0,19,20
 47 258 47 258 76 281.5 c 128,-1,21
 105 305 105 305 140 328 c 1,22,23
 197 352 197 352 244 358 c 1,24,-1
 -16 358 l 1,25,-1
 -16 410 l 1,26,-1
 361 410 l 1,27,-1
 361 768 l 1,28,-1
 -16 768 l 1,29,-1
 -16 819 l 1,30,-1
 361 819 l 1,31,-1
 361 1178 l 1,32,-1
 -16 1178 l 1,33,-1
 -16 1229 l 1,34,-1
 361 1229 l 1,35,-1
 361 1434 l 1,36,-1
 412 1434 l 1,37,-1
 412 1229 l 1,38,-1
 496 1229 l 1,39,-1
 496 1178 l 1,40,-1
 412 1178 l 1,41,-1
 412 819 l 1,42,-1
 496 819 l 1,43,-1
 496 768 l 1,44,-1
 412 768 l 1,45,-1
 412 410 l 1,46,-1
 496 410 l 1,47,-1
 496 358 l 1,0,-1
496 1587 m 1,48,-1
 -16 1587 l 1,49,-1
 -16 1638 l 1,50,-1
 496 1638 l 1,51,-1
 496 1587 l 1,48,-1
271 358 m 1,52,53
 314 352 314 352 361 324 c 1,54,-1
 361 358 l 1,55,-1
 271 358 l 1,52,53
EndSplineSet
Validated: 1
EndChar

StartChar: V
Encoding: 86 86 54
Width: 480
GlyphClass: 1
Flags: W
LayerCount: 2
Fore
SplineSet
496 768 m 1,0,-1
 412 768 l 1,1,-1
 412 422 l 2,2,3
 412 412 412 412 410 410 c 1,4,-1
 496 410 l 1,5,-1
 496 358 l 1,6,-1
 392 358 l 1,7,8
 387 348 387 348 382 340 c 128,-1,9
 377 332 377 332 371 322 c 0,10,11
 328 266 328 266 260.5 235.5 c 128,-1,12
 193 205 193 205 129 205 c 0,13,14
 72 205 72 205 27 238 c 0,15,16
 -16 270 -16 270 -16 326 c 2,17,-1
 -16 340 l 2,18,19
 -16 356 -16 356 -14 358 c 1,20,-1
 -16 358 l 1,21,-1
 -16 410 l 1,22,-1
 7 410 l 1,23,24
 11 418 11 418 16 425 c 128,-1,25
 21 432 21 432 27 440 c 0,26,27
 47 463 47 463 76 486.5 c 128,-1,28
 105 510 105 510 140 532 c 1,29,30
 177 549 177 549 207.5 556 c 128,-1,31
 238 563 238 563 267 563 c 0,32,33
 297 563 297 563 317.5 554 c 128,-1,34
 338 545 338 545 361 528 c 1,35,-1
 361 768 l 1,36,-1
 -16 768 l 1,37,-1
 -16 819 l 1,38,-1
 361 819 l 1,39,-1
 361 1178 l 1,40,-1
 -16 1178 l 1,41,-1
 -16 1229 l 1,42,-1
 361 1229 l 1,43,-1
 361 1587 l 1,44,-1
 -16 1587 l 1,45,-1
 -16 1638 l 1,46,-1
 496 1638 l 1,47,-1
 496 1587 l 1,48,-1
 412 1587 l 1,49,-1
 412 1229 l 1,50,-1
 496 1229 l 1,51,-1
 496 1178 l 1,52,-1
 412 1178 l 1,53,-1
 412 819 l 1,54,-1
 496 819 l 1,55,-1
 496 768 l 1,0,-1
496 -51 m 1,56,-1
 -16 -51 l 1,57,-1
 -16 0 l 1,58,-1
 496 0 l 1,59,-1
 496 -51 l 1,56,-1
EndSplineSet
Validated: 1
EndChar

StartChar: W
Encoding: 87 87 55
Width: 480
GlyphClass: 1
Flags: W
LayerCount: 2
Fore
SplineSet
496 819 m 1,0,-1
 496 768 l 1,1,-1
 412 768 l 1,2,-1
 412 641 l 2,3,4
 412 586 412 586 371 526 c 0,5,6
 330 473 330 473 265.5 443.5 c 128,-1,7
 201 414 201 414 142 410 c 1,8,-1
 496 410 l 1,9,-1
 496 358 l 1,10,-1
 -16 358 l 1,11,-1
 -16 410 l 1,12,-1
 111 410 l 1,13,14
 70 412 70 412 27 442 c 0,15,16
 -16 475 -16 475 -16 530 c 0,17,18
 -16 590 -16 590 27 645 c 0,19,20
 47 668 47 668 76 691.5 c 128,-1,21
 105 715 105 715 140 737 c 1,22,23
 201 762 201 762 246 768 c 1,24,-1
 -16 768 l 1,25,-1
 -16 819 l 1,26,-1
 361 819 l 1,27,-1
 361 1178 l 1,28,-1
 -16 1178 l 1,29,-1
 -16 1229 l 1,30,-1
 361 1229 l 1,31,-1
 361 1587 l 1,32,-1
 -16 1587 l 1,33,-1
 -16 1638 l 1,34,-1
 361 1638 l 1,35,-1
 361 1843 l 1,36,-1
 412 1843 l 1,37,-1
 412 1638 l 1,38,-1
 496 1638 l 1,39,-1
 496 1587 l 1,40,-1
 412 1587 l 1,41,-1
 412 1229 l 1,42,-1
 496 1229 l 1,43,-1
 496 1178 l 1,44,-1
 412 1178 l 1,45,-1
 412 819 l 1,46,-1
 496 819 l 1,0,-1
496 0 m 1,47,-1
 496 -51 l 1,48,-1
 -16 -51 l 1,49,-1
 -16 0 l 1,50,-1
 496 0 l 1,47,-1
361 768 m 1,51,-1
 269 768 l 1,52,53
 312 762 312 762 361 733 c 1,54,-1
 361 768 l 1,51,-1
EndSplineSet
Validated: 1
EndChar

StartChar: X
Encoding: 88 88 56
Width: 480
GlyphClass: 1
Flags: W
LayerCount: 2
Fore
SplineSet
68 410 m 1,0,-1
 68 743 l 2,1,2
 68 750 68 750 69 756 c 128,-1,3
 70 762 70 762 70 768 c 1,4,-1
 -16 768 l 1,5,-1
 -16 819 l 1,6,-1
 86 819 l 1,7,8
 90 829 90 829 96.5 838.5 c 128,-1,9
 103 848 103 848 109 858 c 0,10,11
 152 913 152 913 219.5 944 c 128,-1,12
 287 975 287 975 351 975 c 0,13,14
 408 975 408 975 453 942 c 0,15,16
 496 907 496 907 496 854 c 2,17,-1
 496 768 l 1,18,-1
 473 768 l 1,19,20
 469 760 469 760 464 752.5 c 128,-1,21
 459 745 459 745 453 739 c 0,22,23
 433 717 433 717 404 693.5 c 128,-1,24
 375 670 375 670 340 647 c 1,25,26
 303 631 303 631 272.5 621.5 c 128,-1,27
 242 612 242 612 213 612 c 0,28,29
 183 612 183 612 162.5 623.5 c 128,-1,30
 142 635 142 635 119 651 c 1,31,-1
 119 410 l 1,32,-1
 496 410 l 1,33,-1
 496 358 l 1,34,-1
 119 358 l 1,35,-1
 119 0 l 1,36,-1
 496 0 l 1,37,-1
 496 -51 l 1,38,-1
 119 -51 l 1,39,-1
 119 -453 l 1,40,-1
 68 -453 l 1,41,-1
 68 -51 l 1,42,-1
 -16 -51 l 1,43,-1
 -16 0 l 1,44,-1
 68 0 l 1,45,-1
 68 358 l 1,46,-1
 -16 358 l 1,47,-1
 -16 410 l 1,48,-1
 68 410 l 1,0,-1
496 1638 m 1,49,-1
 496 1587 l 1,50,-1
 -16 1587 l 1,51,-1
 -16 1638 l 1,52,-1
 496 1638 l 1,49,-1
496 1229 m 1,53,-1
 496 1178 l 1,54,-1
 -16 1178 l 1,55,-1
 -16 1229 l 1,56,-1
 496 1229 l 1,53,-1
EndSplineSet
Validated: 1
EndChar

StartChar: Y
Encoding: 89 89 57
Width: 480
GlyphClass: 1
Flags: W
LayerCount: 2
Fore
SplineSet
68 410 m 1,0,-1
 68 768 l 1,1,-1
 -16 768 l 1,2,-1
 -16 819 l 1,3,-1
 68 819 l 1,4,-1
 68 948 l 2,5,6
 68 1004 68 1004 109 1063 c 1,7,8
 148 1110 148 1110 204 1139.5 c 128,-1,9
 260 1169 260 1169 318 1178 c 1,10,-1
 -16 1178 l 1,11,-1
 -16 1229 l 1,12,-1
 496 1229 l 1,13,-1
 496 1178 l 1,14,-1
 385 1178 l 1,15,16
 420 1171 420 1171 453 1147 c 0,17,18
 496 1112 496 1112 496 1059 c 0,19,20
 496 999 496 999 453 944 c 0,21,22
 433 922 433 922 404 898 c 128,-1,23
 375 874 375 874 340 852 c 0,24,25
 301 825 301 825 248 819 c 1,26,-1
 496 819 l 1,27,-1
 496 768 l 1,28,-1
 119 768 l 1,29,-1
 119 410 l 1,30,-1
 496 410 l 1,31,-1
 496 358 l 1,32,-1
 119 358 l 1,33,-1
 119 0 l 1,34,-1
 496 0 l 1,35,-1
 496 -51 l 1,36,-1
 119 -51 l 1,37,-1
 119 -248 l 1,38,-1
 68 -248 l 1,39,-1
 68 -51 l 1,40,-1
 -16 -51 l 1,41,-1
 -16 0 l 1,42,-1
 68 0 l 1,43,-1
 68 358 l 1,44,-1
 -16 358 l 1,45,-1
 -16 410 l 1,46,-1
 68 410 l 1,0,-1
496 1638 m 1,47,-1
 496 1587 l 1,48,-1
 -16 1587 l 1,49,-1
 -16 1638 l 1,50,-1
 496 1638 l 1,47,-1
197 819 m 1,51,52
 150 829 150 829 119 856 c 1,53,-1
 119 819 l 1,54,-1
 197 819 l 1,51,52
EndSplineSet
Validated: 1
EndChar

StartChar: Z
Encoding: 90 90 58
Width: 480
GlyphClass: 1
Flags: W
LayerCount: 2
Fore
SplineSet
68 410 m 1,0,-1
 68 768 l 1,1,-1
 -16 768 l 1,2,-1
 -16 819 l 1,3,-1
 68 819 l 1,4,-1
 68 1153 l 2,5,6
 68 1159 68 1159 69 1165 c 128,-1,7
 70 1171 70 1171 70 1178 c 1,8,-1
 -16 1178 l 1,9,-1
 -16 1229 l 1,10,-1
 86 1229 l 1,11,12
 90 1239 90 1239 96.5 1248 c 128,-1,13
 103 1257 103 1257 109 1268 c 0,14,15
 152 1323 152 1323 219.5 1353.5 c 128,-1,16
 287 1384 287 1384 351 1384 c 0,17,18
 408 1384 408 1384 453 1352 c 0,19,20
 496 1317 496 1317 496 1264 c 2,21,-1
 496 1178 l 1,22,-1
 473 1178 l 1,23,24
 469 1169 469 1169 464 1162 c 128,-1,25
 459 1155 459 1155 453 1149 c 0,26,27
 433 1126 433 1126 404 1102.5 c 128,-1,28
 375 1079 375 1079 340 1057 c 1,29,30
 303 1040 303 1040 272.5 1031 c 128,-1,31
 242 1022 242 1022 213 1022 c 0,32,33
 183 1022 183 1022 162.5 1033 c 128,-1,34
 142 1044 142 1044 119 1061 c 1,35,-1
 119 819 l 1,36,-1
 496 819 l 1,37,-1
 496 768 l 1,38,-1
 119 768 l 1,39,-1
 119 410 l 1,40,-1
 496 410 l 1,41,-1
 496 358 l 1,42,-1
 119 358 l 1,43,-1
 119 0 l 1,44,-1
 496 0 l 1,45,-1
 496 -51 l 1,46,-1
 -16 -51 l 1,47,-1
 -16 0 l 1,48,-1
 68 0 l 1,49,-1
 68 358 l 1,50,-1
 -16 358 l 1,51,-1
 -16 410 l 1,52,-1
 68 410 l 1,0,-1
496 1638 m 1,53,-1
 496 1587 l 1,54,-1
 -16 1587 l 1,55,-1
 -16 1638 l 1,56,-1
 496 1638 l 1,53,-1
EndSplineSet
Validated: 1
EndChar

StartChar: bracketleft
Encoding: 91 91 59
Width: 480
GlyphClass: 1
Flags: W
LayerCount: 2
Fore
SplineSet
68 819 m 1,0,-1
 68 1178 l 1,1,-1
 -16 1178 l 1,2,-1
 -16 1229 l 1,3,-1
 68 1229 l 1,4,-1
 68 1358 l 2,5,6
 68 1413 68 1413 109 1473 c 1,7,8
 148 1520 148 1520 204 1549.5 c 128,-1,9
 260 1579 260 1579 320 1587 c 1,10,-1
 -16 1587 l 1,11,-1
 -16 1638 l 1,12,-1
 496 1638 l 1,13,-1
 496 1587 l 1,14,-1
 385 1587 l 1,15,16
 420 1581 420 1581 453 1556 c 0,17,18
 496 1522 496 1522 496 1468 c 0,19,20
 496 1409 496 1409 453 1354 c 0,21,22
 433 1331 433 1331 404 1307.5 c 128,-1,23
 375 1284 375 1284 340 1262 c 0,24,25
 301 1235 301 1235 248 1229 c 1,26,-1
 496 1229 l 1,27,-1
 496 1178 l 1,28,-1
 119 1178 l 1,29,-1
 119 819 l 1,30,-1
 496 819 l 1,31,-1
 496 768 l 1,32,-1
 119 768 l 1,33,-1
 119 410 l 1,34,-1
 496 410 l 1,35,-1
 496 358 l 1,36,-1
 119 358 l 1,37,-1
 119 156 l 1,38,-1
 68 156 l 1,39,-1
 68 358 l 1,40,-1
 -16 358 l 1,41,-1
 -16 410 l 1,42,-1
 68 410 l 1,43,-1
 68 768 l 1,44,-1
 -16 768 l 1,45,-1
 -16 819 l 1,46,-1
 68 819 l 1,0,-1
496 -51 m 1,47,-1
 -16 -51 l 1,48,-1
 -16 0 l 1,49,-1
 496 0 l 1,50,-1
 496 -51 l 1,47,-1
197 1229 m 1,51,52
 150 1239 150 1239 119 1266 c 1,53,-1
 119 1229 l 1,54,-1
 197 1229 l 1,51,52
EndSplineSet
Validated: 1
EndChar

StartChar: backslash
Encoding: 92 92 60
Width: 480
GlyphClass: 1
Flags: W
LayerCount: 2
Fore
SplineSet
68 819 m 1,0,-1
 68 1178 l 1,1,-1
 -16 1178 l 1,2,-1
 -16 1229 l 1,3,-1
 68 1229 l 1,4,-1
 68 1563 l 2,5,6
 68 1569 68 1569 69 1575 c 128,-1,7
 70 1581 70 1581 70 1587 c 1,8,-1
 -16 1587 l 1,9,-1
 -16 1638 l 1,10,-1
 86 1638 l 1,11,12
 90 1649 90 1649 96.5 1658 c 128,-1,13
 103 1667 103 1667 109 1677 c 0,14,15
 152 1733 152 1733 219.5 1763.5 c 128,-1,16
 287 1794 287 1794 351 1794 c 0,17,18
 408 1794 408 1794 453 1761 c 0,19,20
 496 1726 496 1726 496 1673 c 2,21,-1
 496 1587 l 1,22,-1
 473 1587 l 1,23,24
 469 1579 469 1579 464 1572 c 128,-1,25
 459 1565 459 1565 453 1559 c 0,26,27
 433 1536 433 1536 404 1512.5 c 128,-1,28
 375 1489 375 1489 340 1466 c 1,29,30
 303 1450 303 1450 272.5 1441 c 128,-1,31
 242 1432 242 1432 213 1432 c 0,32,33
 183 1432 183 1432 162.5 1443 c 128,-1,34
 142 1454 142 1454 119 1470 c 1,35,-1
 119 1229 l 1,36,-1
 496 1229 l 1,37,-1
 496 1178 l 1,38,-1
 119 1178 l 1,39,-1
 119 819 l 1,40,-1
 496 819 l 1,41,-1
 496 768 l 1,42,-1
 119 768 l 1,43,-1
 119 410 l 1,44,-1
 496 410 l 1,45,-1
 496 358 l 1,46,-1
 -16 358 l 1,47,-1
 -16 410 l 1,48,-1
 68 410 l 1,49,-1
 68 768 l 1,50,-1
 -16 768 l 1,51,-1
 -16 819 l 1,52,-1
 68 819 l 1,0,-1
496 -51 m 1,53,-1
 -16 -51 l 1,54,-1
 -16 0 l 1,55,-1
 496 0 l 1,56,-1
 496 -51 l 1,53,-1
EndSplineSet
Validated: 1
EndChar

StartChar: bracketright
Encoding: 93 93 61
Width: 480
GlyphClass: 1
Flags: W
LayerCount: 2
Fore
SplineSet
-16 1229 m 1,0,-1
 68 1229 l 1,1,-1
 68 1587 l 1,2,-1
 -16 1587 l 1,3,-1
 -16 1638 l 1,4,-1
 68 1638 l 1,5,-1
 68 1767 l 2,6,7
 68 1823 68 1823 109 1882 c 0,8,9
 152 1937 152 1937 219.5 1968 c 128,-1,10
 287 1999 287 1999 351 1999 c 0,11,12
 408 1999 408 1999 453 1966 c 0,13,14
 496 1931 496 1931 496 1878 c 0,15,16
 496 1819 496 1819 453 1763 c 0,17,18
 433 1741 433 1741 404 1717.5 c 128,-1,19
 375 1694 375 1694 340 1671 c 0,20,21
 303 1645 303 1645 246 1638 c 1,22,-1
 496 1638 l 1,23,-1
 496 1587 l 1,24,-1
 119 1587 l 1,25,-1
 119 1229 l 1,26,-1
 496 1229 l 1,27,-1
 496 1178 l 1,28,-1
 119 1178 l 1,29,-1
 119 819 l 1,30,-1
 496 819 l 1,31,-1
 496 768 l 1,32,-1
 119 768 l 1,33,-1
 119 565 l 1,34,-1
 68 565 l 1,35,-1
 68 768 l 1,36,-1
 -16 768 l 1,37,-1
 -16 819 l 1,38,-1
 68 819 l 1,39,-1
 68 1178 l 1,40,-1
 -16 1178 l 1,41,-1
 -16 1229 l 1,0,-1
-16 410 m 1,42,-1
 496 410 l 1,43,-1
 496 358 l 1,44,-1
 -16 358 l 1,45,-1
 -16 410 l 1,42,-1
496 0 m 1,46,-1
 496 -51 l 1,47,-1
 -16 -51 l 1,48,-1
 -16 0 l 1,49,-1
 496 0 l 1,46,-1
119 1638 m 1,50,-1
 199 1638 l 1,51,52
 152 1647 152 1647 119 1675 c 1,53,-1
 119 1638 l 1,50,-1
EndSplineSet
Validated: 1
EndChar

StartChar: asciicircum
Encoding: 94 94 62
Width: 480
GlyphClass: 1
Flags: W
LayerCount: 2
Fore
SplineSet
68 1229 m 1,0,-1
 68 1587 l 1,1,-1
 -16 1587 l 1,2,-1
 -16 1638 l 1,3,-1
 68 1638 l 1,4,-1
 68 1972 l 2,5,6
 68 1978 68 1978 69 1984.5 c 128,-1,7
 70 1991 70 1991 70 1997 c 1,8,-1
 -82 1997 l 1,9,-1
 -82 2048 l 1,10,-1
 86 2048 l 1,11,12
 90 2058 90 2058 96.5 2067.5 c 128,-1,13
 103 2077 103 2077 109 2087 c 0,14,15
 152 2142 152 2142 219.5 2173 c 128,-1,16
 287 2204 287 2204 351 2204 c 0,17,18
 408 2204 408 2204 453 2171 c 0,19,20
 496 2136 496 2136 496 2083 c 2,21,-1
 496 2048 l 1,22,-1
 648 2048 l 1,23,-1
 648 1997 l 1,24,-1
 473 1997 l 1,25,26
 469 1989 469 1989 464 1981.5 c 128,-1,27
 459 1974 459 1974 453 1968 c 0,28,29
 433 1946 433 1946 404 1922 c 128,-1,30
 375 1898 375 1898 340 1876 c 1,31,32
 303 1860 303 1860 272.5 1850.5 c 128,-1,33
 242 1841 242 1841 213 1841 c 0,34,35
 183 1841 183 1841 162.5 1852.5 c 128,-1,36
 142 1864 142 1864 119 1880 c 1,37,-1
 119 1638 l 1,38,-1
 496 1638 l 1,39,-1
 496 1587 l 1,40,-1
 119 1587 l 1,41,-1
 119 1229 l 1,42,-1
 496 1229 l 1,43,-1
 496 1178 l 1,44,-1
 119 1178 l 1,45,-1
 119 819 l 1,46,-1
 496 819 l 1,47,-1
 496 768 l 1,48,-1
 -16 768 l 1,49,-1
 -16 819 l 1,50,-1
 68 819 l 1,51,-1
 68 1178 l 1,52,-1
 -16 1178 l 1,53,-1
 -16 1229 l 1,54,-1
 68 1229 l 1,0,-1
496 410 m 1,55,-1
 496 358 l 1,56,-1
 -16 358 l 1,57,-1
 -16 410 l 1,58,-1
 496 410 l 1,55,-1
496 -51 m 1,59,-1
 -16 -51 l 1,60,-1
 -16 0 l 1,61,-1
 496 0 l 1,62,-1
 496 -51 l 1,59,-1
EndSplineSet
Validated: 1
EndChar

StartChar: underscore
Encoding: 95 95 63
Width: 480
GlyphClass: 1
Flags: W
LayerCount: 2
Fore
SplineSet
496 1178 m 1,0,-1
 412 1178 l 1,1,-1
 412 819 l 1,2,-1
 496 819 l 1,3,-1
 496 768 l 1,4,-1
 398 768 l 1,5,6
 394 756 394 756 386.5 743.5 c 128,-1,7
 379 731 379 731 371 719 c 0,8,9
 328 664 328 664 260.5 639 c 128,-1,10
 193 614 193 614 129 614 c 0,11,12
 72 614 72 614 27 647 c 0,13,14
 4 664 4 664 -6 679 c 128,-1,15
 -16 694 -16 694 -16 723 c 0,16,17
 -16 733 -16 733 -15 751.5 c 128,-1,18
 -14 770 -14 770 -16 819 c 1,19,-1
 4 819 l 1,20,21
 11 829 11 829 21 843.5 c 128,-1,22
 31 858 31 858 33 860 c 0,23,24
 54 883 54 883 79.5 901.5 c 128,-1,25
 105 920 105 920 140 942 c 1,26,27
 177 958 177 958 207.5 965.5 c 128,-1,28
 238 973 238 973 267 973 c 0,29,30
 297 973 297 973 317.5 963.5 c 128,-1,31
 338 954 338 954 361 938 c 1,32,-1
 361 1178 l 1,33,-1
 -16 1178 l 1,34,-1
 -16 1229 l 1,35,-1
 361 1229 l 1,36,-1
 361 1587 l 1,37,-1
 -16 1587 l 1,38,-1
 -16 1638 l 1,39,-1
 361 1638 l 1,40,-1
 361 2036 l 1,41,-1
 412 2036 l 1,42,-1
 412 1638 l 1,43,-1
 496 1638 l 1,44,-1
 496 1587 l 1,45,-1
 412 1587 l 1,46,-1
 412 1229 l 1,47,-1
 496 1229 l 1,48,-1
 496 1178 l 1,0,-1
496 358 m 1,49,-1
 -16 358 l 1,50,-1
 -16 410 l 1,51,-1
 496 410 l 1,52,-1
 496 358 l 1,49,-1
496 -51 m 1,53,-1
 -16 -51 l 1,54,-1
 -16 0 l 1,55,-1
 496 0 l 1,56,-1
 496 -51 l 1,53,-1
EndSplineSet
Validated: 33
EndChar

StartChar: grave
Encoding: 96 96 64
Width: 480
GlyphClass: 1
Flags: W
LayerCount: 2
Fore
SplineSet
496 358 m 1,0,-1
 404 358 l 1,1,-1
 404 0 l 1,2,-1
 496 0 l 1,3,-1
 496 -51 l 1,4,-1
 404 -51 l 1,5,-1
 404 -410 l 1,6,-1
 564 -410 l 1,7,-1
 564 -461 l 1,8,-1
 404 -461 l 1,9,-1
 404 -819 l 1,10,-1
 564 -819 l 1,11,-1
 564 -870 l 1,12,-1
 387 -870 l 1,13,14
 383 -881 383 -881 376 -892 c 128,-1,15
 369 -903 369 -903 359 -920 c 0,16,17
 314 -971 314 -971 254 -1001 c 0,18,19
 189 -1036 189 -1036 138 -1036 c 0,20,21
 82 -1036 82 -1036 52 -1024 c 0,22,23
 15 -1012 15 -1012 0 -975 c 1,24,-1
 -12 -934 l 2,25,26
 -12 -928 -12 -928 -13 -911.5 c 128,-1,27
 -14 -895 -14 -895 -15 -883.5 c 128,-1,28
 -16 -872 -16 -872 -16 -870 c 1,29,-1
 -166 -870 l 1,30,-1
 -166 -819 l 1,31,-1
 -6 -819 l 1,32,33
 9 -786 9 -786 27 -766 c 0,34,35
 70 -717 70 -717 135.5 -686 c 128,-1,36
 201 -655 201 -655 267 -655 c 0,37,38
 295 -655 295 -655 312.5 -662.5 c 128,-1,39
 330 -670 330 -670 353 -686 c 1,40,-1
 353 -461 l 1,41,-1
 -166 -461 l 1,42,-1
 -166 -410 l 1,43,-1
 353 -410 l 1,44,-1
 353 -51 l 1,45,-1
 -16 -51 l 1,46,-1
 -16 0 l 1,47,-1
 353 0 l 1,48,-1
 353 358 l 1,49,-1
 -16 358 l 1,50,-1
 -16 410 l 1,51,-1
 496 410 l 1,52,-1
 496 358 l 1,0,-1
496 768 m 1,53,-1
 -16 768 l 1,54,-1
 -16 819 l 1,55,-1
 496 819 l 1,56,-1
 496 768 l 1,53,-1
496 1178 m 1,57,-1
 -16 1178 l 1,58,-1
 -16 1229 l 1,59,-1
 496 1229 l 1,60,-1
 496 1178 l 1,57,-1
496 1587 m 1,61,-1
 -16 1587 l 1,62,-1
 -16 1638 l 1,63,-1
 496 1638 l 1,64,-1
 496 1587 l 1,61,-1
60 -870 m 2,65,66
 58 -870 58 -870 58 -872 c 0,67,68
 21 -920 21 -920 21 -942 c 1,69,70
 27 -967 27 -967 60 -979 c 1,71,72
 99 -979 99 -979 138 -958 c 1,73,74
 183 -944 183 -944 238 -899 c 0,75,76
 246 -895 246 -895 255.5 -888 c 128,-1,77
 265 -881 265 -881 275 -870 c 1,78,-1
 60 -870 l 2,65,66
115 -815 m 0,79,80
 113 -815 113 -815 109 -819 c 1,81,-1
 306 -819 l 1,82,83
 344 -774 344 -774 344 -745 c 0,84,85
 344 -721 344 -721 314 -711 c 1,86,87
 275 -711 275 -711 230 -736.5 c 128,-1,88
 185 -762 185 -762 115 -815 c 0,79,80
EndSplineSet
Validated: 1
EndChar

StartChar: a
Encoding: 97 97 65
Width: 480
GlyphClass: 1
Flags: W
LayerCount: 2
Fore
SplineSet
496 -51 m 1,0,-1
 404 -51 l 1,1,-1
 404 -410 l 1,2,-1
 564 -410 l 1,3,-1
 564 -461 l 1,4,-1
 404 -461 l 1,5,-1
 404 -598 l 2,6,7
 404 -623 404 -623 402 -627 c 128,-1,8
 400 -631 400 -631 392 -651 c 0,9,10
 387 -664 387 -664 378 -677 c 128,-1,11
 369 -690 369 -690 359 -707 c 0,12,13
 314 -758 314 -758 254 -788 c 0,14,15
 222 -805 222 -805 193 -815 c 128,-1,16
 164 -825 164 -825 138 -825 c 0,17,18
 82 -825 82 -825 52 -813 c 0,19,20
 17 -801 17 -801 0 -762 c 1,21,-1
 -12 -721 l 2,22,23
 -14 -711 -14 -711 -15 -696.5 c 128,-1,24
 -16 -682 -16 -682 -16 -666 c 0,25,26
 -16 -606 -16 -606 27 -553 c 0,27,28
 62 -516 62 -516 102 -495.5 c 128,-1,29
 142 -475 142 -475 189 -461 c 1,30,-1
 -166 -461 l 1,31,-1
 -166 -410 l 1,32,-1
 353 -410 l 1,33,-1
 353 -51 l 1,34,-1
 -16 -51 l 1,35,-1
 -16 0 l 1,36,-1
 353 0 l 1,37,-1
 353 358 l 1,38,-1
 -16 358 l 1,39,-1
 -16 410 l 1,40,-1
 353 410 l 1,41,-1
 353 602 l 1,42,-1
 404 602 l 1,43,-1
 404 410 l 1,44,-1
 496 410 l 1,45,-1
 496 358 l 1,46,-1
 404 358 l 1,47,-1
 404 0 l 1,48,-1
 496 0 l 1,49,-1
 496 -51 l 1,0,-1
115 -602 m 0,50,51
 95 -616 95 -616 58 -659 c 0,52,53
 21 -707 21 -707 21 -729 c 1,54,55
 27 -754 27 -754 60 -766 c 1,56,57
 99 -766 99 -766 138 -745 c 1,58,59
 183 -731 183 -731 238 -686 c 0,60,61
 254 -678 254 -678 272.5 -660.5 c 128,-1,62
 291 -643 291 -643 313.5 -616.5 c 128,-1,63
 336 -590 336 -590 340 -569.5 c 128,-1,64
 344 -549 344 -549 344 -532 c 0,65,66
 344 -508 344 -508 314 -498 c 1,67,68
 275 -498 275 -498 230 -523.5 c 128,-1,69
 185 -549 185 -549 115 -602 c 0,50,51
496 1587 m 1,70,-1
 -16 1587 l 1,71,-1
 -16 1638 l 1,72,-1
 496 1638 l 1,73,-1
 496 1587 l 1,70,-1
496 1178 m 1,74,-1
 -16 1178 l 1,75,-1
 -16 1229 l 1,76,-1
 496 1229 l 1,77,-1
 496 1178 l 1,74,-1
496 768 m 1,78,-1
 -16 768 l 1,79,-1
 -16 819 l 1,80,-1
 496 819 l 1,81,-1
 496 768 l 1,78,-1
353 -461 m 1,82,-1
 312 -461 l 1,83,84
 322 -465 322 -465 332 -466 c 128,-1,85
 342 -467 342 -467 353 -473 c 1,86,-1
 353 -461 l 1,82,-1
EndSplineSet
Validated: 1
EndChar

StartChar: b
Encoding: 98 98 66
Width: 480
GlyphClass: 1
Flags: W
LayerCount: 2
Fore
SplineSet
496 358 m 1,0,-1
 404 358 l 1,1,-1
 404 0 l 1,2,-1
 496 0 l 1,3,-1
 496 -51 l 1,4,-1
 404 -51 l 1,5,-1
 404 -410 l 1,6,-1
 564 -410 l 1,7,-1
 564 -461 l 1,8,-1
 387 -461 l 1,9,10
 383 -471 383 -471 376 -478 c 128,-1,11
 369 -485 369 -485 359 -502 c 0,12,13
 314 -553 314 -553 254 -584 c 0,14,15
 189 -618 189 -618 138 -618 c 0,16,17
 82 -618 82 -618 52 -606 c 0,18,19
 15 -594 15 -594 0 -557 c 1,20,-1
 -12 -516 l 2,21,22
 -16 -495 -16 -495 -16 -461 c 1,23,-1
 -166 -461 l 1,24,-1
 -166 -410 l 1,25,-1
 -8 -410 l 1,26,27
 0 -393 0 -393 8.5 -375.5 c 128,-1,28
 17 -358 17 -358 27 -348 c 0,29,30
 70 -299 70 -299 135.5 -268.5 c 128,-1,31
 201 -238 201 -238 267 -238 c 0,32,33
 295 -238 295 -238 312.5 -245 c 128,-1,34
 330 -252 330 -252 353 -268 c 1,35,-1
 353 -51 l 1,36,-1
 -16 -51 l 1,37,-1
 -16 0 l 1,38,-1
 353 0 l 1,39,-1
 353 358 l 1,40,-1
 -16 358 l 1,41,-1
 -16 410 l 1,42,-1
 353 410 l 1,43,-1
 353 768 l 1,44,-1
 -16 768 l 1,45,-1
 -16 819 l 1,46,-1
 496 819 l 1,47,-1
 496 768 l 1,48,-1
 404 768 l 1,49,-1
 404 410 l 1,50,-1
 496 410 l 1,51,-1
 496 358 l 1,0,-1
496 1178 m 1,52,-1
 -16 1178 l 1,53,-1
 -16 1229 l 1,54,-1
 496 1229 l 1,55,-1
 496 1178 l 1,52,-1
496 1587 m 1,56,-1
 -16 1587 l 1,57,-1
 -16 1638 l 1,58,-1
 496 1638 l 1,59,-1
 496 1587 l 1,56,-1
115 -397 m 0,60,61
 113 -397 113 -397 108 -402.5 c 128,-1,62
 103 -408 103 -408 101 -410 c 1,63,-1
 320 -410 l 1,64,65
 340 -387 340 -387 342 -364.5 c 128,-1,66
 344 -342 344 -342 344 -328 c 0,67,68
 344 -303 344 -303 314 -293 c 1,69,70
 275 -293 275 -293 230 -318.5 c 128,-1,71
 185 -344 185 -344 115 -397 c 0,60,61
52 -461 m 1,72,73
 33 -483 33 -483 27 -498.5 c 128,-1,74
 21 -514 21 -514 21 -524 c 0,75,76
 27 -549 27 -549 60 -561 c 1,77,78
 99 -561 99 -561 138 -541 c 0,79,80
 160 -532 160 -532 183.5 -520 c 128,-1,81
 207 -508 207 -508 238 -487 c 0,82,83
 246 -483 246 -483 253 -476 c 128,-1,84
 260 -469 260 -469 271 -461 c 1,85,-1
 52 -461 l 1,72,73
EndSplineSet
Validated: 1
EndChar

StartChar: c
Encoding: 99 99 67
Width: 480
GlyphClass: 1
Flags: W
LayerCount: 2
Fore
SplineSet
496 358 m 1,0,-1
 404 358 l 1,1,-1
 404 0 l 1,2,-1
 496 0 l 1,3,-1
 496 -51 l 1,4,-1
 404 -51 l 1,5,-1
 404 -190 l 2,6,7
 404 -215 404 -215 402 -219 c 128,-1,8
 400 -223 400 -223 392 -244 c 0,9,10
 387 -256 387 -256 378 -269.5 c 128,-1,11
 369 -283 369 -283 359 -299 c 0,12,13
 314 -350 314 -350 254 -381 c 0,14,15
 189 -416 189 -416 138 -416 c 0,16,17
 82 -416 82 -416 52 -403 c 0,18,19
 15 -391 15 -391 0 -354 c 1,20,-1
 -12 -313 l 2,21,22
 -14 -303 -14 -303 -15 -288.5 c 128,-1,23
 -16 -274 -16 -274 -16 -258 c 0,24,25
 -16 -199 -16 -199 27 -145 c 1,26,27
 62 -109 62 -109 102 -87.5 c 128,-1,28
 142 -66 142 -66 189 -51 c 1,29,-1
 -16 -51 l 1,30,-1
 -16 0 l 1,31,-1
 353 0 l 1,32,-1
 353 358 l 1,33,-1
 -16 358 l 1,34,-1
 -16 410 l 1,35,-1
 353 410 l 1,36,-1
 353 768 l 1,37,-1
 -16 768 l 1,38,-1
 -16 819 l 1,39,-1
 353 819 l 1,40,-1
 353 1012 l 1,41,-1
 404 1012 l 1,42,-1
 404 819 l 1,43,-1
 496 819 l 1,44,-1
 496 768 l 1,45,-1
 404 768 l 1,46,-1
 404 410 l 1,47,-1
 496 410 l 1,48,-1
 496 358 l 1,0,-1
115 -195 m 0,49,50
 95 -209 95 -209 58 -252 c 0,51,52
 21 -299 21 -299 21 -322 c 1,53,54
 27 -346 27 -346 60 -358 c 1,55,56
 99 -358 99 -358 138 -338 c 1,57,58
 183 -324 183 -324 238 -279 c 0,59,60
 254 -270 254 -270 272.5 -253 c 128,-1,61
 291 -236 291 -236 313.5 -209 c 128,-1,62
 336 -182 336 -182 340 -161.5 c 128,-1,63
 344 -141 344 -141 344 -125 c 0,64,65
 344 -100 344 -100 314 -90 c 1,66,67
 275 -90 275 -90 230 -115.5 c 128,-1,68
 185 -141 185 -141 115 -195 c 0,49,50
496 1178 m 1,69,-1
 -16 1178 l 1,70,-1
 -16 1229 l 1,71,-1
 496 1229 l 1,72,-1
 496 1178 l 1,69,-1
496 1587 m 1,73,-1
 -16 1587 l 1,74,-1
 -16 1638 l 1,75,-1
 496 1638 l 1,76,-1
 496 1587 l 1,73,-1
353 -51 m 1,77,-1
 314 -51 l 1,78,79
 324 -55 324 -55 333 -57 c 128,-1,80
 342 -59 342 -59 353 -66 c 1,81,-1
 353 -51 l 1,77,-1
EndSplineSet
Validated: 1
EndChar

StartChar: d
Encoding: 100 100 68
Width: 480
GlyphClass: 1
Flags: W
LayerCount: 2
Fore
SplineSet
496 358 m 1,0,-1
 404 358 l 1,1,-1
 404 0 l 1,2,-1
 496 0 l 1,3,-1
 496 -51 l 1,4,-1
 387 -51 l 1,5,6
 381 -63 381 -63 375 -70.5 c 128,-1,7
 369 -78 369 -78 359 -94 c 0,8,9
 314 -145 314 -145 254 -176 c 0,10,11
 189 -211 189 -211 138 -211 c 0,12,13
 82 -211 82 -211 52 -199 c 0,14,15
 15 -186 15 -186 0 -150 c 1,16,-1
 -12 -109 l 2,17,18
 -14 -98 -14 -98 -15 -86 c 128,-1,19
 -16 -74 -16 -74 -16 -57 c 2,20,-1
 -16 0 l 1,21,-1
 -6 0 l 1,22,23
 7 27 7 27 27 53 c 0,24,25
 70 102 70 102 135.5 133 c 128,-1,26
 201 164 201 164 267 164 c 0,27,28
 295 164 295 164 312.5 155.5 c 128,-1,29
 330 147 330 147 353 131 c 1,30,-1
 353 358 l 1,31,-1
 -16 358 l 1,32,-1
 -16 410 l 1,33,-1
 353 410 l 1,34,-1
 353 768 l 1,35,-1
 -16 768 l 1,36,-1
 -16 819 l 1,37,-1
 353 819 l 1,38,-1
 353 1178 l 1,39,-1
 -16 1178 l 1,40,-1
 -16 1229 l 1,41,-1
 496 1229 l 1,42,-1
 496 1178 l 1,43,-1
 404 1178 l 1,44,-1
 404 819 l 1,45,-1
 496 819 l 1,46,-1
 496 768 l 1,47,-1
 404 768 l 1,48,-1
 404 410 l 1,49,-1
 496 410 l 1,50,-1
 496 358 l 1,0,-1
496 1587 m 1,51,-1
 -16 1587 l 1,52,-1
 -16 1638 l 1,53,-1
 496 1638 l 1,54,-1
 496 1587 l 1,51,-1
50 -51 m 1,55,56
 27 -74 27 -74 24 -90 c 128,-1,57
 21 -106 21 -106 21 -117 c 0,58,59
 27 -141 27 -141 60 -154 c 1,60,61
 99 -154 99 -154 138 -133 c 1,62,63
 183 -119 183 -119 238 -74 c 0,64,65
 246 -70 246 -70 254.5 -65.5 c 128,-1,66
 263 -61 263 -61 273 -51 c 1,67,-1
 50 -51 l 1,55,56
115 4 m 0,68,69
 111 0 111 0 109 0 c 1,70,-1
 322 0 l 1,71,72
 342 23 342 23 343 40 c 128,-1,73
 344 57 344 57 344 72 c 0,74,75
 344 96 344 96 314 106 c 1,76,77
 275 106 275 106 230 81.5 c 128,-1,78
 185 57 185 57 115 4 c 0,68,69
EndSplineSet
Validated: 1
EndChar

StartChar: e
Encoding: 101 101 69
Width: 480
GlyphClass: 1
Flags: W
LayerCount: 2
Fore
SplineSet
496 358 m 1,0,-1
 404 358 l 1,1,-1
 404 213 l 2,2,3
 404 188 404 188 402 184 c 128,-1,4
 400 180 400 180 392 160 c 0,5,6
 387 147 387 147 378 134 c 128,-1,7
 369 121 369 121 359 104 c 0,8,9
 314 53 314 53 254 23 c 0,10,11
 240 14 240 14 226.5 9 c 128,-1,12
 213 4 213 4 201 0 c 1,13,-1
 496 0 l 1,14,-1
 496 -51 l 1,15,-1
 -16 -51 l 1,16,-1
 -16 0 l 1,17,-1
 52 0 l 1,18,19
 15 12 15 12 0 49 c 1,20,-1
 -12 90 l 2,21,22
 -14 100 -14 100 -15 114.5 c 128,-1,23
 -16 129 -16 129 -16 145 c 0,24,25
 -16 205 -16 205 27 258 c 1,26,27
 93 330 93 330 189 358 c 1,28,-1
 -16 358 l 1,29,-1
 -16 410 l 1,30,-1
 353 410 l 1,31,-1
 353 768 l 1,32,-1
 -16 768 l 1,33,-1
 -16 819 l 1,34,-1
 353 819 l 1,35,-1
 353 1178 l 1,36,-1
 -16 1178 l 1,37,-1
 -16 1229 l 1,38,-1
 353 1229 l 1,39,-1
 353 1421 l 1,40,-1
 404 1421 l 1,41,-1
 404 1229 l 1,42,-1
 496 1229 l 1,43,-1
 496 1178 l 1,44,-1
 404 1178 l 1,45,-1
 404 819 l 1,46,-1
 496 819 l 1,47,-1
 496 768 l 1,48,-1
 404 768 l 1,49,-1
 404 410 l 1,50,-1
 496 410 l 1,51,-1
 496 358 l 1,0,-1
115 209 m 0,52,53
 95 195 95 195 58 152 c 0,54,55
 21 104 21 104 21 82 c 1,56,57
 27 57 27 57 60 45 c 1,58,59
 99 45 99 45 138 66 c 1,60,61
 183 80 183 80 238 125 c 0,62,63
 254 133 254 133 272.5 150.5 c 128,-1,64
 291 168 291 168 314 195 c 0,65,66
 361 248 361 248 361 279 c 0,67,68
 361 303 361 303 330 313 c 1,69,70
 252 313 252 313 115 209 c 0,52,53
496 1587 m 1,71,-1
 -16 1587 l 1,72,-1
 -16 1638 l 1,73,-1
 496 1638 l 1,74,-1
 496 1587 l 1,71,-1
353 358 m 1,75,-1
 312 358 l 1,76,77
 332 350 332 350 353 338 c 1,78,-1
 353 358 l 1,75,-1
EndSplineSet
Validated: 1
EndChar

StartChar: f
Encoding: 102 102 70
Width: 480
GlyphClass: 1
Flags: W
LayerCount: 2
Fore
SplineSet
496 768 m 1,0,-1
 404 768 l 1,1,-1
 404 410 l 1,2,-1
 496 410 l 1,3,-1
 496 358 l 1,4,-1
 387 358 l 1,5,6
 383 350 383 350 376 338 c 128,-1,7
 369 326 369 326 359 309 c 0,8,9
 314 258 314 258 254 227 c 0,10,11
 189 193 189 193 138 193 c 0,12,13
 82 193 82 193 52 205 c 0,14,15
 15 217 15 217 0 254 c 1,16,-1
 -12 295 l 2,17,18
 -14 305 -14 305 -15 319.5 c 128,-1,19
 -16 334 -16 334 -16 350 c 2,20,-1
 -16 410 l 1,21,-1
 -6 410 l 1,22,23
 7 436 7 436 27 463 c 0,24,25
 70 512 70 512 135.5 542.5 c 128,-1,26
 201 573 201 573 267 573 c 0,27,28
 295 573 295 573 312.5 566 c 128,-1,29
 330 559 330 559 353 543 c 1,30,-1
 353 768 l 1,31,-1
 -16 768 l 1,32,-1
 -16 819 l 1,33,-1
 353 819 l 1,34,-1
 353 1178 l 1,35,-1
 -16 1178 l 1,36,-1
 -16 1229 l 1,37,-1
 353 1229 l 1,38,-1
 353 1587 l 1,39,-1
 -16 1587 l 1,40,-1
 -16 1638 l 1,41,-1
 496 1638 l 1,42,-1
 496 1587 l 1,43,-1
 404 1587 l 1,44,-1
 404 1229 l 1,45,-1
 496 1229 l 1,46,-1
 496 1178 l 1,47,-1
 404 1178 l 1,48,-1
 404 819 l 1,49,-1
 496 819 l 1,50,-1
 496 768 l 1,0,-1
496 -51 m 1,51,-1
 -16 -51 l 1,52,-1
 -16 0 l 1,53,-1
 496 0 l 1,54,-1
 496 -51 l 1,51,-1
58 356 m 1,55,56
 21 309 21 309 21 287 c 1,57,58
 27 262 27 262 60 250 c 1,59,60
 99 250 99 250 138 270 c 1,61,62
 183 285 183 285 238 330 c 1,63,64
 252 336 252 336 275 358 c 1,65,-1
 60 358 l 1,66,-1
 58 356 l 1,55,56
115 414 m 0,67,68
 111 410 111 410 109 410 c 1,69,-1
 322 410 l 1,70,71
 342 432 342 432 343 450.5 c 128,-1,72
 344 469 344 469 344 483 c 0,73,74
 344 508 344 508 314 518 c 1,75,76
 275 518 275 518 230 492.5 c 128,-1,77
 185 467 185 467 115 414 c 0,67,68
EndSplineSet
Validated: 1
EndChar

StartChar: g
Encoding: 103 103 71
Width: 480
GlyphClass: 1
Flags: W
LayerCount: 2
Fore
SplineSet
496 768 m 1,0,-1
 404 768 l 1,1,-1
 404 623 l 2,2,3
 404 598 404 598 402 594 c 128,-1,4
 400 590 400 590 392 569 c 0,5,6
 387 557 387 557 378 543.5 c 128,-1,7
 369 530 369 530 359 514 c 0,8,9
 314 463 314 463 254 432 c 0,10,11
 240 424 240 424 226.5 419 c 128,-1,12
 213 414 213 414 201 410 c 1,13,-1
 496 410 l 1,14,-1
 496 358 l 1,15,-1
 -16 358 l 1,16,-1
 -16 410 l 1,17,-1
 52 410 l 1,18,19
 15 422 15 422 0 459 c 1,20,-1
 -12 500 l 2,21,22
 -14 510 -14 510 -15 524.5 c 128,-1,23
 -16 539 -16 539 -16 555 c 0,24,25
 -16 614 -16 614 27 668 c 1,26,27
 93 739 93 739 189 768 c 1,28,-1
 -16 768 l 1,29,-1
 -16 819 l 1,30,-1
 353 819 l 1,31,-1
 353 1178 l 1,32,-1
 -16 1178 l 1,33,-1
 -16 1229 l 1,34,-1
 353 1229 l 1,35,-1
 353 1587 l 1,36,-1
 -16 1587 l 1,37,-1
 -16 1638 l 1,38,-1
 353 1638 l 1,39,-1
 353 1831 l 1,40,-1
 404 1831 l 1,41,-1
 404 1638 l 1,42,-1
 496 1638 l 1,43,-1
 496 1587 l 1,44,-1
 404 1587 l 1,45,-1
 404 1229 l 1,46,-1
 496 1229 l 1,47,-1
 496 1178 l 1,48,-1
 404 1178 l 1,49,-1
 404 819 l 1,50,-1
 496 819 l 1,51,-1
 496 768 l 1,0,-1
115 618 m 0,52,53
 95 604 95 604 58 561 c 0,54,55
 21 514 21 514 21 492 c 1,56,57
 27 467 27 467 60 455 c 1,58,59
 99 455 99 455 138 475 c 1,60,61
 183 489 183 489 238 535 c 1,62,63
 254 543 254 543 272.5 560.5 c 128,-1,64
 291 578 291 578 313.5 604.5 c 128,-1,65
 336 631 336 631 340 651.5 c 128,-1,66
 344 672 344 672 344 688 c 0,67,68
 344 713 344 713 314 723 c 1,69,70
 275 723 275 723 230 697.5 c 128,-1,71
 185 672 185 672 115 618 c 0,52,53
496 -51 m 1,72,-1
 -16 -51 l 1,73,-1
 -16 0 l 1,74,-1
 496 0 l 1,75,-1
 496 -51 l 1,72,-1
353 768 m 1,76,-1
 312 768 l 1,77,78
 332 760 332 760 353 748 c 1,79,-1
 353 768 l 1,76,-1
EndSplineSet
Validated: 1
EndChar

StartChar: h
Encoding: 104 104 72
Width: 480
GlyphClass: 1
Flags: W
LayerCount: 2
Fore
SplineSet
76 410 m 1,0,-1
 76 768 l 1,1,-1
 -16 768 l 1,2,-1
 -16 819 l 1,3,-1
 97 819 l 1,4,5
 101 827 101 827 108 836.5 c 128,-1,6
 115 846 115 846 121 858 c 0,7,8
 166 909 166 909 226 940 c 0,9,10
 291 975 291 975 342 975 c 0,11,12
 398 975 398 975 428 963 c 0,13,14
 465 950 465 950 480 913 c 1,15,-1
 492 872 l 2,16,17
 494 862 494 862 495 848 c 128,-1,18
 496 834 496 834 496 817 c 2,19,-1
 496 768 l 1,20,-1
 490 768 l 1,21,22
 478 735 478 735 453 705 c 0,23,24
 410 655 410 655 344.5 624.5 c 128,-1,25
 279 594 279 594 213 594 c 0,26,27
 185 594 185 594 167.5 601 c 128,-1,28
 150 608 150 608 127 625 c 1,29,-1
 127 410 l 1,30,-1
 496 410 l 1,31,-1
 496 358 l 1,32,-1
 127 358 l 1,33,-1
 127 0 l 1,34,-1
 496 0 l 1,35,-1
 496 -51 l 1,36,-1
 127 -51 l 1,37,-1
 127 -453 l 1,38,-1
 76 -453 l 1,39,-1
 76 -51 l 1,40,-1
 -16 -51 l 1,41,-1
 -16 0 l 1,42,-1
 76 0 l 1,43,-1
 76 358 l 1,44,-1
 -16 358 l 1,45,-1
 -16 410 l 1,46,-1
 76 410 l 1,0,-1
496 1638 m 1,47,-1
 496 1587 l 1,48,-1
 -16 1587 l 1,49,-1
 -16 1638 l 1,50,-1
 496 1638 l 1,47,-1
496 1229 m 1,51,-1
 496 1178 l 1,52,-1
 -16 1178 l 1,53,-1
 -16 1229 l 1,54,-1
 496 1229 l 1,51,-1
365 754 m 0,55,56
 373 760 373 760 377 763 c 128,-1,57
 381 766 381 766 383 768 c 1,58,-1
 166 768 l 1,59,60
 144 741 144 741 140 720.5 c 128,-1,61
 136 700 136 700 136 684 c 0,62,63
 136 657 136 657 166 649 c 1,64,65
 205 649 205 649 250 674.5 c 128,-1,66
 295 700 295 700 365 754 c 0,55,56
430 819 m 1,67,68
 459 860 459 860 459 881 c 1,69,70
 453 905 453 905 420 918 c 1,71,72
 381 918 381 918 342 897 c 1,73,74
 297 883 297 883 242 838 c 0,75,76
 234 834 234 834 227 828.5 c 128,-1,77
 220 823 220 823 215 819 c 1,78,-1
 430 819 l 1,67,68
EndSplineSet
Validated: 1
EndChar

StartChar: i
Encoding: 105 105 73
Width: 480
GlyphClass: 1
Flags: W
LayerCount: 2
Fore
SplineSet
76 410 m 1,0,-1
 76 768 l 1,1,-1
 -16 768 l 1,2,-1
 -16 819 l 1,3,-1
 76 819 l 1,4,-1
 76 963 l 2,5,6
 76 987 76 987 78 991 c 128,-1,7
 80 995 80 995 88 1016 c 0,8,9
 93 1028 93 1028 102 1041.5 c 128,-1,10
 111 1055 111 1055 121 1071 c 0,11,12
 166 1122 166 1122 226 1153 c 0,13,14
 252 1167 252 1167 285 1178 c 1,15,-1
 -16 1178 l 1,16,-1
 -16 1229 l 1,17,-1
 496 1229 l 1,18,-1
 496 1178 l 1,19,-1
 424 1178 l 1,20,21
 426 1176 426 1176 428 1176 c 0,22,23
 465 1163 465 1163 480 1126 c 1,24,-1
 492 1085 l 2,25,26
 494 1075 494 1075 495 1061 c 128,-1,27
 496 1047 496 1047 496 1030 c 0,28,29
 496 969 496 969 453 918 c 0,30,31
 424 883 424 883 383 857 c 128,-1,32
 342 831 342 831 297 819 c 1,33,-1
 496 819 l 1,34,-1
 496 768 l 1,35,-1
 127 768 l 1,36,-1
 127 410 l 1,37,-1
 496 410 l 1,38,-1
 496 358 l 1,39,-1
 127 358 l 1,40,-1
 127 0 l 1,41,-1
 496 0 l 1,42,-1
 496 -51 l 1,43,-1
 127 -51 l 1,44,-1
 127 -240 l 1,45,-1
 76 -240 l 1,46,-1
 76 -51 l 1,47,-1
 -16 -51 l 1,48,-1
 -16 0 l 1,49,-1
 76 0 l 1,50,-1
 76 358 l 1,51,-1
 -16 358 l 1,52,-1
 -16 410 l 1,53,-1
 76 410 l 1,0,-1
365 967 m 0,54,55
 385 981 385 981 422 1024 c 0,56,57
 459 1069 459 1069 459 1094 c 1,58,59
 453 1118 453 1118 420 1130 c 1,60,61
 381 1130 381 1130 342 1110 c 1,62,63
 297 1096 297 1096 242 1051 c 0,64,65
 226 1042 226 1042 207.5 1025 c 128,-1,66
 189 1008 189 1008 166.5 981 c 128,-1,67
 144 954 144 954 140 933.5 c 128,-1,68
 136 913 136 913 136 897 c 0,69,70
 136 870 136 870 166 862 c 1,71,72
 205 862 205 862 250 887.5 c 128,-1,73
 295 913 295 913 365 967 c 0,54,55
496 1638 m 1,74,-1
 496 1587 l 1,75,-1
 -16 1587 l 1,76,-1
 -16 1638 l 1,77,-1
 496 1638 l 1,74,-1
127 819 m 1,78,-1
 164 819 l 1,79,80
 146 825 146 825 127 838 c 1,81,-1
 127 819 l 1,78,-1
EndSplineSet
Validated: 1
EndChar

StartChar: j
Encoding: 106 106 74
Width: 480
GlyphClass: 1
Flags: W
LayerCount: 2
Fore
SplineSet
76 410 m 1,0,-1
 76 768 l 1,1,-1
 -16 768 l 1,2,-1
 -16 819 l 1,3,-1
 76 819 l 1,4,-1
 76 1178 l 1,5,-1
 -16 1178 l 1,6,-1
 -16 1229 l 1,7,-1
 93 1229 l 1,8,9
 97 1239 97 1239 104 1249.5 c 128,-1,10
 111 1260 111 1260 121 1276 c 0,11,12
 166 1327 166 1327 226 1358 c 0,13,14
 291 1393 291 1393 342 1393 c 0,15,16
 398 1393 398 1393 428 1380 c 0,17,18
 465 1368 465 1368 480 1331 c 1,19,-1
 492 1290 l 2,20,21
 494 1280 494 1280 495 1265.5 c 128,-1,22
 496 1251 496 1251 496 1235 c 2,23,-1
 496 1178 l 1,24,-1
 486 1178 l 1,25,26
 482 1163 482 1163 472.5 1150 c 128,-1,27
 463 1137 463 1137 453 1122 c 0,28,29
 410 1073 410 1073 344.5 1042.5 c 128,-1,30
 279 1012 279 1012 213 1012 c 0,31,32
 185 1012 185 1012 167.5 1019 c 128,-1,33
 150 1026 150 1026 127 1042 c 1,34,-1
 127 819 l 1,35,-1
 496 819 l 1,36,-1
 496 768 l 1,37,-1
 127 768 l 1,38,-1
 127 410 l 1,39,-1
 496 410 l 1,40,-1
 496 358 l 1,41,-1
 127 358 l 1,42,-1
 127 0 l 1,43,-1
 496 0 l 1,44,-1
 496 -51 l 1,45,-1
 -16 -51 l 1,46,-1
 -16 0 l 1,47,-1
 76 0 l 1,48,-1
 76 358 l 1,49,-1
 -16 358 l 1,50,-1
 -16 410 l 1,51,-1
 76 410 l 1,0,-1
496 1638 m 1,52,-1
 496 1587 l 1,53,-1
 -16 1587 l 1,54,-1
 -16 1638 l 1,55,-1
 496 1638 l 1,52,-1
422 1229 m 1,56,57
 459 1274 459 1274 459 1298 c 1,58,59
 453 1323 453 1323 420 1335 c 1,60,61
 381 1335 381 1335 342 1315 c 1,62,63
 297 1300 297 1300 242 1255 c 0,64,65
 234 1251 234 1251 225.5 1245 c 128,-1,66
 217 1239 217 1239 207 1229 c 1,67,-1
 422 1229 l 1,56,57
365 1171 m 0,68,69
 367 1174 367 1174 369 1175 c 128,-1,70
 371 1176 371 1176 373 1178 c 1,71,-1
 160 1178 l 1,72,73
 140 1155 140 1155 138 1135.5 c 128,-1,74
 136 1116 136 1116 136 1102 c 0,75,76
 136 1075 136 1075 166 1067 c 1,77,78
 205 1067 205 1067 250 1092.5 c 128,-1,79
 295 1118 295 1118 365 1171 c 0,68,69
EndSplineSet
Validated: 1
EndChar

StartChar: k
Encoding: 107 107 75
Width: 480
GlyphClass: 1
Flags: W
LayerCount: 2
Fore
SplineSet
76 819 m 1,0,-1
 76 1178 l 1,1,-1
 -16 1178 l 1,2,-1
 -16 1229 l 1,3,-1
 76 1229 l 1,4,-1
 76 1372 l 2,5,6
 76 1397 76 1397 78 1401 c 128,-1,7
 80 1405 80 1405 88 1425 c 0,8,9
 93 1438 93 1438 102 1451 c 128,-1,10
 111 1464 111 1464 121 1481 c 0,11,12
 166 1532 166 1532 226 1563 c 0,13,14
 252 1577 252 1577 285 1587 c 1,15,-1
 -16 1587 l 1,16,-1
 -16 1638 l 1,17,-1
 496 1638 l 1,18,-1
 496 1587 l 1,19,-1
 424 1587 l 1,20,21
 426 1585 426 1585 428 1585 c 0,22,23
 465 1573 465 1573 480 1536 c 1,24,-1
 492 1495 l 2,25,26
 494 1485 494 1485 495 1470.5 c 128,-1,27
 496 1456 496 1456 496 1440 c 0,28,29
 496 1378 496 1378 453 1327 c 0,30,31
 424 1292 424 1292 383 1266.5 c 128,-1,32
 342 1241 342 1241 297 1229 c 1,33,-1
 496 1229 l 1,34,-1
 496 1178 l 1,35,-1
 127 1178 l 1,36,-1
 127 819 l 1,37,-1
 496 819 l 1,38,-1
 496 768 l 1,39,-1
 127 768 l 1,40,-1
 127 410 l 1,41,-1
 496 410 l 1,42,-1
 496 358 l 1,43,-1
 127 358 l 1,44,-1
 127 164 l 1,45,-1
 76 164 l 1,46,-1
 76 358 l 1,47,-1
 -16 358 l 1,48,-1
 -16 410 l 1,49,-1
 76 410 l 1,50,-1
 76 768 l 1,51,-1
 -16 768 l 1,52,-1
 -16 819 l 1,53,-1
 76 819 l 1,0,-1
365 1376 m 0,54,55
 385 1391 385 1391 422 1434 c 0,56,57
 459 1479 459 1479 459 1503 c 1,58,59
 453 1528 453 1528 420 1540 c 1,60,61
 381 1540 381 1540 342 1520 c 1,62,63
 297 1505 297 1505 242 1460 c 0,64,65
 226 1452 226 1452 207.5 1434.5 c 128,-1,66
 189 1417 189 1417 166.5 1390.5 c 128,-1,67
 144 1364 144 1364 140 1343.5 c 128,-1,68
 136 1323 136 1323 136 1307 c 0,69,70
 136 1280 136 1280 166 1272 c 1,71,72
 205 1272 205 1272 250 1297.5 c 128,-1,73
 295 1323 295 1323 365 1376 c 0,54,55
496 -51 m 1,74,-1
 -16 -51 l 1,75,-1
 -16 0 l 1,76,-1
 496 0 l 1,77,-1
 496 -51 l 1,74,-1
127 1229 m 1,78,-1
 164 1229 l 1,79,80
 146 1235 146 1235 127 1247 c 1,81,-1
 127 1229 l 1,78,-1
EndSplineSet
Validated: 1
EndChar

StartChar: l
Encoding: 108 108 76
Width: 480
GlyphClass: 1
Flags: W
LayerCount: 2
Fore
SplineSet
76 819 m 1,0,-1
 76 1178 l 1,1,-1
 -16 1178 l 1,2,-1
 -16 1229 l 1,3,-1
 76 1229 l 1,4,-1
 76 1587 l 1,5,-1
 -16 1587 l 1,6,-1
 -16 1638 l 1,7,-1
 93 1638 l 1,8,9
 99 1649 99 1649 105 1660 c 128,-1,10
 111 1671 111 1671 121 1686 c 0,11,12
 166 1737 166 1737 226 1767 c 0,13,14
 291 1802 291 1802 342 1802 c 0,15,16
 398 1802 398 1802 428 1790 c 0,17,18
 465 1778 465 1778 480 1741 c 1,19,-1
 492 1700 l 2,20,21
 494 1690 494 1690 495 1675.5 c 128,-1,22
 496 1661 496 1661 496 1645 c 2,23,-1
 496 1587 l 1,24,-1
 486 1587 l 1,25,26
 482 1573 482 1573 472.5 1559.5 c 128,-1,27
 463 1546 463 1546 453 1532 c 0,28,29
 410 1483 410 1483 344.5 1452 c 128,-1,30
 279 1421 279 1421 213 1421 c 0,31,32
 185 1421 185 1421 167.5 1428.5 c 128,-1,33
 150 1436 150 1436 127 1452 c 1,34,-1
 127 1229 l 1,35,-1
 496 1229 l 1,36,-1
 496 1178 l 1,37,-1
 127 1178 l 1,38,-1
 127 819 l 1,39,-1
 496 819 l 1,40,-1
 496 768 l 1,41,-1
 127 768 l 1,42,-1
 127 410 l 1,43,-1
 496 410 l 1,44,-1
 496 358 l 1,45,-1
 -16 358 l 1,46,-1
 -16 410 l 1,47,-1
 76 410 l 1,48,-1
 76 768 l 1,49,-1
 -16 768 l 1,50,-1
 -16 819 l 1,51,-1
 76 819 l 1,0,-1
496 -51 m 1,52,-1
 -16 -51 l 1,53,-1
 -16 0 l 1,54,-1
 496 0 l 1,55,-1
 496 -51 l 1,52,-1
422 1638 m 1,56,57
 459 1683 459 1683 459 1708 c 1,58,59
 453 1733 453 1733 420 1745 c 1,60,61
 381 1745 381 1745 342 1724 c 1,62,63
 297 1710 297 1710 242 1665 c 0,64,65
 234 1661 234 1661 225.5 1655 c 128,-1,66
 217 1649 217 1649 207 1638 c 1,67,-1
 422 1638 l 1,56,57
365 1581 m 0,68,69
 367 1583 367 1583 369 1584 c 128,-1,70
 371 1585 371 1585 373 1587 c 1,71,-1
 160 1587 l 1,72,73
 140 1565 140 1565 138 1545.5 c 128,-1,74
 136 1526 136 1526 136 1511 c 0,75,76
 136 1485 136 1485 166 1477 c 1,77,78
 205 1477 205 1477 250 1502.5 c 128,-1,79
 295 1528 295 1528 365 1581 c 0,68,69
EndSplineSet
Validated: 1
EndChar

StartChar: m
Encoding: 109 109 77
Width: 480
GlyphClass: 1
Flags: W
LayerCount: 2
Fore
SplineSet
76 1229 m 1,0,-1
 76 1587 l 1,1,-1
 -16 1587 l 1,2,-1
 -16 1638 l 1,3,-1
 76 1638 l 1,4,-1
 76 1782 l 2,5,6
 76 1806 76 1806 78 1810.5 c 128,-1,7
 80 1815 80 1815 88 1835 c 0,8,9
 93 1847 93 1847 102 1860.5 c 128,-1,10
 111 1874 111 1874 121 1890 c 0,11,12
 166 1942 166 1942 226 1972 c 0,13,14
 291 2007 291 2007 342 2007 c 0,15,16
 398 2007 398 2007 428 1995 c 0,17,18
 465 1982 465 1982 480 1946 c 1,19,-1
 492 1905 l 2,20,21
 494 1894 494 1894 495 1880 c 128,-1,22
 496 1866 496 1866 496 1849 c 0,23,24
 496 1788 496 1788 453 1737 c 0,25,26
 424 1702 424 1702 383 1676.5 c 128,-1,27
 342 1651 342 1651 297 1638 c 1,28,-1
 496 1638 l 1,29,-1
 496 1587 l 1,30,-1
 127 1587 l 1,31,-1
 127 1229 l 1,32,-1
 496 1229 l 1,33,-1
 496 1178 l 1,34,-1
 127 1178 l 1,35,-1
 127 819 l 1,36,-1
 496 819 l 1,37,-1
 496 768 l 1,38,-1
 127 768 l 1,39,-1
 127 573 l 1,40,-1
 76 573 l 1,41,-1
 76 768 l 1,42,-1
 -16 768 l 1,43,-1
 -16 819 l 1,44,-1
 76 819 l 1,45,-1
 76 1178 l 1,46,-1
 -16 1178 l 1,47,-1
 -16 1229 l 1,48,-1
 76 1229 l 1,0,-1
365 1786 m 0,49,50
 385 1800 385 1800 422 1843 c 0,51,52
 459 1888 459 1888 459 1913 c 1,53,54
 453 1937 453 1937 420 1950 c 1,55,56
 381 1950 381 1950 342 1929 c 1,57,58
 297 1915 297 1915 242 1870 c 0,59,60
 226 1862 226 1862 207.5 1844.5 c 128,-1,61
 189 1827 189 1827 166.5 1800.5 c 128,-1,62
 144 1774 144 1774 140 1753.5 c 128,-1,63
 136 1733 136 1733 136 1716 c 0,64,65
 136 1690 136 1690 166 1681 c 1,66,67
 205 1681 205 1681 250 1707 c 128,-1,68
 295 1733 295 1733 365 1786 c 0,49,50
496 -51 m 1,69,-1
 -16 -51 l 1,70,-1
 -16 0 l 1,71,-1
 496 0 l 1,72,-1
 496 -51 l 1,69,-1
496 410 m 1,73,-1
 496 358 l 1,74,-1
 -16 358 l 1,75,-1
 -16 410 l 1,76,-1
 496 410 l 1,73,-1
127 1638 m 1,77,-1
 164 1638 l 1,78,79
 146 1645 146 1645 127 1657 c 1,80,-1
 127 1638 l 1,77,-1
EndSplineSet
Validated: 1
EndChar

StartChar: n
Encoding: 110 110 78
Width: 480
GlyphClass: 1
Flags: W
LayerCount: 2
Fore
SplineSet
76 1229 m 1,0,-1
 76 1587 l 1,1,-1
 -16 1587 l 1,2,-1
 -16 1638 l 1,3,-1
 76 1638 l 1,4,-1
 76 1997 l 1,5,-1
 -75 1997 l 1,6,-1
 -75 2048 l 1,7,-1
 93 2048 l 1,8,9
 99 2058 99 2058 105 2069.5 c 128,-1,10
 111 2081 111 2081 121 2095 c 0,11,12
 166 2146 166 2146 226 2177 c 0,13,14
 291 2212 291 2212 342 2212 c 0,15,16
 398 2212 398 2212 428 2200 c 0,17,18
 463 2187 463 2187 480 2150 c 1,19,-1
 492 2109 l 2,20,21
 492 2103 492 2103 493 2088 c 128,-1,22
 494 2073 494 2073 495 2061.5 c 128,-1,23
 496 2050 496 2050 496 2048 c 1,24,-1
 648 2048 l 1,25,-1
 648 1997 l 1,26,-1
 486 1997 l 1,27,28
 482 1982 482 1982 472.5 1969 c 128,-1,29
 463 1956 463 1956 453 1942 c 0,30,31
 410 1892 410 1892 344.5 1861.5 c 128,-1,32
 279 1831 279 1831 213 1831 c 0,33,34
 185 1831 185 1831 167.5 1838 c 128,-1,35
 150 1845 150 1845 127 1862 c 1,36,-1
 127 1638 l 1,37,-1
 496 1638 l 1,38,-1
 496 1587 l 1,39,-1
 127 1587 l 1,40,-1
 127 1229 l 1,41,-1
 496 1229 l 1,42,-1
 496 1178 l 1,43,-1
 127 1178 l 1,44,-1
 127 819 l 1,45,-1
 496 819 l 1,46,-1
 496 768 l 1,47,-1
 -16 768 l 1,48,-1
 -16 819 l 1,49,-1
 76 819 l 1,50,-1
 76 1178 l 1,51,-1
 -16 1178 l 1,52,-1
 -16 1229 l 1,53,-1
 76 1229 l 1,0,-1
496 410 m 1,54,-1
 496 358 l 1,55,-1
 -16 358 l 1,56,-1
 -16 410 l 1,57,-1
 496 410 l 1,54,-1
496 -51 m 1,58,-1
 -16 -51 l 1,59,-1
 -16 0 l 1,60,-1
 496 0 l 1,61,-1
 496 -51 l 1,58,-1
422 2048 m 1,62,63
 459 2093 459 2093 459 2118 c 1,64,65
 453 2142 453 2142 420 2154 c 1,66,67
 381 2154 381 2154 342 2134 c 1,68,69
 293 2118 293 2118 242 2075 c 0,70,71
 234 2071 234 2071 225.5 2064.5 c 128,-1,72
 217 2058 217 2058 207 2048 c 1,73,-1
 422 2048 l 1,62,63
365 1991 m 0,74,75
 367 1993 367 1993 369 1994 c 128,-1,76
 371 1995 371 1995 373 1997 c 1,77,-1
 160 1997 l 1,78,79
 140 1974 140 1974 138 1954.5 c 128,-1,80
 136 1935 136 1935 136 1921 c 0,81,82
 136 1894 136 1894 166 1886 c 1,83,84
 205 1886 205 1886 250 1911.5 c 128,-1,85
 295 1937 295 1937 365 1991 c 0,74,75
EndSplineSet
Validated: 1
EndChar

StartChar: o
Encoding: 111 111 79
Width: 480
GlyphClass: 1
Flags: W
LayerCount: 2
Fore
SplineSet
496 1178 m 1,0,-1
 404 1178 l 1,1,-1
 404 819 l 1,2,-1
 496 819 l 1,3,-1
 496 768 l 1,4,-1
 387 768 l 1,5,6
 383 760 383 760 376 747.5 c 128,-1,7
 369 735 369 735 359 719 c 0,8,9
 314 668 314 668 254 637 c 0,10,11
 189 602 189 602 138 602 c 0,12,13
 82 602 82 602 52 614 c 0,14,15
 15 627 15 627 0 664 c 1,16,-1
 -12 705 l 2,17,18
 -14 715 -14 715 -15 729 c 128,-1,19
 -16 743 -16 743 -16 760 c 2,20,-1
 -16 819 l 1,21,-1
 -6 819 l 1,22,23
 7 846 7 846 27 872 c 0,24,25
 70 922 70 922 135.5 952.5 c 128,-1,26
 201 983 201 983 267 983 c 0,27,28
 295 983 295 983 312.5 976 c 128,-1,29
 330 969 330 969 353 952 c 1,30,-1
 353 1178 l 1,31,-1
 -16 1178 l 1,32,-1
 -16 1229 l 1,33,-1
 353 1229 l 1,34,-1
 353 1587 l 1,35,-1
 -16 1587 l 1,36,-1
 -16 1638 l 1,37,-1
 353 1638 l 1,38,-1
 353 2036 l 1,39,-1
 404 2036 l 1,40,-1
 404 1638 l 1,41,-1
 496 1638 l 1,42,-1
 496 1587 l 1,43,-1
 404 1587 l 1,44,-1
 404 1229 l 1,45,-1
 496 1229 l 1,46,-1
 496 1178 l 1,0,-1
496 358 m 1,47,-1
 -16 358 l 1,48,-1
 -16 410 l 1,49,-1
 496 410 l 1,50,-1
 496 358 l 1,47,-1
496 -51 m 1,51,-1
 -16 -51 l 1,52,-1
 -16 0 l 1,53,-1
 496 0 l 1,54,-1
 496 -51 l 1,51,-1
58 766 m 1,55,56
 21 719 21 719 21 696 c 1,57,58
 27 672 27 672 60 659 c 1,59,60
 99 659 99 659 138 680 c 1,61,62
 183 694 183 694 238 739 c 1,63,64
 252 745 252 745 275 768 c 1,65,-1
 60 768 l 1,66,-1
 58 766 l 1,55,56
115 823 m 0,67,68
 111 819 111 819 109 819 c 1,69,-1
 322 819 l 1,70,71
 342 842 342 842 343 860.5 c 128,-1,72
 344 879 344 879 344 893 c 0,73,74
 344 918 344 918 314 928 c 1,75,76
 275 928 275 928 230 902.5 c 128,-1,77
 185 877 185 877 115 823 c 0,67,68
EndSplineSet
Validated: 1
EndChar

StartChar: p
Encoding: 112 112 80
Width: 992
GlyphClass: 1
Flags: W
LayerCount: 2
Fore
SplineSet
1008 -870 m 1,0,-1
 781 -870 l 1,1,2
 770 -928 770 -928 727 -961 c 0,3,4
 674 -1008 674 -1008 592 -1032 c 0,5,6
 551 -1044 551 -1044 512 -1049.5 c 128,-1,7
 473 -1055 473 -1055 439 -1055 c 0,8,9
 367 -1055 367 -1055 287 -1035.5 c 128,-1,10
 207 -1016 207 -1016 148 -967 c 0,11,12
 97 -924 97 -924 86 -870 c 1,13,-1
 -118 -870 l 1,14,-1
 -118 -819 l 1,15,-1
 86 -819 l 1,16,17
 97 -752 97 -752 148 -713 c 0,18,19
 207 -664 207 -664 281 -645 c 0,20,21
 312 -635 312 -635 352 -630 c 128,-1,22
 392 -625 392 -625 426 -625 c 0,23,24
 535 -625 535 -625 578 -645 c 1,25,26
 658 -662 658 -662 719 -713 c 1,27,28
 772 -752 772 -752 783 -819 c 1,29,-1
 1008 -819 l 1,30,-1
 1008 -870 l 1,0,-1
1008 -461 m 1,31,-1
 -118 -461 l 1,32,-1
 -118 -410 l 1,33,-1
 1008 -410 l 1,34,-1
 1008 -461 l 1,31,-1
1008 768 m 1,35,-1
 -16 768 l 1,36,-1
 -16 819 l 1,37,-1
 1008 819 l 1,38,-1
 1008 768 l 1,35,-1
1008 -51 m 1,39,-1
 -16 -51 l 1,40,-1
 -16 0 l 1,41,-1
 1008 0 l 1,42,-1
 1008 -51 l 1,39,-1
1008 1178 m 1,43,-1
 -16 1178 l 1,44,-1
 -16 1229 l 1,45,-1
 1008 1229 l 1,46,-1
 1008 1178 l 1,43,-1
1008 1587 m 1,47,-1
 -16 1587 l 1,48,-1
 -16 1638 l 1,49,-1
 1008 1638 l 1,50,-1
 1008 1587 l 1,47,-1
1008 358 m 1,51,-1
 -16 358 l 1,52,-1
 -16 410 l 1,53,-1
 1008 410 l 1,54,-1
 1008 358 l 1,51,-1
297 -819 m 1,55,-1
 564 -819 l 1,56,-1
 555 -795 l 2,57,58
 549 -774 549 -774 538 -755.5 c 128,-1,59
 527 -737 527 -737 512 -721 c 0,60,61
 490 -690 490 -690 461.5 -679 c 128,-1,62
 433 -668 433 -668 394 -668 c 1,63,64
 346 -674 346 -674 321.5 -698.5 c 128,-1,65
 297 -723 297 -723 297 -803 c 2,66,-1
 297 -819 l 1,55,-1
303 -870 m 1,67,68
 306 -874 306 -874 307 -877.5 c 128,-1,69
 308 -881 308 -881 312 -889 c 0,70,71
 320 -905 320 -905 329 -922.5 c 128,-1,72
 338 -940 338 -940 353 -956 c 0,73,74
 377 -989 377 -989 407 -1000.5 c 128,-1,75
 437 -1012 437 -1012 471 -1012 c 0,76,77
 531 -1006 531 -1006 551 -979 c 0,78,79
 570 -952 570 -952 570 -874 c 2,80,-1
 570 -870 l 1,81,-1
 303 -870 l 1,67,68
EndSplineSet
Validated: 1
EndChar

StartChar: q
Encoding: 113 113 81
Width: 992
GlyphClass: 1
Flags: W
LayerCount: 2
Fore
SplineSet
1008 -412 m 1,0,-1
 1008 -461 l 1,1,-1
 629 -461 l 1,2,3
 678 -479 678 -479 719 -514 c 1,4,5
 783 -559 783 -559 783 -641 c 0,6,7
 783 -713 783 -713 727 -762 c 0,8,9
 674 -809 674 -809 592 -834 c 0,10,11
 551 -846 551 -846 512 -851 c 128,-1,12
 473 -856 473 -856 439 -856 c 0,13,14
 367 -856 367 -856 287 -836.5 c 128,-1,15
 207 -817 207 -817 148 -768 c 0,16,17
 86 -719 86 -719 86 -641 c 256,18,19
 86 -563 86 -563 148 -514 c 0,20,21
 193 -475 193 -475 236 -461 c 1,22,-1
 -118 -461 l 1,23,-1
 -118 -412 l 1,24,-1
 1008 -412 l 1,0,-1
297 -604 m 0,25,26
 297 -635 297 -635 299 -648.5 c 128,-1,27
 301 -662 301 -662 312 -690 c 0,28,29
 320 -707 320 -707 329 -724 c 128,-1,30
 338 -741 338 -741 353 -758 c 0,31,32
 377 -791 377 -791 408 -802 c 128,-1,33
 439 -813 439 -813 473 -813 c 0,34,35
 531 -807 531 -807 549 -782 c 0,36,37
 559 -768 559 -768 564.5 -742.5 c 128,-1,38
 570 -717 570 -717 570 -676 c 0,39,40
 570 -655 570 -655 566 -634.5 c 128,-1,41
 562 -614 562 -614 555 -596 c 0,42,43
 549 -575 549 -575 538 -557 c 128,-1,44
 527 -539 527 -539 512 -522 c 0,45,46
 465 -461 465 -461 390 -461 c 1,47,48
 342 -467 342 -467 319.5 -495.5 c 128,-1,49
 297 -524 297 -524 297 -604 c 0,25,26
1008 410 m 1,50,-1
 1008 358 l 1,51,-1
 -16 358 l 1,52,-1
 -16 410 l 1,53,-1
 1008 410 l 1,50,-1
1008 1638 m 1,54,-1
 1008 1587 l 1,55,-1
 -16 1587 l 1,56,-1
 -16 1638 l 1,57,-1
 1008 1638 l 1,54,-1
1008 1229 m 1,58,-1
 1008 1178 l 1,59,-1
 -16 1178 l 1,60,-1
 -16 1229 l 1,61,-1
 1008 1229 l 1,58,-1
1008 819 m 1,62,-1
 1008 768 l 1,63,-1
 -16 768 l 1,64,-1
 -16 819 l 1,65,-1
 1008 819 l 1,62,-1
1008 0 m 1,66,-1
 1008 -51 l 1,67,-1
 -16 -51 l 1,68,-1
 -16 0 l 1,69,-1
 1008 0 l 1,66,-1
EndSplineSet
Validated: 1
EndChar

StartChar: r
Encoding: 114 114 82
Width: 992
GlyphClass: 1
Flags: W
LayerCount: 2
Fore
SplineSet
1008 -461 m 1,0,-1
 781 -461 l 1,1,2
 770 -520 770 -520 727 -557 c 0,3,4
 674 -604 674 -604 592 -629 c 0,5,6
 551 -641 551 -641 512 -646 c 128,-1,7
 473 -651 473 -651 439 -651 c 0,8,9
 367 -651 367 -651 287 -631.5 c 128,-1,10
 207 -612 207 -612 148 -563 c 0,11,12
 97 -520 97 -520 86 -461 c 1,13,-1
 -118 -461 l 1,14,-1
 -118 -410 l 1,15,-1
 88 -410 l 1,16,17
 99 -344 99 -344 148 -309 c 1,18,19
 205 -260 205 -260 281 -242 c 0,20,21
 312 -231 312 -231 352 -226 c 128,-1,22
 392 -221 392 -221 426 -221 c 0,23,24
 531 -221 531 -221 578 -242 c 1,25,26
 658 -258 658 -258 719 -309 c 1,27,28
 772 -346 772 -346 781 -410 c 1,29,-1
 1008 -410 l 1,30,-1
 1008 -461 l 1,0,-1
1008 1587 m 1,31,-1
 -16 1587 l 1,32,-1
 -16 1638 l 1,33,-1
 1008 1638 l 1,34,-1
 1008 1587 l 1,31,-1
1008 1178 m 1,35,-1
 -16 1178 l 1,36,-1
 -16 1229 l 1,37,-1
 1008 1229 l 1,38,-1
 1008 1178 l 1,35,-1
1008 -51 m 1,39,-1
 -16 -51 l 1,40,-1
 -16 0 l 1,41,-1
 1008 0 l 1,42,-1
 1008 -51 l 1,39,-1
1008 358 m 1,43,-1
 -16 358 l 1,44,-1
 -16 410 l 1,45,-1
 1008 410 l 1,46,-1
 1008 358 l 1,43,-1
1008 768 m 1,47,-1
 -16 768 l 1,48,-1
 -16 819 l 1,49,-1
 1008 819 l 1,50,-1
 1008 768 l 1,47,-1
301 -461 m 1,51,52
 303 -465 303 -465 305.5 -471 c 128,-1,53
 308 -477 308 -477 312 -485 c 0,54,55
 320 -502 320 -502 329 -519.5 c 128,-1,56
 338 -537 338 -537 353 -553 c 0,57,58
 377 -586 377 -586 408 -597 c 128,-1,59
 439 -608 439 -608 473 -608 c 0,60,61
 529 -602 529 -602 551 -573 c 0,62,63
 562 -559 562 -559 566 -535.5 c 128,-1,64
 570 -512 570 -512 570 -471 c 2,65,-1
 570 -461 l 1,66,-1
 301 -461 l 1,51,52
297 -410 m 1,67,-1
 562 -410 l 1,68,-1
 555 -391 l 2,69,70
 549 -371 549 -371 538 -352.5 c 128,-1,71
 527 -334 527 -334 512 -317 c 0,72,73
 490 -287 490 -287 461.5 -275.5 c 128,-1,74
 433 -264 433 -264 394 -264 c 1,75,76
 346 -270 346 -270 321.5 -294.5 c 128,-1,77
 297 -319 297 -319 297 -399 c 2,78,-1
 297 -410 l 1,67,-1
EndSplineSet
Validated: 1
EndChar

StartChar: s
Encoding: 115 115 83
Width: 992
GlyphClass: 1
Flags: W
LayerCount: 2
Fore
SplineSet
86 -231 m 0,0,1
 86 -154 86 -154 148 -104 c 0,2,3
 193 -66 193 -66 236 -51 c 1,4,-1
 -16 -51 l 1,5,-1
 -16 0 l 1,6,-1
 1008 0 l 1,7,-1
 1008 -51 l 1,8,-1
 629 -51 l 1,9,10
 678 -70 678 -70 719 -104 c 0,11,12
 783 -150 783 -150 783 -231 c 0,13,14
 783 -303 783 -303 727 -352 c 0,15,16
 674 -399 674 -399 592 -424 c 0,17,18
 551 -436 551 -436 512 -441 c 128,-1,19
 473 -446 473 -446 439 -446 c 0,20,21
 367 -446 367 -446 287 -427 c 128,-1,22
 207 -408 207 -408 148 -358 c 0,23,24
 86 -309 86 -309 86 -231 c 0,0,1
297 -195 m 0,25,26
 297 -225 297 -225 299 -238.5 c 128,-1,27
 301 -252 301 -252 312 -281 c 0,28,29
 320 -297 320 -297 329 -314.5 c 128,-1,30
 338 -332 338 -332 353 -348 c 0,31,32
 377 -381 377 -381 409 -392 c 128,-1,33
 441 -403 441 -403 476 -403 c 1,34,35
 504 -399 504 -399 521.5 -388 c 128,-1,36
 539 -377 539 -377 549 -362.5 c 128,-1,37
 559 -348 559 -348 564.5 -327.5 c 128,-1,38
 570 -307 570 -307 570 -266 c 0,39,40
 570 -246 570 -246 566 -225.5 c 128,-1,41
 562 -205 562 -205 555 -186 c 0,42,43
 549 -166 549 -166 538 -147.5 c 128,-1,44
 527 -129 527 -129 512 -113 c 0,45,46
 465 -51 465 -51 390 -51 c 1,47,48
 342 -57 342 -57 319.5 -86 c 128,-1,49
 297 -115 297 -115 297 -195 c 0,25,26
1008 358 m 1,50,-1
 -16 358 l 1,51,-1
 -16 410 l 1,52,-1
 1008 410 l 1,53,-1
 1008 358 l 1,50,-1
1008 1587 m 1,54,-1
 -16 1587 l 1,55,-1
 -16 1638 l 1,56,-1
 1008 1638 l 1,57,-1
 1008 1587 l 1,54,-1
1008 1178 m 1,58,-1
 -16 1178 l 1,59,-1
 -16 1229 l 1,60,-1
 1008 1229 l 1,61,-1
 1008 1178 l 1,58,-1
1008 768 m 1,62,-1
 -16 768 l 1,63,-1
 -16 819 l 1,64,-1
 1008 819 l 1,65,-1
 1008 768 l 1,62,-1
EndSplineSet
Validated: 1
EndChar

StartChar: t
Encoding: 116 116 84
Width: 992
GlyphClass: 1
Flags: W
LayerCount: 2
Fore
SplineSet
1008 -51 m 1,0,-1
 781 -51 l 1,1,2
 770 -109 770 -109 727 -141 c 1,3,4
 674 -188 674 -188 592 -213 c 0,5,6
 551 -225 551 -225 512 -230.5 c 128,-1,7
 473 -236 473 -236 439 -236 c 0,8,9
 367 -236 367 -236 287 -216.5 c 128,-1,10
 207 -197 207 -197 148 -147 c 0,11,12
 97 -104 97 -104 86 -51 c 1,13,-1
 -16 -51 l 1,14,-1
 -16 0 l 1,15,-1
 88 0 l 1,16,17
 99 66 99 66 148 100 c 1,18,19
 207 150 207 150 281 168 c 0,20,21
 312 178 312 178 352 183 c 128,-1,22
 392 188 392 188 426 188 c 0,23,24
 529 188 529 188 578 168 c 1,25,26
 658 152 658 152 719 100 c 0,27,28
 770 61 770 61 781 0 c 1,29,-1
 1008 0 l 1,30,-1
 1008 -51 l 1,0,-1
1008 358 m 1,31,-1
 -16 358 l 1,32,-1
 -16 410 l 1,33,-1
 1008 410 l 1,34,-1
 1008 358 l 1,31,-1
1008 1178 m 1,35,-1
 -16 1178 l 1,36,-1
 -16 1229 l 1,37,-1
 1008 1229 l 1,38,-1
 1008 1178 l 1,35,-1
1008 1587 m 1,39,-1
 -16 1587 l 1,40,-1
 -16 1638 l 1,41,-1
 1008 1638 l 1,42,-1
 1008 1587 l 1,39,-1
1008 768 m 1,43,-1
 -16 768 l 1,44,-1
 -16 819 l 1,45,-1
 1008 819 l 1,46,-1
 1008 768 l 1,43,-1
297 0 m 1,47,-1
 562 0 l 1,48,-1
 555 18 l 2,49,50
 549 39 549 39 538 57.5 c 128,-1,51
 527 76 527 76 512 92 c 0,52,53
 490 123 490 123 461.5 134 c 128,-1,54
 433 145 433 145 394 145 c 1,55,56
 346 139 346 139 321.5 114.5 c 128,-1,57
 297 90 297 90 297 10 c 2,58,-1
 297 0 l 1,47,-1
303 -51 m 1,59,60
 306 -55 306 -55 307 -58 c 128,-1,61
 308 -61 308 -61 312 -70 c 0,62,63
 320 -86 320 -86 329 -103.5 c 128,-1,64
 338 -121 338 -121 353 -137 c 0,65,66
 377 -170 377 -170 407 -181.5 c 128,-1,67
 437 -193 437 -193 471 -193 c 1,68,69
 523 -186 523 -186 545 -158 c 0,70,71
 555 -143 555 -143 562.5 -119.5 c 128,-1,72
 570 -96 570 -96 570 -55 c 2,73,-1
 570 -51 l 1,74,-1
 303 -51 l 1,59,60
EndSplineSet
Validated: 1
EndChar

StartChar: u
Encoding: 117 117 85
Width: 992
GlyphClass: 1
Flags: W
LayerCount: 2
Fore
SplineSet
1008 358 m 1,0,-1
 629 358 l 1,1,2
 654 348 654 348 675.5 335 c 128,-1,3
 697 322 697 322 719 305 c 0,4,5
 783 260 783 260 783 178 c 0,6,7
 783 106 783 106 727 57 c 0,8,9
 707 41 707 41 684.5 25.5 c 128,-1,10
 662 10 662 10 633 0 c 1,11,-1
 1008 0 l 1,12,-1
 1008 -51 l 1,13,-1
 -16 -51 l 1,14,-1
 -16 0 l 1,15,-1
 234 0 l 1,16,17
 211 10 211 10 188.5 22.5 c 128,-1,18
 166 35 166 35 148 51 c 0,19,20
 86 100 86 100 86 178 c 256,21,22
 86 256 86 256 148 305 c 0,23,24
 168 322 168 322 190.5 335 c 128,-1,25
 213 348 213 348 236 358 c 1,26,-1
 -16 358 l 1,27,-1
 -16 410 l 1,28,-1
 1008 410 l 1,29,-1
 1008 358 l 1,0,-1
297 215 m 0,30,31
 297 184 297 184 299 171 c 128,-1,32
 301 158 301 158 312 129 c 0,33,34
 320 113 320 113 329 95.5 c 128,-1,35
 338 78 338 78 353 61 c 0,36,37
 392 8 392 8 445 0 c 1,38,-1
 490 0 l 1,39,40
 510 4 510 4 524.5 15.5 c 128,-1,41
 539 27 539 27 549 41 c 128,-1,42
 559 55 559 55 564.5 78.5 c 128,-1,43
 570 102 570 102 570 143 c 0,44,45
 570 164 570 164 566 184.5 c 128,-1,46
 562 205 562 205 555 223 c 0,47,48
 549 244 549 244 538 262.5 c 128,-1,49
 527 281 527 281 512 297 c 0,50,51
 465 358 465 358 390 358 c 1,52,53
 342 352 342 352 319.5 323.5 c 128,-1,54
 297 295 297 295 297 215 c 0,30,31
1008 1587 m 1,55,-1
 -16 1587 l 1,56,-1
 -16 1638 l 1,57,-1
 1008 1638 l 1,58,-1
 1008 1587 l 1,55,-1
1008 768 m 1,59,-1
 -16 768 l 1,60,-1
 -16 819 l 1,61,-1
 1008 819 l 1,62,-1
 1008 768 l 1,59,-1
1008 1178 m 1,63,-1
 -16 1178 l 1,64,-1
 -16 1229 l 1,65,-1
 1008 1229 l 1,66,-1
 1008 1178 l 1,63,-1
EndSplineSet
Validated: 1
EndChar

StartChar: v
Encoding: 118 118 86
Width: 992
GlyphClass: 1
Flags: W
LayerCount: 2
Fore
SplineSet
1008 358 m 1,0,-1
 781 358 l 1,1,2
 770 299 770 299 727 262 c 0,3,4
 674 215 674 215 592 190 c 0,5,6
 551 178 551 178 512 173 c 128,-1,7
 473 168 473 168 439 168 c 0,8,9
 367 168 367 168 287 187.5 c 128,-1,10
 207 207 207 207 148 256 c 0,11,12
 95 297 95 297 86 358 c 1,13,-1
 -16 358 l 1,14,-1
 -16 410 l 1,15,-1
 88 410 l 1,16,17
 99 475 99 475 148 510 c 1,18,19
 207 559 207 559 281 578 c 0,20,21
 312 588 312 588 352 593 c 128,-1,22
 392 598 392 598 426 598 c 0,23,24
 529 598 529 598 578 578 c 1,25,26
 658 561 658 561 719 510 c 0,27,28
 770 471 770 471 781 410 c 1,29,-1
 1008 410 l 1,30,-1
 1008 358 l 1,0,-1
1008 1178 m 1,31,-1
 -16 1178 l 1,32,-1
 -16 1229 l 1,33,-1
 1008 1229 l 1,34,-1
 1008 1178 l 1,31,-1
1008 1587 m 1,35,-1
 -16 1587 l 1,36,-1
 -16 1638 l 1,37,-1
 1008 1638 l 1,38,-1
 1008 1587 l 1,35,-1
1008 -51 m 1,39,-1
 -16 -51 l 1,40,-1
 -16 0 l 1,41,-1
 1008 0 l 1,42,-1
 1008 -51 l 1,39,-1
1008 768 m 1,43,-1
 -16 768 l 1,44,-1
 -16 819 l 1,45,-1
 1008 819 l 1,46,-1
 1008 768 l 1,43,-1
301 358 m 1,47,48
 306 346 306 346 320 317.5 c 128,-1,49
 334 289 334 289 353 266 c 0,50,51
 377 233 377 233 406 222 c 128,-1,52
 435 211 435 211 469 211 c 1,53,54
 498 215 498 215 518.5 225.5 c 128,-1,55
 539 236 539 236 549 250 c 128,-1,56
 559 264 559 264 564.5 285.5 c 128,-1,57
 570 307 570 307 570 348 c 2,58,-1
 570 358 l 1,59,-1
 301 358 l 1,47,48
297 410 m 1,60,-1
 562 410 l 1,61,-1
 555 428 l 2,62,63
 549 449 549 449 538 467 c 128,-1,64
 527 485 527 485 512 502 c 0,65,66
 490 532 490 532 461.5 543.5 c 128,-1,67
 433 555 433 555 394 555 c 1,68,69
 346 549 346 549 321.5 524.5 c 128,-1,70
 297 500 297 500 297 420 c 2,71,-1
 297 410 l 1,60,-1
EndSplineSet
Validated: 1
EndChar

StartChar: w
Encoding: 119 119 87
Width: 992
GlyphClass: 1
Flags: W
LayerCount: 2
Fore
SplineSet
1008 768 m 1,0,-1
 629 768 l 1,1,2
 654 758 654 758 675.5 744.5 c 128,-1,3
 697 731 697 731 719 715 c 0,4,5
 783 670 783 670 783 588 c 0,6,7
 783 516 783 516 727 467 c 0,8,9
 707 451 707 451 684.5 435.5 c 128,-1,10
 662 420 662 420 633 410 c 1,11,-1
 1008 410 l 1,12,-1
 1008 358 l 1,13,-1
 -16 358 l 1,14,-1
 -16 410 l 1,15,-1
 234 410 l 1,16,17
 211 420 211 420 188.5 432 c 128,-1,18
 166 444 166 444 148 461 c 0,19,20
 86 510 86 510 86 588 c 256,21,22
 86 666 86 666 148 715 c 0,23,24
 168 731 168 731 190.5 744.5 c 128,-1,25
 213 758 213 758 236 768 c 1,26,-1
 -16 768 l 1,27,-1
 -16 819 l 1,28,-1
 1008 819 l 1,29,-1
 1008 768 l 1,0,-1
297 625 m 0,30,31
 297 594 297 594 299 580.5 c 128,-1,32
 301 567 301 567 312 539 c 0,33,34
 320 522 320 522 329 504.5 c 128,-1,35
 338 487 338 487 353 471 c 0,36,37
 392 418 392 418 445 410 c 1,38,-1
 490 410 l 1,39,40
 529 416 529 416 551 444 c 0,41,42
 570 471 570 471 570 553 c 0,43,44
 570 573 570 573 566 593.5 c 128,-1,45
 562 614 562 614 555 633 c 0,46,47
 549 653 549 653 538 671.5 c 128,-1,48
 527 690 527 690 512 707 c 0,49,50
 465 768 465 768 390 768 c 1,51,52
 342 762 342 762 319.5 733.5 c 128,-1,53
 297 705 297 705 297 625 c 0,30,31
1008 1587 m 1,54,-1
 -16 1587 l 1,55,-1
 -16 1638 l 1,56,-1
 1008 1638 l 1,57,-1
 1008 1587 l 1,54,-1
1008 1178 m 1,58,-1
 -16 1178 l 1,59,-1
 -16 1229 l 1,60,-1
 1008 1229 l 1,61,-1
 1008 1178 l 1,58,-1
1008 -51 m 1,62,-1
 -16 -51 l 1,63,-1
 -16 0 l 1,64,-1
 1008 0 l 1,65,-1
 1008 -51 l 1,62,-1
EndSplineSet
Validated: 1
EndChar

StartChar: x
Encoding: 120 120 88
Width: 992
GlyphClass: 1
Flags: W
LayerCount: 2
Fore
SplineSet
1008 768 m 1,0,-1
 781 768 l 1,1,2
 770 709 770 709 727 672 c 0,3,4
 674 625 674 625 592 600 c 0,5,6
 551 588 551 588 512 583 c 128,-1,7
 473 578 473 578 439 578 c 0,8,9
 367 578 367 578 287 597 c 128,-1,10
 207 616 207 616 148 666 c 0,11,12
 95 707 95 707 86 768 c 1,13,-1
 -16 768 l 1,14,-1
 -16 819 l 1,15,-1
 88 819 l 1,16,17
 99 885 99 885 148 920 c 1,18,19
 207 969 207 969 281 987 c 0,20,21
 312 997 312 997 352 1002.5 c 128,-1,22
 392 1008 392 1008 426 1008 c 0,23,24
 529 1008 529 1008 578 987 c 1,25,26
 658 971 658 971 719 920 c 0,27,28
 770 881 770 881 781 819 c 1,29,-1
 1008 819 l 1,30,-1
 1008 768 l 1,0,-1
1008 358 m 1,31,-1
 -16 358 l 1,32,-1
 -16 410 l 1,33,-1
 1008 410 l 1,34,-1
 1008 358 l 1,31,-1
1008 1178 m 1,35,-1
 -16 1178 l 1,36,-1
 -16 1229 l 1,37,-1
 1008 1229 l 1,38,-1
 1008 1178 l 1,35,-1
1008 -51 m 1,39,-1
 -16 -51 l 1,40,-1
 -16 0 l 1,41,-1
 1008 0 l 1,42,-1
 1008 -51 l 1,39,-1
1008 1587 m 1,43,-1
 -16 1587 l 1,44,-1
 -16 1638 l 1,45,-1
 1008 1638 l 1,46,-1
 1008 1587 l 1,43,-1
301 768 m 1,47,48
 306 756 306 756 320 727 c 128,-1,49
 334 698 334 698 353 676 c 0,50,51
 377 643 377 643 407 632 c 128,-1,52
 437 621 437 621 471 621 c 0,53,54
 529 627 529 627 549 653 c 0,55,56
 559 668 559 668 564.5 692.5 c 128,-1,57
 570 717 570 717 570 758 c 2,58,-1
 570 768 l 1,59,-1
 301 768 l 1,47,48
297 819 m 1,60,-1
 562 819 l 1,61,-1
 555 838 l 2,62,63
 549 858 549 858 538 876.5 c 128,-1,64
 527 895 527 895 512 911 c 0,65,66
 490 942 490 942 461.5 953.5 c 128,-1,67
 433 965 433 965 394 965 c 1,68,69
 346 958 346 958 321.5 933.5 c 128,-1,70
 297 909 297 909 297 829 c 2,71,-1
 297 819 l 1,60,-1
EndSplineSet
Validated: 1
EndChar

StartChar: y
Encoding: 121 121 89
Width: 992
GlyphClass: 1
Flags: W
LayerCount: 2
Fore
SplineSet
1008 1178 m 1,0,-1
 629 1178 l 1,1,2
 654 1167 654 1167 675.5 1154 c 128,-1,3
 697 1141 697 1141 719 1124 c 0,4,5
 783 1079 783 1079 783 997 c 0,6,7
 783 926 783 926 727 877 c 0,8,9
 707 860 707 860 684.5 844.5 c 128,-1,10
 662 829 662 829 633 819 c 1,11,-1
 1008 819 l 1,12,-1
 1008 768 l 1,13,-1
 -16 768 l 1,14,-1
 -16 819 l 1,15,-1
 234 819 l 1,16,17
 211 829 211 829 188.5 841.5 c 128,-1,18
 166 854 166 854 148 870 c 0,19,20
 86 920 86 920 86 997 c 0,21,22
 86 1075 86 1075 148 1124 c 0,23,24
 168 1141 168 1141 190.5 1154 c 128,-1,25
 213 1167 213 1167 236 1178 c 1,26,-1
 -16 1178 l 1,27,-1
 -16 1229 l 1,28,-1
 1008 1229 l 1,29,-1
 1008 1178 l 1,0,-1
297 1034 m 0,30,31
 297 1004 297 1004 299 990.5 c 128,-1,32
 301 977 301 977 312 948 c 0,33,34
 320 932 320 932 329 914.5 c 128,-1,35
 338 897 338 897 353 881 c 0,36,37
 392 827 392 827 445 819 c 1,38,-1
 490 819 l 1,39,40
 510 823 510 823 525.5 834.5 c 128,-1,41
 541 846 541 846 551.5 860 c 128,-1,42
 562 874 562 874 566 898 c 128,-1,43
 570 922 570 922 570 963 c 0,44,45
 570 983 570 983 566 1003.5 c 128,-1,46
 562 1024 562 1024 555 1042 c 0,47,48
 549 1063 549 1063 538 1081.5 c 128,-1,49
 527 1100 527 1100 512 1116 c 0,50,51
 465 1178 465 1178 390 1178 c 1,52,53
 342 1171 342 1171 319.5 1142.5 c 128,-1,54
 297 1114 297 1114 297 1034 c 0,30,31
1008 1587 m 1,55,-1
 -16 1587 l 1,56,-1
 -16 1638 l 1,57,-1
 1008 1638 l 1,58,-1
 1008 1587 l 1,55,-1
1008 358 m 1,59,-1
 -16 358 l 1,60,-1
 -16 410 l 1,61,-1
 1008 410 l 1,62,-1
 1008 358 l 1,59,-1
1008 -51 m 1,63,-1
 -16 -51 l 1,64,-1
 -16 0 l 1,65,-1
 1008 0 l 1,66,-1
 1008 -51 l 1,63,-1
EndSplineSet
Validated: 1
EndChar

StartChar: z
Encoding: 122 122 90
Width: 992
GlyphClass: 1
Flags: W
LayerCount: 2
Fore
SplineSet
1008 1178 m 1,0,-1
 781 1178 l 1,1,2
 770 1118 770 1118 727 1081 c 0,3,4
 674 1034 674 1034 592 1010 c 0,5,6
 551 997 551 997 512 992 c 128,-1,7
 473 987 473 987 439 987 c 0,8,9
 367 987 367 987 287 1006.5 c 128,-1,10
 207 1026 207 1026 148 1075 c 0,11,12
 95 1116 95 1116 86 1178 c 1,13,-1
 -16 1178 l 1,14,-1
 -16 1229 l 1,15,-1
 88 1229 l 1,16,17
 99 1294 99 1294 148 1329 c 1,18,19
 207 1378 207 1378 281 1397 c 0,20,21
 312 1407 312 1407 352 1412 c 128,-1,22
 392 1417 392 1417 426 1417 c 0,23,24
 529 1417 529 1417 578 1397 c 1,25,26
 658 1380 658 1380 719 1329 c 0,27,28
 770 1290 770 1290 781 1229 c 1,29,-1
 1008 1229 l 1,30,-1
 1008 1178 l 1,0,-1
1008 358 m 1,31,-1
 -16 358 l 1,32,-1
 -16 410 l 1,33,-1
 1008 410 l 1,34,-1
 1008 358 l 1,31,-1
1008 1587 m 1,35,-1
 -16 1587 l 1,36,-1
 -16 1638 l 1,37,-1
 1008 1638 l 1,38,-1
 1008 1587 l 1,35,-1
1008 -51 m 1,39,-1
 -16 -51 l 1,40,-1
 -16 0 l 1,41,-1
 1008 0 l 1,42,-1
 1008 -51 l 1,39,-1
1008 768 m 1,43,-1
 -16 768 l 1,44,-1
 -16 819 l 1,45,-1
 1008 819 l 1,46,-1
 1008 768 l 1,43,-1
301 1178 m 1,47,48
 306 1165 306 1165 320 1136.5 c 128,-1,49
 334 1108 334 1108 353 1085 c 0,50,51
 377 1053 377 1053 407 1041.5 c 128,-1,52
 437 1030 437 1030 471 1030 c 0,53,54
 523 1036 523 1036 547 1067 c 0,55,56
 557 1081 557 1081 563.5 1103.5 c 128,-1,57
 570 1126 570 1126 570 1167 c 2,58,-1
 570 1178 l 1,59,-1
 301 1178 l 1,47,48
297 1229 m 1,60,-1
 562 1229 l 1,61,-1
 555 1247 l 2,62,63
 549 1268 549 1268 538 1286.5 c 128,-1,64
 527 1305 527 1305 512 1321 c 0,65,66
 490 1352 490 1352 461.5 1363 c 128,-1,67
 433 1374 433 1374 394 1374 c 1,68,69
 346 1368 346 1368 321.5 1343.5 c 128,-1,70
 297 1319 297 1319 297 1239 c 2,71,-1
 297 1229 l 1,60,-1
EndSplineSet
Validated: 1
EndChar

StartChar: braceleft
Encoding: 123 123 91
Width: 992
GlyphClass: 1
Flags: W
LayerCount: 2
Fore
SplineSet
1008 1587 m 1,0,-1
 629 1587 l 1,1,2
 654 1577 654 1577 675.5 1563.5 c 128,-1,3
 697 1550 697 1550 719 1534 c 0,4,5
 783 1489 783 1489 783 1407 c 0,6,7
 783 1335 783 1335 727 1286 c 0,8,9
 707 1270 707 1270 684.5 1254.5 c 128,-1,10
 662 1239 662 1239 633 1229 c 1,11,-1
 1008 1229 l 1,12,-1
 1008 1178 l 1,13,-1
 -16 1178 l 1,14,-1
 -16 1229 l 1,15,-1
 234 1229 l 1,16,17
 211 1239 211 1239 188.5 1251.5 c 128,-1,18
 166 1264 166 1264 148 1280 c 0,19,20
 86 1329 86 1329 86 1407 c 256,21,22
 86 1485 86 1485 148 1534 c 0,23,24
 168 1550 168 1550 190.5 1563.5 c 128,-1,25
 213 1577 213 1577 236 1587 c 1,26,-1
 -16 1587 l 1,27,-1
 -16 1638 l 1,28,-1
 1008 1638 l 1,29,-1
 1008 1587 l 1,0,-1
297 1444 m 0,30,31
 297 1413 297 1413 299 1399.5 c 128,-1,32
 301 1386 301 1386 312 1358 c 0,33,34
 320 1341 320 1341 329 1324 c 128,-1,35
 338 1307 338 1307 353 1290 c 0,36,37
 392 1237 392 1237 445 1229 c 1,38,-1
 490 1229 l 1,39,40
 510 1233 510 1233 525.5 1243 c 128,-1,41
 541 1253 541 1253 551 1268 c 0,42,43
 570 1294 570 1294 570 1372 c 0,44,45
 570 1393 570 1393 566 1413.5 c 128,-1,46
 562 1434 562 1434 555 1452 c 0,47,48
 549 1473 549 1473 538 1491 c 128,-1,49
 527 1509 527 1509 512 1526 c 0,50,51
 465 1587 465 1587 390 1587 c 1,52,53
 342 1581 342 1581 319.5 1552.5 c 128,-1,54
 297 1524 297 1524 297 1444 c 0,30,31
1008 358 m 1,55,-1
 -16 358 l 1,56,-1
 -16 410 l 1,57,-1
 1008 410 l 1,58,-1
 1008 358 l 1,55,-1
1008 768 m 1,59,-1
 -16 768 l 1,60,-1
 -16 819 l 1,61,-1
 1008 819 l 1,62,-1
 1008 768 l 1,59,-1
1008 -51 m 1,63,-1
 -16 -51 l 1,64,-1
 -16 0 l 1,65,-1
 1008 0 l 1,66,-1
 1008 -51 l 1,63,-1
EndSplineSet
Validated: 1
EndChar

StartChar: bar
Encoding: 124 124 92
Width: 992
GlyphClass: 1
Flags: W
LayerCount: 2
Fore
SplineSet
1008 1587 m 1,0,-1
 781 1587 l 1,1,2
 770 1528 770 1528 727 1491 c 0,3,4
 674 1444 674 1444 592 1419 c 0,5,6
 551 1407 551 1407 512 1402 c 128,-1,7
 473 1397 473 1397 439 1397 c 0,8,9
 367 1397 367 1397 287 1416.5 c 128,-1,10
 207 1436 207 1436 148 1485 c 0,11,12
 95 1526 95 1526 86 1587 c 1,13,-1
 -16 1587 l 1,14,-1
 -16 1638 l 1,15,-1
 88 1638 l 1,16,17
 99 1704 99 1704 148 1739 c 1,18,19
 207 1788 207 1788 281 1806 c 0,20,21
 312 1817 312 1817 352 1822 c 128,-1,22
 392 1827 392 1827 426 1827 c 0,23,24
 529 1827 529 1827 578 1806 c 1,25,26
 658 1790 658 1790 719 1739 c 0,27,28
 770 1700 770 1700 781 1638 c 1,29,-1
 1008 1638 l 1,30,-1
 1008 1587 l 1,0,-1
1008 1178 m 1,31,-1
 -16 1178 l 1,32,-1
 -16 1229 l 1,33,-1
 1008 1229 l 1,34,-1
 1008 1178 l 1,31,-1
1008 358 m 1,35,-1
 -16 358 l 1,36,-1
 -16 410 l 1,37,-1
 1008 410 l 1,38,-1
 1008 358 l 1,35,-1
1008 -51 m 1,39,-1
 -16 -51 l 1,40,-1
 -16 0 l 1,41,-1
 1008 0 l 1,42,-1
 1008 -51 l 1,39,-1
1008 768 m 1,43,-1
 -16 768 l 1,44,-1
 -16 819 l 1,45,-1
 1008 819 l 1,46,-1
 1008 768 l 1,43,-1
301 1587 m 1,47,48
 306 1575 306 1575 320 1546.5 c 128,-1,49
 334 1518 334 1518 353 1495 c 0,50,51
 377 1462 377 1462 408 1451 c 128,-1,52
 439 1440 439 1440 473 1440 c 0,53,54
 525 1446 525 1446 545 1473 c 0,55,56
 555 1487 555 1487 562.5 1511.5 c 128,-1,57
 570 1536 570 1536 570 1577 c 2,58,-1
 570 1587 l 1,59,-1
 301 1587 l 1,47,48
297 1638 m 1,60,-1
 562 1638 l 1,61,-1
 555 1657 l 2,62,63
 549 1677 549 1677 538 1695.5 c 128,-1,64
 527 1714 527 1714 512 1731 c 0,65,66
 490 1761 490 1761 461.5 1773.5 c 128,-1,67
 433 1786 433 1786 394 1786 c 1,68,69
 346 1780 346 1780 321.5 1754.5 c 128,-1,70
 297 1729 297 1729 297 1649 c 2,71,-1
 297 1638 l 1,60,-1
EndSplineSet
Validated: 1
EndChar

StartChar: braceright
Encoding: 125 125 93
Width: 992
GlyphClass: 1
Flags: W
LayerCount: 2
Fore
SplineSet
86 1817 m 0,0,1
 86 1894 86 1894 148 1944 c 0,2,3
 207 1993 207 1993 281 2011 c 0,4,5
 312 2021 312 2021 352 2026.5 c 128,-1,6
 392 2032 392 2032 426 2032 c 0,7,8
 529 2032 529 2032 578 2011 c 1,9,10
 658 1995 658 1995 719 1944 c 1,11,12
 783 1898 783 1898 783 1817 c 0,13,14
 783 1745 783 1745 727 1696 c 0,15,16
 707 1679 707 1679 684.5 1664 c 128,-1,17
 662 1649 662 1649 633 1638 c 1,18,-1
 1008 1638 l 1,19,-1
 1008 1587 l 1,20,-1
 -16 1587 l 1,21,-1
 -16 1638 l 1,22,-1
 234 1638 l 1,23,24
 211 1649 211 1649 188.5 1661 c 128,-1,25
 166 1673 166 1673 148 1690 c 0,26,27
 86 1739 86 1739 86 1817 c 0,0,1
297 1853 m 0,28,29
 297 1823 297 1823 299 1809.5 c 128,-1,30
 301 1796 301 1796 312 1767 c 0,31,32
 320 1751 320 1751 329 1733.5 c 128,-1,33
 338 1716 338 1716 353 1700 c 0,34,35
 392 1647 392 1647 445 1638 c 1,36,-1
 490 1638 l 1,37,38
 531 1645 531 1645 551 1671 c 0,39,40
 570 1698 570 1698 570 1782 c 0,41,42
 570 1802 570 1802 566 1822.5 c 128,-1,43
 562 1843 562 1843 555 1862 c 0,44,45
 549 1882 549 1882 538 1900.5 c 128,-1,46
 527 1919 527 1919 512 1935 c 0,47,48
 490 1966 490 1966 461.5 1978.5 c 128,-1,49
 433 1991 433 1991 394 1991 c 1,50,51
 346 1985 346 1985 321.5 1959 c 128,-1,52
 297 1933 297 1933 297 1853 c 0,28,29
1008 358 m 1,53,-1
 -16 358 l 1,54,-1
 -16 410 l 1,55,-1
 1008 410 l 1,56,-1
 1008 358 l 1,53,-1
1008 1178 m 1,57,-1
 -16 1178 l 1,58,-1
 -16 1229 l 1,59,-1
 1008 1229 l 1,60,-1
 1008 1178 l 1,57,-1
1008 768 m 1,61,-1
 -16 768 l 1,62,-1
 -16 819 l 1,63,-1
 1008 819 l 1,64,-1
 1008 768 l 1,61,-1
1008 -51 m 1,65,-1
 -16 -51 l 1,66,-1
 -16 0 l 1,67,-1
 1008 0 l 1,68,-1
 1008 -51 l 1,65,-1
EndSplineSet
Validated: 1
EndChar

StartChar: asciitilde
Encoding: 126 126 94
Width: 992
GlyphClass: 1
Flags: W
LayerCount: 2
Fore
SplineSet
1008 1997 m 1,0,-1
 781 1997 l 1,1,2
 770 1937 770 1937 727 1901 c 0,3,4
 674 1853 674 1853 592 1829 c 0,5,6
 551 1817 551 1817 512 1811.5 c 128,-1,7
 473 1806 473 1806 439 1806 c 0,8,9
 367 1806 367 1806 287 1825.5 c 128,-1,10
 207 1845 207 1845 148 1894 c 0,11,12
 97 1933 97 1933 86 1997 c 1,13,-1
 -118 1997 l 1,14,-1
 -118 2048 l 1,15,-1
 88 2048 l 1,16,17
 99 2114 99 2114 148 2148 c 1,18,19
 205 2198 205 2198 281 2216 c 0,20,21
 312 2226 312 2226 352 2231 c 128,-1,22
 392 2236 392 2236 426 2236 c 0,23,24
 531 2236 531 2236 578 2216 c 1,25,26
 658 2200 658 2200 719 2148 c 0,27,28
 772 2107 772 2107 781 2048 c 1,29,-1
 1008 2048 l 1,30,-1
 1008 1997 l 1,0,-1
1008 1587 m 1,31,-1
 -16 1587 l 1,32,-1
 -16 1638 l 1,33,-1
 1008 1638 l 1,34,-1
 1008 1587 l 1,31,-1
1008 1178 m 1,35,-1
 -16 1178 l 1,36,-1
 -16 1229 l 1,37,-1
 1008 1229 l 1,38,-1
 1008 1178 l 1,35,-1
1008 -51 m 1,39,-1
 -16 -51 l 1,40,-1
 -16 0 l 1,41,-1
 1008 0 l 1,42,-1
 1008 -51 l 1,39,-1
1008 358 m 1,43,-1
 -16 358 l 1,44,-1
 -16 410 l 1,45,-1
 1008 410 l 1,46,-1
 1008 358 l 1,43,-1
1008 768 m 1,47,-1
 -16 768 l 1,48,-1
 -16 819 l 1,49,-1
 1008 819 l 1,50,-1
 1008 768 l 1,47,-1
301 1997 m 1,51,52
 306 1985 306 1985 320 1956 c 128,-1,53
 334 1927 334 1927 353 1905 c 0,54,55
 402 1841 402 1841 473 1841 c 1,56,57
 529 1847 529 1847 551 1876 c 0,58,59
 570 1903 570 1903 570 1987 c 2,60,-1
 570 1997 l 1,61,-1
 301 1997 l 1,51,52
297 2048 m 1,62,-1
 562 2048 l 1,63,-1
 555 2066 l 2,64,65
 549 2087 549 2087 538 2105.5 c 128,-1,66
 527 2124 527 2124 512 2140 c 0,67,68
 490 2171 490 2171 461.5 2183 c 128,-1,69
 433 2195 433 2195 394 2195 c 1,70,71
 346 2189 346 2189 321.5 2163.5 c 128,-1,72
 297 2138 297 2138 297 2058 c 2,73,-1
 297 2048 l 1,62,-1
EndSplineSet
Validated: 1
EndChar

StartChar: exclamdown
Encoding: 161 161 96
Width: 480
GlyphClass: 1
Flags: W
LayerCount: 2
Fore
SplineSet
496 1587 m 1,0,-1
 283 1587 l 1,1,-1
 283 1552 l 1,2,-1
 361 1567 l 1,3,-1
 361 1450 l 1,4,-1
 283 1438 l 1,5,-1
 283 1266 l 1,6,-1
 232 1266 l 1,7,-1
 232 1430 l 1,8,-1
 121 1409 l 1,9,-1
 121 1229 l 1,10,-1
 496 1229 l 1,11,-1
 496 1178 l 1,12,-1
 -16 1178 l 1,13,-1
 -16 1229 l 1,14,-1
 70 1229 l 1,15,-1
 70 1399 l 1,16,-1
 -16 1384 l 1,17,-1
 -16 1501 l 1,18,-1
 70 1516 l 1,19,-1
 70 1587 l 1,20,-1
 -16 1587 l 1,21,-1
 -16 1638 l 1,22,-1
 70 1638 l 1,23,-1
 70 1677 l 1,24,-1
 -16 1663 l 1,25,-1
 -16 1776 l 1,26,-1
 70 1790 l 1,27,-1
 70 1964 l 1,28,-1
 121 1964 l 1,29,-1
 121 1800 l 1,30,-1
 232 1819 l 1,31,-1
 232 2042 l 1,32,-1
 283 2042 l 1,33,-1
 283 1827 l 1,34,-1
 361 1841 l 1,35,-1
 361 1731 l 1,36,-1
 283 1716 l 1,37,-1
 283 1638 l 1,38,-1
 496 1638 l 1,39,-1
 496 1587 l 1,0,-1
496 358 m 1,40,-1
 -16 358 l 1,41,-1
 -16 410 l 1,42,-1
 496 410 l 1,43,-1
 496 358 l 1,40,-1
496 -51 m 1,44,-1
 -16 -51 l 1,45,-1
 -16 0 l 1,46,-1
 496 0 l 1,47,-1
 496 -51 l 1,44,-1
496 768 m 1,48,-1
 -16 768 l 1,49,-1
 -16 819 l 1,50,-1
 496 819 l 1,51,-1
 496 768 l 1,48,-1
232 1638 m 1,52,-1
 232 1706 l 1,53,-1
 121 1688 l 1,54,-1
 121 1638 l 1,55,-1
 232 1638 l 1,52,-1
232 1587 m 1,56,-1
 121 1587 l 1,57,-1
 121 1526 l 1,58,-1
 232 1544 l 1,59,-1
 232 1587 l 1,56,-1
EndSplineSet
Validated: 1
EndChar

StartChar: cent
Encoding: 162 162 97
Width: 992
GlyphClass: 1
Flags: W
LayerCount: 2
Fore
SplineSet
1008 1178 m 1,0,-1
 736 1178 l 1,1,-1
 736 1116 l 1,2,-1
 658 1102 l 1,3,-1
 658 938 l 1,4,-1
 736 952 l 1,5,-1
 736 836 l 1,6,-1
 658 823 l 1,7,-1
 658 819 l 1,8,-1
 1008 819 l 1,9,-1
 1008 768 l 1,10,-1
 658 768 l 1,11,-1
 658 651 l 1,12,-1
 607 651 l 1,13,-1
 607 768 l 1,14,-1
 496 768 l 1,15,-1
 496 578 l 1,16,-1
 445 578 l 1,17,-1
 445 768 l 1,18,-1
 -16 768 l 1,19,-1
 -16 819 l 1,20,-1
 359 819 l 1,21,-1
 359 887 l 1,22,-1
 445 901 l 1,23,-1
 445 1063 l 1,24,-1
 359 1049 l 1,25,-1
 359 1161 l 1,26,-1
 445 1176 l 1,27,-1
 445 1178 l 1,28,-1
 -16 1178 l 1,29,-1
 -16 1229 l 1,30,-1
 70 1229 l 1,31,-1
 70 1399 l 1,32,-1
 -16 1384 l 1,33,-1
 -16 1501 l 1,34,-1
 70 1516 l 1,35,-1
 70 1587 l 1,36,-1
 -16 1587 l 1,37,-1
 -16 1638 l 1,38,-1
 70 1638 l 1,39,-1
 70 1677 l 1,40,-1
 -16 1663 l 1,41,-1
 -16 1776 l 1,42,-1
 70 1790 l 1,43,-1
 70 1964 l 1,44,-1
 121 1964 l 1,45,-1
 121 1800 l 1,46,-1
 232 1819 l 1,47,-1
 232 2042 l 1,48,-1
 283 2042 l 1,49,-1
 283 1827 l 1,50,-1
 361 1841 l 1,51,-1
 361 1731 l 1,52,-1
 283 1716 l 1,53,-1
 283 1638 l 1,54,-1
 1008 1638 l 1,55,-1
 1008 1587 l 1,56,-1
 283 1587 l 1,57,-1
 283 1552 l 1,58,-1
 361 1567 l 1,59,-1
 361 1450 l 1,60,-1
 283 1438 l 1,61,-1
 283 1266 l 1,62,-1
 232 1266 l 1,63,-1
 232 1430 l 1,64,-1
 121 1409 l 1,65,-1
 121 1229 l 1,66,-1
 445 1229 l 1,67,-1
 445 1350 l 1,68,-1
 496 1350 l 1,69,-1
 496 1229 l 1,70,-1
 607 1229 l 1,71,-1
 607 1427 l 1,72,-1
 658 1427 l 1,73,-1
 658 1229 l 1,74,-1
 1008 1229 l 1,75,-1
 1008 1178 l 1,0,-1
1008 358 m 1,76,-1
 -16 358 l 1,77,-1
 -16 410 l 1,78,-1
 1008 410 l 1,79,-1
 1008 358 l 1,76,-1
1008 -51 m 1,80,-1
 -16 -51 l 1,81,-1
 -16 0 l 1,82,-1
 1008 0 l 1,83,-1
 1008 -51 l 1,80,-1
607 1092 m 1,84,-1
 496 1073 l 1,85,-1
 496 911 l 1,86,-1
 607 930 l 1,87,-1
 607 1092 l 1,84,-1
232 1638 m 1,88,-1
 232 1706 l 1,89,-1
 121 1688 l 1,90,-1
 121 1638 l 1,91,-1
 232 1638 l 1,88,-1
232 1587 m 1,92,-1
 121 1587 l 1,93,-1
 121 1526 l 1,94,-1
 232 1544 l 1,95,-1
 232 1587 l 1,92,-1
EndSplineSet
Validated: 1
EndChar

StartChar: sterling
Encoding: 163 163 98
Width: 1504
GlyphClass: 1
Flags: W
LayerCount: 2
Fore
SplineSet
1520 1178 m 1,0,-1
 736 1178 l 1,1,-1
 736 1116 l 1,2,-1
 658 1102 l 1,3,-1
 658 938 l 1,4,-1
 736 952 l 1,5,-1
 736 836 l 1,6,-1
 658 823 l 1,7,-1
 658 819 l 1,8,-1
 1520 819 l 1,9,-1
 1520 768 l 1,10,-1
 658 768 l 1,11,-1
 658 651 l 1,12,-1
 607 651 l 1,13,-1
 607 768 l 1,14,-1
 496 768 l 1,15,-1
 496 578 l 1,16,-1
 445 578 l 1,17,-1
 445 768 l 1,18,-1
 -16 768 l 1,19,-1
 -16 819 l 1,20,-1
 359 819 l 1,21,-1
 359 887 l 1,22,-1
 445 901 l 1,23,-1
 445 1063 l 1,24,-1
 359 1049 l 1,25,-1
 359 1161 l 1,26,-1
 445 1176 l 1,27,-1
 445 1178 l 1,28,-1
 -16 1178 l 1,29,-1
 -16 1229 l 1,30,-1
 70 1229 l 1,31,-1
 70 1399 l 1,32,-1
 -16 1384 l 1,33,-1
 -16 1501 l 1,34,-1
 70 1516 l 1,35,-1
 70 1587 l 1,36,-1
 -16 1587 l 1,37,-1
 -16 1638 l 1,38,-1
 70 1638 l 1,39,-1
 70 1677 l 1,40,-1
 -16 1663 l 1,41,-1
 -16 1776 l 1,42,-1
 70 1790 l 1,43,-1
 70 1964 l 1,44,-1
 121 1964 l 1,45,-1
 121 1800 l 1,46,-1
 232 1819 l 1,47,-1
 232 2042 l 1,48,-1
 283 2042 l 1,49,-1
 283 1827 l 1,50,-1
 361 1841 l 1,51,-1
 361 1731 l 1,52,-1
 283 1716 l 1,53,-1
 283 1638 l 1,54,-1
 738 1638 l 1,55,-1
 738 1712 l 1,56,-1
 824 1726 l 1,57,-1
 824 1888 l 1,58,-1
 738 1874 l 1,59,-1
 738 1987 l 1,60,-1
 824 2001 l 1,61,-1
 824 2175 l 1,62,-1
 875 2175 l 1,63,-1
 875 2011 l 1,64,-1
 985 2030 l 1,65,-1
 985 2253 l 1,66,-1
 1037 2253 l 1,67,-1
 1037 2038 l 1,68,-1
 1114 2052 l 1,69,-1
 1114 1942 l 1,70,-1
 1037 1927 l 1,71,-1
 1037 1763 l 1,72,-1
 1114 1778 l 1,73,-1
 1114 1661 l 1,74,-1
 1037 1649 l 1,75,-1
 1037 1638 l 1,76,-1
 1520 1638 l 1,77,-1
 1520 1587 l 1,78,-1
 1037 1587 l 1,79,-1
 1037 1477 l 1,80,-1
 985 1477 l 1,81,-1
 985 1587 l 1,82,-1
 875 1587 l 1,83,-1
 875 1403 l 1,84,-1
 824 1403 l 1,85,-1
 824 1587 l 1,86,-1
 283 1587 l 1,87,-1
 283 1552 l 1,88,-1
 361 1567 l 1,89,-1
 361 1450 l 1,90,-1
 283 1438 l 1,91,-1
 283 1266 l 1,92,-1
 232 1266 l 1,93,-1
 232 1430 l 1,94,-1
 121 1409 l 1,95,-1
 121 1229 l 1,96,-1
 445 1229 l 1,97,-1
 445 1350 l 1,98,-1
 496 1350 l 1,99,-1
 496 1229 l 1,100,-1
 607 1229 l 1,101,-1
 607 1427 l 1,102,-1
 658 1427 l 1,103,-1
 658 1229 l 1,104,-1
 1520 1229 l 1,105,-1
 1520 1178 l 1,0,-1
1520 358 m 1,106,-1
 -16 358 l 1,107,-1
 -16 410 l 1,108,-1
 1520 410 l 1,109,-1
 1520 358 l 1,106,-1
1520 -51 m 1,110,-1
 -16 -51 l 1,111,-1
 -16 0 l 1,112,-1
 1520 0 l 1,113,-1
 1520 -51 l 1,110,-1
607 1092 m 1,114,-1
 496 1073 l 1,115,-1
 496 911 l 1,116,-1
 607 930 l 1,117,-1
 607 1092 l 1,114,-1
985 1917 m 1,118,-1
 875 1898 l 1,119,-1
 875 1737 l 1,120,-1
 985 1755 l 1,121,-1
 985 1917 l 1,118,-1
232 1638 m 1,122,-1
 232 1706 l 1,123,-1
 121 1688 l 1,124,-1
 121 1638 l 1,125,-1
 232 1638 l 1,122,-1
232 1587 m 1,126,-1
 121 1587 l 1,127,-1
 121 1526 l 1,128,-1
 232 1544 l 1,129,-1
 232 1587 l 1,126,-1
985 1638 m 1,130,-1
 985 1640 l 1,131,-1
 973 1638 l 1,132,-1
 985 1638 l 1,130,-1
EndSplineSet
Validated: 1
EndChar

StartChar: currency
Encoding: 164 164 99
Width: 1504
GlyphClass: 1
Flags: W
LayerCount: 2
Fore
SplineSet
1520 1178 m 1,0,-1
 1407 1178 l 1,1,-1
 1407 1141 l 1,2,-1
 1485 1155 l 1,3,-1
 1485 1038 l 1,4,-1
 1407 1026 l 1,5,-1
 1407 854 l 1,6,-1
 1356 854 l 1,7,-1
 1356 1018 l 1,8,-1
 1246 997 l 1,9,-1
 1246 819 l 1,10,-1
 1520 819 l 1,11,-1
 1520 768 l 1,12,-1
 658 768 l 1,13,-1
 658 651 l 1,14,-1
 607 651 l 1,15,-1
 607 768 l 1,16,-1
 496 768 l 1,17,-1
 496 578 l 1,18,-1
 445 578 l 1,19,-1
 445 768 l 1,20,-1
 -16 768 l 1,21,-1
 -16 819 l 1,22,-1
 359 819 l 1,23,-1
 359 887 l 1,24,-1
 445 901 l 1,25,-1
 445 1063 l 1,26,-1
 359 1049 l 1,27,-1
 359 1161 l 1,28,-1
 445 1176 l 1,29,-1
 445 1178 l 1,30,-1
 -16 1178 l 1,31,-1
 -16 1229 l 1,32,-1
 70 1229 l 1,33,-1
 70 1399 l 1,34,-1
 -16 1384 l 1,35,-1
 -16 1501 l 1,36,-1
 70 1516 l 1,37,-1
 70 1587 l 1,38,-1
 -16 1587 l 1,39,-1
 -16 1638 l 1,40,-1
 70 1638 l 1,41,-1
 70 1677 l 1,42,-1
 -16 1663 l 1,43,-1
 -16 1776 l 1,44,-1
 70 1790 l 1,45,-1
 70 1964 l 1,46,-1
 121 1964 l 1,47,-1
 121 1800 l 1,48,-1
 232 1819 l 1,49,-1
 232 2042 l 1,50,-1
 283 2042 l 1,51,-1
 283 1827 l 1,52,-1
 361 1841 l 1,53,-1
 361 1731 l 1,54,-1
 283 1716 l 1,55,-1
 283 1638 l 1,56,-1
 738 1638 l 1,57,-1
 738 1712 l 1,58,-1
 824 1726 l 1,59,-1
 824 1888 l 1,60,-1
 738 1874 l 1,61,-1
 738 1987 l 1,62,-1
 824 2001 l 1,63,-1
 824 2175 l 1,64,-1
 875 2175 l 1,65,-1
 875 2011 l 1,66,-1
 985 2030 l 1,67,-1
 985 2253 l 1,68,-1
 1037 2253 l 1,69,-1
 1037 2038 l 1,70,-1
 1114 2052 l 1,71,-1
 1114 1942 l 1,72,-1
 1037 1927 l 1,73,-1
 1037 1763 l 1,74,-1
 1114 1778 l 1,75,-1
 1114 1661 l 1,76,-1
 1037 1649 l 1,77,-1
 1037 1638 l 1,78,-1
 1520 1638 l 1,79,-1
 1520 1587 l 1,80,-1
 1407 1587 l 1,81,-1
 1407 1415 l 1,82,-1
 1485 1430 l 1,83,-1
 1485 1319 l 1,84,-1
 1407 1305 l 1,85,-1
 1407 1229 l 1,86,-1
 1520 1229 l 1,87,-1
 1520 1178 l 1,0,-1
283 1552 m 1,88,-1
 361 1567 l 1,89,-1
 361 1450 l 1,90,-1
 283 1438 l 1,91,-1
 283 1266 l 1,92,-1
 232 1266 l 1,93,-1
 232 1430 l 1,94,-1
 121 1409 l 1,95,-1
 121 1229 l 1,96,-1
 445 1229 l 1,97,-1
 445 1350 l 1,98,-1
 496 1350 l 1,99,-1
 496 1229 l 1,100,-1
 607 1229 l 1,101,-1
 607 1427 l 1,102,-1
 658 1427 l 1,103,-1
 658 1229 l 1,104,-1
 1194 1229 l 1,105,-1
 1194 1266 l 1,106,-1
 1108 1251 l 1,107,-1
 1108 1364 l 1,108,-1
 1194 1378 l 1,109,-1
 1194 1552 l 1,110,-1
 1246 1552 l 1,111,-1
 1246 1389 l 1,112,-1
 1356 1407 l 1,113,-1
 1356 1587 l 1,114,-1
 1037 1587 l 1,115,-1
 1037 1477 l 1,116,-1
 985 1477 l 1,117,-1
 985 1587 l 1,118,-1
 875 1587 l 1,119,-1
 875 1403 l 1,120,-1
 824 1403 l 1,121,-1
 824 1587 l 1,122,-1
 283 1587 l 1,123,-1
 283 1552 l 1,88,-1
1194 1178 m 1,124,-1
 736 1178 l 1,125,-1
 736 1116 l 1,126,-1
 658 1102 l 1,127,-1
 658 938 l 1,128,-1
 736 952 l 1,129,-1
 736 836 l 1,130,-1
 658 823 l 1,131,-1
 658 819 l 1,132,-1
 1194 819 l 1,133,-1
 1194 987 l 1,134,-1
 1108 973 l 1,135,-1
 1108 1090 l 1,136,-1
 1194 1104 l 1,137,-1
 1194 1178 l 1,124,-1
1520 358 m 1,138,-1
 -16 358 l 1,139,-1
 -16 410 l 1,140,-1
 1520 410 l 1,141,-1
 1520 358 l 1,138,-1
1520 -51 m 1,142,-1
 -16 -51 l 1,143,-1
 -16 0 l 1,144,-1
 1520 0 l 1,145,-1
 1520 -51 l 1,142,-1
607 1092 m 1,146,-1
 496 1073 l 1,147,-1
 496 911 l 1,148,-1
 607 930 l 1,149,-1
 607 1092 l 1,146,-1
985 1917 m 1,150,-1
 875 1898 l 1,151,-1
 875 1737 l 1,152,-1
 985 1755 l 1,153,-1
 985 1917 l 1,150,-1
232 1638 m 1,154,-1
 232 1706 l 1,155,-1
 121 1688 l 1,156,-1
 121 1638 l 1,157,-1
 232 1638 l 1,154,-1
1356 1229 m 1,158,-1
 1356 1294 l 1,159,-1
 1246 1276 l 1,160,-1
 1246 1229 l 1,161,-1
 1356 1229 l 1,158,-1
1356 1178 m 1,162,-1
 1246 1178 l 1,163,-1
 1246 1114 l 1,164,-1
 1356 1133 l 1,165,-1
 1356 1178 l 1,162,-1
232 1587 m 1,166,-1
 121 1587 l 1,167,-1
 121 1526 l 1,168,-1
 232 1544 l 1,169,-1
 232 1587 l 1,166,-1
985 1638 m 1,170,-1
 985 1640 l 1,171,-1
 973 1638 l 1,172,-1
 985 1638 l 1,170,-1
EndSplineSet
Validated: 1
EndChar

StartChar: yen
Encoding: 165 165 100
Width: 2016
GlyphClass: 1
Flags: W
LayerCount: 2
Fore
SplineSet
2032 768 m 1,0,-1
 1835 768 l 1,1,-1
 1835 707 l 1,2,-1
 1758 692 l 1,3,-1
 1758 528 l 1,4,-1
 1835 543 l 1,5,-1
 1835 426 l 1,6,-1
 1758 414 l 1,7,-1
 1758 410 l 1,8,-1
 2032 410 l 1,9,-1
 2032 358 l 1,10,-1
 1758 358 l 1,11,-1
 1758 242 l 1,12,-1
 1708 242 l 1,13,-1
 1708 358 l 1,14,-1
 1598 358 l 1,15,-1
 1598 168 l 1,16,-1
 1549 168 l 1,17,-1
 1549 358 l 1,18,-1
 -16 358 l 1,19,-1
 -16 410 l 1,20,-1
 1463 410 l 1,21,-1
 1463 477 l 1,22,-1
 1549 492 l 1,23,-1
 1549 653 l 1,24,-1
 1463 639 l 1,25,-1
 1463 752 l 1,26,-1
 1549 766 l 1,27,-1
 1549 768 l 1,28,-1
 650 768 l 1,29,-1
 650 651 l 1,30,-1
 600 651 l 1,31,-1
 600 768 l 1,32,-1
 490 768 l 1,33,-1
 490 578 l 1,34,-1
 441 578 l 1,35,-1
 441 768 l 1,36,-1
 -16 768 l 1,37,-1
 -16 819 l 1,38,-1
 355 819 l 1,39,-1
 355 887 l 1,40,-1
 441 901 l 1,41,-1
 441 1063 l 1,42,-1
 355 1049 l 1,43,-1
 355 1161 l 1,44,-1
 441 1176 l 1,45,-1
 441 1178 l 1,46,-1
 -16 1178 l 1,47,-1
 -16 1229 l 1,48,-1
 70 1229 l 1,49,-1
 70 1399 l 1,50,-1
 -16 1384 l 1,51,-1
 -16 1501 l 1,52,-1
 70 1516 l 1,53,-1
 70 1587 l 1,54,-1
 -16 1587 l 1,55,-1
 -16 1638 l 1,56,-1
 70 1638 l 1,57,-1
 70 1677 l 1,58,-1
 -16 1663 l 1,59,-1
 -16 1776 l 1,60,-1
 70 1790 l 1,61,-1
 70 1964 l 1,62,-1
 119 1964 l 1,63,-1
 119 1800 l 1,64,-1
 230 1819 l 1,65,-1
 230 2042 l 1,66,-1
 279 2042 l 1,67,-1
 279 1827 l 1,68,-1
 357 1841 l 1,69,-1
 357 1731 l 1,70,-1
 279 1716 l 1,71,-1
 279 1638 l 1,72,-1
 729 1638 l 1,73,-1
 729 1712 l 1,74,-1
 815 1726 l 1,75,-1
 815 1888 l 1,76,-1
 729 1874 l 1,77,-1
 729 1987 l 1,78,-1
 815 2001 l 1,79,-1
 815 2175 l 1,80,-1
 865 2175 l 1,81,-1
 865 2011 l 1,82,-1
 975 2030 l 1,83,-1
 975 2253 l 1,84,-1
 1024 2253 l 1,85,-1
 1024 2038 l 1,86,-1
 1102 2052 l 1,87,-1
 1102 1942 l 1,88,-1
 1024 1927 l 1,89,-1
 1024 1763 l 1,90,-1
 1102 1778 l 1,91,-1
 1102 1661 l 1,92,-1
 1024 1649 l 1,93,-1
 1024 1638 l 1,94,-1
 2032 1638 l 1,95,-1
 2032 1587 l 1,96,-1
 1391 1587 l 1,97,-1
 1391 1415 l 1,98,-1
 1469 1430 l 1,99,-1
 1469 1319 l 1,100,-1
 1391 1305 l 1,101,-1
 1391 1229 l 1,102,-1
 2032 1229 l 1,103,-1
 2032 1178 l 1,104,-1
 1391 1178 l 1,105,-1
 1391 1141 l 1,106,-1
 1469 1155 l 1,107,-1
 1469 1038 l 1,108,-1
 1391 1026 l 1,109,-1
 1391 854 l 1,110,-1
 1342 854 l 1,111,-1
 1342 1018 l 1,112,-1
 1231 997 l 1,113,-1
 1231 819 l 1,114,-1
 1549 819 l 1,115,-1
 1549 940 l 1,116,-1
 1598 940 l 1,117,-1
 1598 819 l 1,118,-1
 1708 819 l 1,119,-1
 1708 1018 l 1,120,-1
 1758 1018 l 1,121,-1
 1758 819 l 1,122,-1
 2032 819 l 1,123,-1
 2032 768 l 1,0,-1
279 1552 m 1,124,-1
 357 1567 l 1,125,-1
 357 1450 l 1,126,-1
 279 1438 l 1,127,-1
 279 1266 l 1,128,-1
 230 1266 l 1,129,-1
 230 1430 l 1,130,-1
 119 1409 l 1,131,-1
 119 1229 l 1,132,-1
 441 1229 l 1,133,-1
 441 1350 l 1,134,-1
 490 1350 l 1,135,-1
 490 1229 l 1,136,-1
 600 1229 l 1,137,-1
 600 1427 l 1,138,-1
 650 1427 l 1,139,-1
 650 1229 l 1,140,-1
 1182 1229 l 1,141,-1
 1182 1266 l 1,142,-1
 1096 1251 l 1,143,-1
 1096 1364 l 1,144,-1
 1182 1378 l 1,145,-1
 1182 1552 l 1,146,-1
 1231 1552 l 1,147,-1
 1231 1389 l 1,148,-1
 1342 1407 l 1,149,-1
 1342 1587 l 1,150,-1
 1024 1587 l 1,151,-1
 1024 1477 l 1,152,-1
 975 1477 l 1,153,-1
 975 1587 l 1,154,-1
 865 1587 l 1,155,-1
 865 1403 l 1,156,-1
 815 1403 l 1,157,-1
 815 1587 l 1,158,-1
 279 1587 l 1,159,-1
 279 1552 l 1,124,-1
1182 1178 m 1,160,-1
 727 1178 l 1,161,-1
 727 1116 l 1,162,-1
 650 1102 l 1,163,-1
 650 938 l 1,164,-1
 727 952 l 1,165,-1
 727 836 l 1,166,-1
 650 823 l 1,167,-1
 650 819 l 1,168,-1
 1182 819 l 1,169,-1
 1182 987 l 1,170,-1
 1096 973 l 1,171,-1
 1096 1090 l 1,172,-1
 1182 1104 l 1,173,-1
 1182 1178 l 1,160,-1
2032 -51 m 1,174,-1
 -16 -51 l 1,175,-1
 -16 0 l 1,176,-1
 2032 0 l 1,177,-1
 2032 -51 l 1,174,-1
600 1092 m 1,178,-1
 490 1073 l 1,179,-1
 490 911 l 1,180,-1
 600 930 l 1,181,-1
 600 1092 l 1,178,-1
1708 682 m 1,182,-1
 1598 664 l 1,183,-1
 1598 502 l 1,184,-1
 1708 520 l 1,185,-1
 1708 682 l 1,182,-1
975 1917 m 1,186,-1
 865 1898 l 1,187,-1
 865 1737 l 1,188,-1
 975 1755 l 1,189,-1
 975 1917 l 1,186,-1
230 1638 m 1,190,-1
 230 1706 l 1,191,-1
 119 1688 l 1,192,-1
 119 1638 l 1,193,-1
 230 1638 l 1,190,-1
1342 1229 m 1,194,-1
 1342 1294 l 1,195,-1
 1231 1276 l 1,196,-1
 1231 1229 l 1,197,-1
 1342 1229 l 1,194,-1
1342 1178 m 1,198,-1
 1231 1178 l 1,199,-1
 1231 1114 l 1,200,-1
 1342 1133 l 1,201,-1
 1342 1178 l 1,198,-1
230 1587 m 1,202,-1
 119 1587 l 1,203,-1
 119 1526 l 1,204,-1
 230 1544 l 1,205,-1
 230 1587 l 1,202,-1
975 1638 m 1,206,-1
 975 1640 l 1,207,-1
 963 1638 l 1,208,-1
 975 1638 l 1,206,-1
EndSplineSet
Validated: 1
EndChar

StartChar: brokenbar
Encoding: 166 166 101
Width: 2528
GlyphClass: 1
Flags: W
LayerCount: 2
Fore
SplineSet
2542 768 m 1,0,-1
 1835 768 l 1,1,-1
 1835 707 l 1,2,-1
 1758 692 l 1,3,-1
 1758 528 l 1,4,-1
 1835 543 l 1,5,-1
 1835 426 l 1,6,-1
 1758 414 l 1,7,-1
 1758 410 l 1,8,-1
 2542 410 l 1,9,-1
 2542 358 l 1,10,-1
 1758 358 l 1,11,-1
 1758 242 l 1,12,-1
 1708 242 l 1,13,-1
 1708 358 l 1,14,-1
 1598 358 l 1,15,-1
 1598 168 l 1,16,-1
 1549 168 l 1,17,-1
 1549 358 l 1,18,-1
 -16 358 l 1,19,-1
 -16 410 l 1,20,-1
 1463 410 l 1,21,-1
 1463 477 l 1,22,-1
 1549 492 l 1,23,-1
 1549 653 l 1,24,-1
 1463 639 l 1,25,-1
 1463 752 l 1,26,-1
 1549 766 l 1,27,-1
 1549 768 l 1,28,-1
 650 768 l 1,29,-1
 650 651 l 1,30,-1
 600 651 l 1,31,-1
 600 768 l 1,32,-1
 490 768 l 1,33,-1
 490 578 l 1,34,-1
 441 578 l 1,35,-1
 441 768 l 1,36,-1
 -16 768 l 1,37,-1
 -16 819 l 1,38,-1
 355 819 l 1,39,-1
 355 887 l 1,40,-1
 441 901 l 1,41,-1
 441 1063 l 1,42,-1
 355 1049 l 1,43,-1
 355 1161 l 1,44,-1
 441 1176 l 1,45,-1
 441 1178 l 1,46,-1
 -16 1178 l 1,47,-1
 -16 1229 l 1,48,-1
 70 1229 l 1,49,-1
 70 1399 l 1,50,-1
 -16 1384 l 1,51,-1
 -16 1501 l 1,52,-1
 70 1516 l 1,53,-1
 70 1587 l 1,54,-1
 -16 1587 l 1,55,-1
 -16 1638 l 1,56,-1
 70 1638 l 1,57,-1
 70 1677 l 1,58,-1
 -16 1663 l 1,59,-1
 -16 1776 l 1,60,-1
 70 1790 l 1,61,-1
 70 1964 l 1,62,-1
 119 1964 l 1,63,-1
 119 1800 l 1,64,-1
 230 1819 l 1,65,-1
 230 2042 l 1,66,-1
 279 2042 l 1,67,-1
 279 1827 l 1,68,-1
 357 1841 l 1,69,-1
 357 1731 l 1,70,-1
 279 1716 l 1,71,-1
 279 1638 l 1,72,-1
 729 1638 l 1,73,-1
 729 1712 l 1,74,-1
 815 1726 l 1,75,-1
 815 1888 l 1,76,-1
 729 1874 l 1,77,-1
 729 1987 l 1,78,-1
 815 2001 l 1,79,-1
 815 2175 l 1,80,-1
 865 2175 l 1,81,-1
 865 2011 l 1,82,-1
 975 2030 l 1,83,-1
 975 2253 l 1,84,-1
 1024 2253 l 1,85,-1
 1024 2038 l 1,86,-1
 1102 2052 l 1,87,-1
 1102 1942 l 1,88,-1
 1024 1927 l 1,89,-1
 1024 1763 l 1,90,-1
 1102 1778 l 1,91,-1
 1102 1661 l 1,92,-1
 1024 1649 l 1,93,-1
 1024 1638 l 1,94,-1
 1909 1638 l 1,95,-1
 1909 1757 l 1,96,-1
 1958 1757 l 1,97,-1
 1958 1638 l 1,98,-1
 2069 1638 l 1,99,-1
 2069 1835 l 1,100,-1
 2118 1835 l 1,101,-1
 2118 1638 l 1,102,-1
 2542 1638 l 1,103,-1
 2542 1587 l 1,104,-1
 2196 1587 l 1,105,-1
 2196 1524 l 1,106,-1
 2118 1509 l 1,107,-1
 2118 1346 l 1,108,-1
 2196 1360 l 1,109,-1
 2196 1243 l 1,110,-1
 2118 1231 l 1,111,-1
 2118 1229 l 1,112,-1
 2542 1229 l 1,113,-1
 2542 1178 l 1,114,-1
 2118 1178 l 1,115,-1
 2118 1059 l 1,116,-1
 2069 1059 l 1,117,-1
 2069 1178 l 1,118,-1
 1958 1178 l 1,119,-1
 1958 985 l 1,120,-1
 1909 985 l 1,121,-1
 1909 1178 l 1,122,-1
 1391 1178 l 1,123,-1
 1391 1141 l 1,124,-1
 1469 1155 l 1,125,-1
 1469 1038 l 1,126,-1
 1391 1026 l 1,127,-1
 1391 854 l 1,128,-1
 1342 854 l 1,129,-1
 1342 1018 l 1,130,-1
 1231 997 l 1,131,-1
 1231 819 l 1,132,-1
 1549 819 l 1,133,-1
 1549 940 l 1,134,-1
 1598 940 l 1,135,-1
 1598 819 l 1,136,-1
 1708 819 l 1,137,-1
 1708 1018 l 1,138,-1
 1758 1018 l 1,139,-1
 1758 819 l 1,140,-1
 2542 819 l 1,141,-1
 2542 768 l 1,0,-1
279 1552 m 1,142,-1
 357 1567 l 1,143,-1
 357 1450 l 1,144,-1
 279 1438 l 1,145,-1
 279 1266 l 1,146,-1
 230 1266 l 1,147,-1
 230 1430 l 1,148,-1
 119 1409 l 1,149,-1
 119 1229 l 1,150,-1
 441 1229 l 1,151,-1
 441 1350 l 1,152,-1
 490 1350 l 1,153,-1
 490 1229 l 1,154,-1
 600 1229 l 1,155,-1
 600 1427 l 1,156,-1
 650 1427 l 1,157,-1
 650 1229 l 1,158,-1
 1182 1229 l 1,159,-1
 1182 1266 l 1,160,-1
 1096 1251 l 1,161,-1
 1096 1364 l 1,162,-1
 1182 1378 l 1,163,-1
 1182 1552 l 1,164,-1
 1231 1552 l 1,165,-1
 1231 1389 l 1,166,-1
 1342 1407 l 1,167,-1
 1342 1587 l 1,168,-1
 1024 1587 l 1,169,-1
 1024 1477 l 1,170,-1
 975 1477 l 1,171,-1
 975 1587 l 1,172,-1
 865 1587 l 1,173,-1
 865 1403 l 1,174,-1
 815 1403 l 1,175,-1
 815 1587 l 1,176,-1
 279 1587 l 1,177,-1
 279 1552 l 1,142,-1
1182 1178 m 1,178,-1
 727 1178 l 1,179,-1
 727 1116 l 1,180,-1
 650 1102 l 1,181,-1
 650 938 l 1,182,-1
 727 952 l 1,183,-1
 727 836 l 1,184,-1
 650 823 l 1,185,-1
 650 819 l 1,186,-1
 1182 819 l 1,187,-1
 1182 987 l 1,188,-1
 1096 973 l 1,189,-1
 1096 1090 l 1,190,-1
 1182 1104 l 1,191,-1
 1182 1178 l 1,178,-1
1909 1470 m 1,192,-1
 1823 1456 l 1,193,-1
 1823 1569 l 1,194,-1
 1909 1583 l 1,195,-1
 1909 1587 l 1,196,-1
 1391 1587 l 1,197,-1
 1391 1415 l 1,198,-1
 1469 1430 l 1,199,-1
 1469 1319 l 1,200,-1
 1391 1305 l 1,201,-1
 1391 1229 l 1,202,-1
 1823 1229 l 1,203,-1
 1823 1294 l 1,204,-1
 1909 1309 l 1,205,-1
 1909 1470 l 1,192,-1
2544 -51 m 1,206,-1
 -16 -51 l 1,207,-1
 -16 0 l 1,208,-1
 2544 0 l 1,209,-1
 2544 -51 l 1,206,-1
600 1092 m 1,210,-1
 490 1073 l 1,211,-1
 490 911 l 1,212,-1
 600 930 l 1,213,-1
 600 1092 l 1,210,-1
1708 682 m 1,214,-1
 1598 664 l 1,215,-1
 1598 502 l 1,216,-1
 1708 520 l 1,217,-1
 1708 682 l 1,214,-1
975 1917 m 1,218,-1
 865 1898 l 1,219,-1
 865 1737 l 1,220,-1
 975 1755 l 1,221,-1
 975 1917 l 1,218,-1
2069 1499 m 1,222,-1
 1958 1481 l 1,223,-1
 1958 1319 l 1,224,-1
 2069 1337 l 1,225,-1
 2069 1499 l 1,222,-1
230 1638 m 1,226,-1
 230 1706 l 1,227,-1
 119 1688 l 1,228,-1
 119 1638 l 1,229,-1
 230 1638 l 1,226,-1
1342 1229 m 1,230,-1
 1342 1294 l 1,231,-1
 1231 1276 l 1,232,-1
 1231 1229 l 1,233,-1
 1342 1229 l 1,230,-1
1342 1178 m 1,234,-1
 1231 1178 l 1,235,-1
 1231 1114 l 1,236,-1
 1342 1133 l 1,237,-1
 1342 1178 l 1,234,-1
230 1587 m 1,238,-1
 119 1587 l 1,239,-1
 119 1526 l 1,240,-1
 230 1544 l 1,241,-1
 230 1587 l 1,238,-1
975 1638 m 1,242,-1
 975 1640 l 1,243,-1
 963 1638 l 1,244,-1
 975 1638 l 1,242,-1
EndSplineSet
Validated: 1
EndChar

StartChar: section
Encoding: 167 167 102
Width: 3040
GlyphClass: 1
Flags: W
LayerCount: 2
Fore
SplineSet
3056 768 m 1,0,-1
 2493 768 l 1,1,-1
 2493 727 l 1,2,-1
 2571 741 l 1,3,-1
 2571 625 l 1,4,-1
 2493 612 l 1,5,-1
 2493 440 l 1,6,-1
 2444 440 l 1,7,-1
 2444 604 l 1,8,-1
 2333 584 l 1,9,-1
 2333 410 l 1,10,-1
 3056 410 l 1,11,-1
 3056 358 l 1,12,-1
 1758 358 l 1,13,-1
 1758 242 l 1,14,-1
 1708 242 l 1,15,-1
 1708 358 l 1,16,-1
 1598 358 l 1,17,-1
 1598 168 l 1,18,-1
 1549 168 l 1,19,-1
 1549 358 l 1,20,-1
 -16 358 l 1,21,-1
 -16 410 l 1,22,-1
 1463 410 l 1,23,-1
 1463 477 l 1,24,-1
 1549 492 l 1,25,-1
 1549 653 l 1,26,-1
 1463 639 l 1,27,-1
 1463 752 l 1,28,-1
 1549 766 l 1,29,-1
 1549 768 l 1,30,-1
 650 768 l 1,31,-1
 650 651 l 1,32,-1
 600 651 l 1,33,-1
 600 768 l 1,34,-1
 490 768 l 1,35,-1
 490 578 l 1,36,-1
 441 578 l 1,37,-1
 441 768 l 1,38,-1
 -16 768 l 1,39,-1
 -16 819 l 1,40,-1
 355 819 l 1,41,-1
 355 887 l 1,42,-1
 441 901 l 1,43,-1
 441 1063 l 1,44,-1
 355 1049 l 1,45,-1
 355 1161 l 1,46,-1
 441 1176 l 1,47,-1
 441 1178 l 1,48,-1
 -16 1178 l 1,49,-1
 -16 1229 l 1,50,-1
 70 1229 l 1,51,-1
 70 1399 l 1,52,-1
 -16 1384 l 1,53,-1
 -16 1501 l 1,54,-1
 70 1516 l 1,55,-1
 70 1587 l 1,56,-1
 -16 1587 l 1,57,-1
 -16 1638 l 1,58,-1
 70 1638 l 1,59,-1
 70 1677 l 1,60,-1
 -16 1663 l 1,61,-1
 -16 1776 l 1,62,-1
 70 1790 l 1,63,-1
 70 1964 l 1,64,-1
 119 1964 l 1,65,-1
 119 1800 l 1,66,-1
 230 1819 l 1,67,-1
 230 2042 l 1,68,-1
 279 2042 l 1,69,-1
 279 1827 l 1,70,-1
 357 1841 l 1,71,-1
 357 1731 l 1,72,-1
 279 1716 l 1,73,-1
 279 1638 l 1,74,-1
 729 1638 l 1,75,-1
 729 1712 l 1,76,-1
 815 1726 l 1,77,-1
 815 1888 l 1,78,-1
 729 1874 l 1,79,-1
 729 1987 l 1,80,-1
 815 2001 l 1,81,-1
 815 2175 l 1,82,-1
 865 2175 l 1,83,-1
 865 2011 l 1,84,-1
 975 2030 l 1,85,-1
 975 2253 l 1,86,-1
 1024 2253 l 1,87,-1
 1024 2038 l 1,88,-1
 1102 2052 l 1,89,-1
 1102 1942 l 1,90,-1
 1024 1927 l 1,91,-1
 1024 1763 l 1,92,-1
 1102 1778 l 1,93,-1
 1102 1661 l 1,94,-1
 1024 1649 l 1,95,-1
 1024 1638 l 1,96,-1
 1909 1638 l 1,97,-1
 1909 1757 l 1,98,-1
 1958 1757 l 1,99,-1
 1958 1638 l 1,100,-1
 2069 1638 l 1,101,-1
 2069 1835 l 1,102,-1
 2118 1835 l 1,103,-1
 2118 1638 l 1,104,-1
 3056 1638 l 1,105,-1
 3056 1587 l 1,106,-1
 2196 1587 l 1,107,-1
 2196 1524 l 1,108,-1
 2118 1509 l 1,109,-1
 2118 1346 l 1,110,-1
 2196 1360 l 1,111,-1
 2196 1243 l 1,112,-1
 2118 1231 l 1,113,-1
 2118 1229 l 1,114,-1
 3056 1229 l 1,115,-1
 3056 1178 l 1,116,-1
 2493 1178 l 1,117,-1
 2493 1001 l 1,118,-1
 2571 1016 l 1,119,-1
 2571 905 l 1,120,-1
 2493 891 l 1,121,-1
 2493 819 l 1,122,-1
 3056 819 l 1,123,-1
 3056 768 l 1,0,-1
279 1552 m 1,124,-1
 357 1567 l 1,125,-1
 357 1450 l 1,126,-1
 279 1438 l 1,127,-1
 279 1266 l 1,128,-1
 230 1266 l 1,129,-1
 230 1430 l 1,130,-1
 119 1409 l 1,131,-1
 119 1229 l 1,132,-1
 441 1229 l 1,133,-1
 441 1350 l 1,134,-1
 490 1350 l 1,135,-1
 490 1229 l 1,136,-1
 600 1229 l 1,137,-1
 600 1427 l 1,138,-1
 650 1427 l 1,139,-1
 650 1229 l 1,140,-1
 1182 1229 l 1,141,-1
 1182 1266 l 1,142,-1
 1096 1251 l 1,143,-1
 1096 1364 l 1,144,-1
 1182 1378 l 1,145,-1
 1182 1552 l 1,146,-1
 1231 1552 l 1,147,-1
 1231 1389 l 1,148,-1
 1342 1407 l 1,149,-1
 1342 1587 l 1,150,-1
 1024 1587 l 1,151,-1
 1024 1477 l 1,152,-1
 975 1477 l 1,153,-1
 975 1587 l 1,154,-1
 865 1587 l 1,155,-1
 865 1403 l 1,156,-1
 815 1403 l 1,157,-1
 815 1587 l 1,158,-1
 279 1587 l 1,159,-1
 279 1552 l 1,124,-1
1391 1141 m 1,160,-1
 1469 1155 l 1,161,-1
 1469 1038 l 1,162,-1
 1391 1026 l 1,163,-1
 1391 854 l 1,164,-1
 1342 854 l 1,165,-1
 1342 1018 l 1,166,-1
 1231 997 l 1,167,-1
 1231 819 l 1,168,-1
 1549 819 l 1,169,-1
 1549 940 l 1,170,-1
 1598 940 l 1,171,-1
 1598 819 l 1,172,-1
 1708 819 l 1,173,-1
 1708 1018 l 1,174,-1
 1758 1018 l 1,175,-1
 1758 819 l 1,176,-1
 2284 819 l 1,177,-1
 2284 852 l 1,178,-1
 2198 838 l 1,179,-1
 2198 950 l 1,180,-1
 2284 965 l 1,181,-1
 2284 1139 l 1,182,-1
 2333 1139 l 1,183,-1
 2333 975 l 1,184,-1
 2444 993 l 1,185,-1
 2444 1178 l 1,186,-1
 2118 1178 l 1,187,-1
 2118 1059 l 1,188,-1
 2069 1059 l 1,189,-1
 2069 1178 l 1,190,-1
 1958 1178 l 1,191,-1
 1958 985 l 1,192,-1
 1909 985 l 1,193,-1
 1909 1178 l 1,194,-1
 1391 1178 l 1,195,-1
 1391 1141 l 1,160,-1
1182 1178 m 1,196,-1
 727 1178 l 1,197,-1
 727 1116 l 1,198,-1
 650 1102 l 1,199,-1
 650 938 l 1,200,-1
 727 952 l 1,201,-1
 727 836 l 1,202,-1
 650 823 l 1,203,-1
 650 819 l 1,204,-1
 1182 819 l 1,205,-1
 1182 987 l 1,206,-1
 1096 973 l 1,207,-1
 1096 1090 l 1,208,-1
 1182 1104 l 1,209,-1
 1182 1178 l 1,196,-1
2284 768 m 1,210,-1
 1835 768 l 1,211,-1
 1835 707 l 1,212,-1
 1758 692 l 1,213,-1
 1758 528 l 1,214,-1
 1835 543 l 1,215,-1
 1835 426 l 1,216,-1
 1758 414 l 1,217,-1
 1758 410 l 1,218,-1
 2284 410 l 1,219,-1
 2284 573 l 1,220,-1
 2198 559 l 1,221,-1
 2198 676 l 1,222,-1
 2284 690 l 1,223,-1
 2284 768 l 1,210,-1
1909 1470 m 1,224,-1
 1823 1456 l 1,225,-1
 1823 1569 l 1,226,-1
 1909 1583 l 1,227,-1
 1909 1587 l 1,228,-1
 1391 1587 l 1,229,-1
 1391 1415 l 1,230,-1
 1469 1430 l 1,231,-1
 1469 1319 l 1,232,-1
 1391 1305 l 1,233,-1
 1391 1229 l 1,234,-1
 1823 1229 l 1,235,-1
 1823 1294 l 1,236,-1
 1909 1309 l 1,237,-1
 1909 1470 l 1,224,-1
3056 -51 m 1,238,-1
 -16 -51 l 1,239,-1
 -16 0 l 1,240,-1
 3056 0 l 1,241,-1
 3056 -51 l 1,238,-1
600 1092 m 1,242,-1
 490 1073 l 1,243,-1
 490 911 l 1,244,-1
 600 930 l 1,245,-1
 600 1092 l 1,242,-1
975 1917 m 1,246,-1
 865 1898 l 1,247,-1
 865 1737 l 1,248,-1
 975 1755 l 1,249,-1
 975 1917 l 1,246,-1
2069 1499 m 1,250,-1
 1958 1481 l 1,251,-1
 1958 1319 l 1,252,-1
 2069 1337 l 1,253,-1
 2069 1499 l 1,250,-1
1708 682 m 1,254,-1
 1598 664 l 1,255,-1
 1598 502 l 1,256,-1
 1708 520 l 1,257,-1
 1708 682 l 1,254,-1
230 1638 m 1,258,-1
 230 1706 l 1,259,-1
 119 1688 l 1,260,-1
 119 1638 l 1,261,-1
 230 1638 l 1,258,-1
2444 768 m 1,262,-1
 2333 768 l 1,263,-1
 2333 700 l 1,264,-1
 2444 719 l 1,265,-1
 2444 768 l 1,262,-1
1342 1229 m 1,266,-1
 1342 1294 l 1,267,-1
 1231 1276 l 1,268,-1
 1231 1229 l 1,269,-1
 1342 1229 l 1,266,-1
1342 1178 m 1,270,-1
 1231 1178 l 1,271,-1
 1231 1114 l 1,272,-1
 1342 1133 l 1,273,-1
 1342 1178 l 1,270,-1
230 1587 m 1,274,-1
 119 1587 l 1,275,-1
 119 1526 l 1,276,-1
 230 1544 l 1,277,-1
 230 1587 l 1,274,-1
2444 819 m 1,278,-1
 2444 881 l 1,279,-1
 2333 862 l 1,280,-1
 2333 819 l 1,281,-1
 2444 819 l 1,278,-1
975 1638 m 1,282,-1
 975 1640 l 1,283,-1
 963 1638 l 1,284,-1
 975 1638 l 1,282,-1
EndSplineSet
Validated: 1
EndChar

StartChar: dieresis
Encoding: 168 168 103
Width: 992
GlyphClass: 1
Flags: W
LayerCount: 2
Fore
SplineSet
1008 1178 m 1,0,-1
 31 1178 l 1,1,-1
 31 889 l 1,2,3
 95 934 95 934 170 934 c 0,4,5
 222 934 222 934 262.5 905.5 c 128,-1,6
 303 877 303 877 303 827 c 2,7,-1
 303 819 l 1,8,-1
 1008 819 l 1,9,-1
 1008 768 l 1,10,-1
 279 768 l 1,11,-1
 273 762 l 1,12,13
 260 743 260 743 237.5 725 c 128,-1,14
 215 707 215 707 185 684 c 2,15,-1
 78 606 l 2,16,17
 50 588 50 588 27 567.5 c 128,-1,18
 4 547 4 547 -14 528 c 1,19,-1
 -14 768 l 1,20,-1
 -16 768 l 1,21,-1
 -16 819 l 1,22,-1
 -14 819 l 1,23,-1
 -14 1178 l 1,24,-1
 -16 1178 l 1,25,-1
 -16 1229 l 1,26,-1
 -14 1229 l 1,27,-1
 -14 1389 l 1,28,-1
 31 1389 l 1,29,-1
 31 1229 l 1,30,-1
 1008 1229 l 1,31,-1
 1008 1178 l 1,0,-1
1008 358 m 1,32,-1
 -16 358 l 1,33,-1
 -16 410 l 1,34,-1
 1008 410 l 1,35,-1
 1008 358 l 1,32,-1
1008 -51 m 1,36,-1
 -16 -51 l 1,37,-1
 -16 0 l 1,38,-1
 1008 0 l 1,39,-1
 1008 -51 l 1,36,-1
1008 1587 m 1,40,-1
 -16 1587 l 1,41,-1
 -16 1638 l 1,42,-1
 1008 1638 l 1,43,-1
 1008 1587 l 1,40,-1
31 614 m 1,44,-1
 93 676 l 2,45,46
 109 692 109 692 122.5 704.5 c 128,-1,47
 136 717 136 717 144 729 c 0,48,49
 152 737 152 737 158 747.5 c 128,-1,50
 164 758 164 758 170 768 c 1,51,-1
 31 768 l 1,52,-1
 31 614 l 1,44,-1
31 819 m 1,53,-1
 185 819 l 1,54,-1
 185 823 l 2,55,56
 185 840 185 840 178.5 851 c 128,-1,57
 172 862 172 862 164 872 c 0,58,59
 156 879 156 879 146 884 c 128,-1,60
 136 889 136 889 119 889 c 0,61,62
 62 889 62 889 31 827 c 1,63,-1
 31 819 l 1,53,-1
EndSplineSet
Validated: 1
EndChar

